/* XPM */
static char *result[] = {
/* columns rows colors chars-per-pixel */
"122 103 44 1 ",
"  c black",
". c #180B0F",
"X c #141F1F",
"o c #231418",
"O c #2E1D23",
"+ c #002D32",
"@ c #34292E",
"# c #4D0E05",
"$ c #463511",
"% c #493B43",
"& c #2F4848",
"* c #30535C",
"= c #13646E",
"- c #006771",
"; c #006C76",
": c #136872",
"> c #2B6C77",
", c #494349",
"< c #5B4951",
"1 c #565E68",
"2 c #54636D",
"3 c #EB0000",
"4 c #8F6A20",
"5 c #D3B139",
"6 c #007682",
"7 c #4C7682",
"8 c #477F8C",
"9 c #777A95",
"0 c #806C8A",
"q c #00919F",
"w c #3994A3",
"e c #11B3AA",
"r c #47808D",
"t c #5D94A9",
"y c #509DB1",
"u c #4BA0B3",
"i c #00E6E6",
"p c #9EABAE",
"a c #8BADB3",
"s c #AAAAAA",
"d c #FFBAAF",
"f c #F3DA94",
"g c #B9EEEC",
"h c #EAEAEA",
/* pixels */
"                                                                                                                     .    ",
"                                                                                                                    O.    ",
"                                                                                                                   O4.    ",
"                                                                                                                   Of.    ",
"                                                                                                                  Of4.    ",
"                                                                                                               OOO5f$.    ",
"                                                                                                              O5hhf54.    ",
"                                                                                                        OOOOOOhhOOO44$.   ",
"                                                                                                         Of44h5O   $44.   ",
"                                                                                                          Ofh5O     $4.   ",
"                                                                                                           OhO      $5.   ",
"                                                                                                           O5O      $5.   ",
"                                                                                                           O4O      $5.   ",
"                                                                                                           O4O      $54.  ",
"                                                                                                           O4$O    $45ff. ",
"                                                                                                            O4$OO $45.....",
"                                                                                                            OO4h$$ff.     ",
"                                                                                                             Ohfff4.      ",
"                             3                                                                               O4$...       ",
"                             3                                                                          OO  O$4..         ",
"                             3#                                                                         O5OOO4$.          ",
"                           333##                                 .@00<.                                  OfO4f..          ",
"                          3##d..##                              @sss00<.                                 O$4ff$X.         ",
"                         3##3h3#.##                            .shhhs00O.                                O..5f45f..       ",
"                       3333dhhhd33##                           @shhhs00O.                                 ....$..         ",
"                         #.#3h3#...#                           0shhhs00O@                                 .X....          ",
"                         #.##d##.X.#                           00sss000@@                               .......           ",
"                          ..#3#.X&.#                           0000990<*2                              ...&...            ",
"                           ..3.X&&#                     ....   <09yap01ur+                             .&&X&...           ",
"                          &...X&e.#                     $444.  @<9=6-<w;q+ .$$44                       .&X.X.X.           ",
"                          &  X.. #   $$.      #           OO4. .@<t8>@<7: . .4$        #               XX....&..          ",
"XXXXXXXX                  X& &. #    44..    #d#           .O4. .OO@@<<@.  $5$        #d#       ..4O  .X& ..&X..          ",
"XhhhsssX                   X&.&.    45OO.     #3            .O5$ .@@<<@.  $5.          #3      ...O5O XX& .&.X.           ",
"Xhh@@<0X                    .&X&X. $5OOOO.                   .O5$        $5.                   .O.O45 .XX ..X&.           ",
"Xh@  @sX                       ..  ff5$OO..                ...%O54$     $5.                   ..,OOOf$ X.  &&.            ",
"Xs@  @sX                          $f4O4$,,..                 ..%44554  .ff.                  ..O,,545f .   .X             ",
"Xs<@@<h@X                         545$O4,,O..             ..O .%Oo5of4.fOf. .               ...OOf,OOf    .&              ",
"Xs0sshh<XXX                       5O$5O4$,OO..         ....@%.  .Ofoff.fOf .o             ..O..O$f,OO5                    ",
"XXXXX@<s<hX                       5OOfOf4$OOOO..     $44oo@4f54...ff55.554Ooo$44.       ..,,,O.O455O45 X.                 ",
"     XX<hsXX                      5Of5,,f5$$455O..     $4$4f@454OOo..5.5oOOO44$       ..OOO$ff4.5O4O$5 &                  ",
"      XhshsX                     $4O,,,,O$54OO$5.......  550%@45o..$54.45$Oo5$.   .......OOf,,55$OOOO5 &                  ",
"      XXXsh<X                    4$O,,OOOOOOO..4OOOO....      X5OO$f54.455$o5   .....OO...45O,OO..OOO5 .                  ",
"        XX<h<XX                  4O     ..O...O$44$OO.... XX&X 54$fo45.54o545XXX.O..O,,$445OOOOOO.OOO4                    ",
"          X<hsX                  4         ..O,,OO....O..  ..& X55@ %5.5...54XX .OO..O,,O...      .OO4                    ",
"           Xsh<X                                 ..OOOO.  X&.      X $ $ .........OOO..OO.           4                    ",
"           XX<h<X                         .               .X&X.X&&XX $ $ .&X.XX. ..OOO.                                   ",
"             X<s&X                         .                .XX. XXXX.  X...XX.                    $5    e                ",
"              X@&@X                         .........O@@O      XX.  .XXX. XX.    .                 ##4  ee                ",
"               X@&@X                         $$.ooO%<%<<%%@@%<O .X.      X.   OOooo.     $         #d#  e                 ",
"                X@&@X                          4$OOff50%<00%@@%0O   $$ $$   O.oOOo   ...$          3#   ie                ",
"                 X@&&@   X                      45f4 f50@%<00000%OOO$4.4$...oOOoo.$4$o.$                ie                ",
"                  X&ss<XX    X       #               4f4%O@%0%@%<@%%O4.4.oooOoo..$4 .$$      #         ei   e             ",
"                   Xshhss   X       #d#               4f@%O@%0<<O5f5%4.4o5f5oO@@o4$         #d#        i    e             ",
"                    <hX 0  Xs        #3                5f4OO@,,OOfofO4.4ofofoooo$4           #3        ege ee             ",
"                    Xs Xs@ @h     4                    .5ff54@@O4foOO5.5  of4o$44                  eig  egee   e          ",
"                    Xs0shhs&h     5                  .o....4555ffff55$.$55fff54$   ..             ei eg egg eeee          ",
"                   X   @hX 0@ $$$$f                 .oO...                    .... ...               egi&ggegiie          ",
"                        s Xs  $55ff              ...OO..oo..  X. X.  .X XX X  ..oooo......           e  eggge             ",
"                      X@&0s@  4$  5  $$$o...  ...OO,,oOOo..    X X&. &X XX     ..oOOOOO.OO..          & g X e&            ",
"                     Xshh@  d#5     .$$oooO@@@@45f4O,4O...     X. X. &. XX      ..oOOOooOOOO.   $$$   &eh &X e  ee        ",
"                    X       #3f &.  .4,OOO,O<<44,,544o..       .X .. X   X        ...Oo$4o@OoOO@o$$  Xeghh &     e        ",
"                         $$45ff$ &&X 5,O45f4@<4o@@,O...         X  .   X            . $oO4@@OO@,o,4 .&ehhheX& e  i        ",
"                         $4$    . &&.5,44@Of454oo...          . X. .   XX               .$4$4554@@f &&ehhg e& egii        ",
"                         $4   XX . &.4f@4@,O554...            . .. ..  X.                 $45Oof@,f &&XegeX e& ge         ",
"                         $5  .&. <X X.f544OOO@..             ........  ...                 OOoo45,f &&X.ee&&e& i          ",
"                       45ff5 &X  X<X .54455OO.               .o.o.........                  .o@45f5 XX... .&  ee          ",
"                             & X&  <X 45Oo,5o.              .oo.o.........                   .45445 .XX. .&ei e           ",
"                              && X X@X   ,@4.               .oooo.....o....                   54@,5   XX&&& ege           ",
"                              . &.    . 5 4.               ..O@oO.o...o.o..                   44,54    XX.  ee            ",
"                              X&. .&. X$5 .                .o%@@Oo@o..oo@.o                   .4,5                        ",
"                                 X&.  $f$                 .o<%o@Oo@o..o@@oo.                   4f4                        ",
"                                     55$d#               .o@<@O%Oo@Oo.@@<Ooo                   5f.                        ",
"                                        #3               .o<@O@%Ooo@O.%@<@oo                   54.                        ",
"                                                        .o<<@O@%OoO@<o%@<%oo.                  $.                         ",
"                                                       .o<0@O@@%OOO@<O%@<<Ooo                                             ",
"                                           #          .o<0@@O@@<OO@@0O%@%<%ooo                                            ",
"                                          #d#        .@<0@@oO@%0Oo%0<O%@@0<OoOo                                           ",
"                                           #3       .@<0<@ooO@<0OO<0@O%@@0<@ooOo            #                             ",
"                                                   .<<0<@@.oO%0<OO<<@@%%@<<@o.o@O          #d#                            ",
"                                                  .<<<<@@o.OO<0@oO%<@@O%@%<@@..@@O          #3                            ",
"                                                 .<<<<%@o.OO%<<Ooo%<@@O%%@<%@@.o@@o                                       ",
"                                                 .0<<<%o.oO<<<<oo.o%@@@@%O<<@@O.o<@.                                      ",
"                                                $ff5<<@..O<<55<oo..@%%@O%o@<%@@O.@<@                                      ",
"                                               45  45<...%<ff554Oo.o@%@O%%@<<%@@o.@@o                                     ",
"                                                44$  $%o.%foooo$4,..@@5f544%<<<@oo...                                     ",
"                                                     o$4%%%5o   $4,.$5f4 $44<45544o.$o                                    ",
"                                                       o555      o444$    $4454  o4$o                      #              ",
"                                                            .....              .                          #d#             ",
"                                                   . .o... ........  ....    .....                         #3             ",
"                                                   . @oo. ..o@oooo. ...........oo..                                       ",
"                                                  .o@@oo..o@@@,ooo.....o@@o..oo@@@..                                      ",
"                                                 .o@,@o..o@@@,,@oo...oo@,@@o.oo@@@@.                                      ",
"                                               ..o,0,@..oo@@<,,@oo..ooo@,,@@..oo@@@@.                                     ",
"                                          .....o@<0<,o.ooo@<<,,@o..ooo@@<<,@@..oo@@@@o          $                         ",
"                                  #    44$ooo@,<<<,,@.ooo@@<0,,@o..ooo@@,<<,@@o.ooo@@@o.       $$                         ",
"                                 #d#    $4554,,<<,,@o.ooo@,00,@@o.oooo@@,<<<,,@ooooo@@@o.    .$4                          ",
"                                  #3      $ff54,,,@ooooo@@,0,,@@o.ooo@@@,,<<<,,@o@ooooooo@@@444                           ",
"                                            $4554,@oooo@@,,,,,,@ooooo@@,,,<<<<,,,@@@@@@@@@444$                            ",
"                                              $4544$@@@@,,,5ff5,@ooo@@@,5ff54444,4,,@@@@$55$                              ",
"                                                 .$444$@@5ff4  44@oo@@@5ff$   .$444444455$                                ",
"                                                    .$45554     $44@@,55$       .$$4444$                                  ",
"                                                                  $4455$                                                  ",
"                                                                                                                          "
};
