/* XPM */
static char *result[] = {
/* columns rows colors chars-per-pixel */
"86 110 46 1 ",
"  c black",
". c #180B0F",
"X c #141F1F",
"o c #2E1D23",
"O c #34292E",
"+ c #4D0E05",
"@ c #5F0000",
"# c #50090D",
"$ c #6E0000",
"% c #70171C",
"& c #7D1F23",
"* c #5C252A",
"= c #692327",
"- c #2F4848",
"; c #5B4951",
": c #6A454D",
"> c #820000",
", c #930000",
"< c #9B1517",
"1 c #A70303",
"2 c #B80A0A",
"3 c #992F34",
"4 c #8E363D",
"5 c #973136",
"6 c #933339",
"7 c #90353B",
"8 c #A2272D",
"9 c #EB0000",
"0 c #803D44",
"q c #883940",
"w c #A73F51",
"e c #A64054",
"r c #9F4C62",
"t c #9E4F65",
"y c #98566E",
"u c #935B75",
"i c #945A75",
"p c #925C76",
"a c #B17676",
"s c #876783",
"d c #806C8A",
"f c #11B3AA",
"g c #AF8282",
"h c #AAAAAA",
"j c #FFBAAF",
"k c #EAEAEA",
/* pixels */
"                                                                                      ",
"                                                                                      ",
"                                                                                      ",
"                                                                                      ",
"                                                                                      ",
"                                                                                      ",
"                                                                                      ",
"                                                                                      ",
"                                   --X.                                               ",
"                                    .--X.                                             ",
"                                     X--XX                                            ",
"                                     .-X                                              ",
"                                     . .Odd;.                                         ",
"                                  .   Ohhhdd;.                                        ",
"                                  ....hkkkhddo.                                       ",
"                                     Ohkkkhddo.                                       ",
"                                ..   dhkkkhddoO   .      .                            ",
"                         ....    ..  ddhhhdduOO ...     .                             ",
"                        .   ..    .. dddytpd4<6 .     ..                     +9++     ",
"                        .    XX      ;dsegad5r8     XX.                     ++j..+    ",
"                              -X     O;i1,$;0>@  .XXX.                     ++kkk+.+   ",
"                    +          -X.   .O0w3=Oq7# ..           +            +9jkkkj9++. ",
"    +9++           +j+          .X.    o%&O;:*# .           +j+          ;+.+kkk+..X. ",
"   ++j..+           +9                  OO;;O.               +9           +.++j++.X-. ",
"  ++kkk+.+                                                                +..+9+.X--+ ",
" +9jkkkj9++                              XXX-.         .                  ++..+....-  ",
" +.+kkk+...                        j+  .--.XX-                             +....X  -  ",
" +.++j++.X.                        +9  -X ..X-        .                  X    X.- -X  ",
"  ..+9+.X-.    .XXX            ..     .X   ..X           .               X.   .-.-X   ",
"   ..+.X--+  .X;-  XX.        ....   .+++   .XX          .     ;;X       X. .X-X-.    ",
"  -...X-f    X-     XX.       .X .. .jj92+   ...     .  .    .;X  X      ..  ..       ",
"  -  X..            ..X.     .-X .XXjkkj+2+    ..     ..    ..-    X     .     .      ",
"  X- -.               .X    .;X  .X+jkkj +++          .     .X           .     .      ",
"   X-.-.               .. ..;-    X+9jj  +2+          .      X                  .     ",
"    .-X-X.               .XX.      +22+  22+          .      X                        ",
"       ..                           ++++29+            .    -                         ",
"                .                  XX++22+             X.  -X                         ",
"                 .                 . -+++               X--X  .                       ",
"                  .    j+         .   -.           j+         . .                     ",
"                  -.   +9       -X   .-X        .. +9...      ..X                     ",
"                   -X.          XX   .-X           ...       .X;                      ",
"                    -OXXXX..   ..    .X      9++.   ..     ..-;                       ",
"           +        ..XX.           .X.     9j +2   ..     XX.     +                  ",
"          +j+        .X        .   XX...    2j +2.        XX      +j+                 ",
"           +9        .        .-X... ..-X   ++ 99       ..         +9                 ",
"                     .       .-X ...   XX    +29      ..                +9++          ",
"                         .. .X   .      .X     ....   .                ++j..+         ",
"    +9++                  . ..          X;-   ..      .XXX            ++kkk+.+        ",
"   ++j..+                  .X.           --....        X.            +9jkkkj9++.      ",
"  ++kkk+.+                 ...            ..X.         .. X       . ;+.+kkk+..X.      ",
" +9jkkkj9++  -.      X   ..-XX.            .;-X           .X--X  ..  +.++j++.X-.      ",
" +.+kkk+...         XXX .--.X.....        XX--X            ..X--X    +..+9+.X--+      ",
" +.++j++.X.            --X   .            -X.XX              ...X. . ++..+....-       ",
"  ..+9+.X-.             --   .     .       ..X.                  ...  +....X  -       ",
"   ..+.X--               .          ;..   ..XX       +j2            X    X.- -X       ",
"  -...X-f                 .         -..  ...X.      2 kj            X.   .-.-X        ",
"  -  X..                           -X     ..X       2 ++            X. .X-X-.         ",
"  X- -.                          ..X       .X        92             ..  ..            ",
"   X-.-.    ...                            ..                       .     .           ",
"    .-X-X.                                XX..                                        ",
"       ..                                --X .                                        ",
"                                   9++.  --  ...                                      ",
"                                  9j +2 .-     .                                      ",
"                                  2j +2 XX                                            ",
"                                  ++ 99 XX                                            ",
"                                   +29  X.                                            ",
"                                        ..                                            ",
"                +j+                     .---                                          ",
"                 +9   -             X....-- -                                         ",
"                      -            .X.   -j+                                          ",
"                      X          ;-X      +9 ..                                       ",
"                     .         .;-XX.        X.                                       ",
"                    .        X---  .X         XX                                      ",
"                          .XXX      X.         XXX                                    ",
"                       . .  .X       ..          ...                                  ",
"                            .XX       .           ....                                ",
"                           .X.X.      .                                               ",
"                    +     .X  .X.     .             9++.....                          ",
"                   +j+          X                  9j9 2                              ",
"                    +9          X....j+      XX.   2j  2                              ",
"                                X..  +9      .X-;. ++  9                +             ",
"                               .-.              X-  +29                +j+            ",
"                               ;X          .     XX.                    +9            ",
"                              ;X.       .  .      XX                                  ",
"                 .           -X.         ...       X.                                 ",
"             +    .         -X.           .         X                                 ",
"            +j+    ...   .XX....          X..       X                                 ",
"             +9      ..XXX.     .        ;X..       X                                 ",
"                                 .      ;XX                  ...                      ",
"                                        -X.                                           ",
"                                        X.                                            ",
"                                        .                                             ",
"                                        .      +                                      ",
"                                        .     +j+                                     ",
"                                               +9                                     ",
"                                                                                      ",
"                                +                                                     ",
"                               +j+       .                                            ",
"                                +9      .X                                            ",
"                                       X;                                             ",
"                                      .-                                              ",
"                                      .                                               ",
"                                                                                      ",
"                                                                                      ",
"                                                                                      ",
"                                                                                      ",
"                                        +                                             ",
"                                       +j+                                            ",
"                                        +9                                            ",
"                                                                                      "
};
