/* XPM */
static char *result[] = {
/* columns rows colors chars-per-pixel */
"80 96 36 1 ",
"  c black",
". c #180B0F",
"X c #231418",
"o c #2E1D23",
"O c #34292E",
"+ c #4D0E05",
"@ c #463511",
"# c #163F46",
"$ c #493B43",
"% c #324148",
"& c #30535C",
"* c #006771",
"= c #11747F",
"- c #2D636D",
"; c #494349",
": c #5B4951",
"> c #58545D",
", c #4F6F7A",
"< c #EB0000",
"1 c #8F6A20",
"2 c #D3B139",
"3 c #237581",
"4 c #4C7682",
"5 c #4B7984",
"6 c #806C8A",
"7 c #0F818E",
"8 c #008490",
"9 c #24828F",
"0 c #0092A1",
"q c #009BAA",
"w c #27A4B4",
"e c #4E9EB2",
"r c #AAAAAA",
"t c #FFBAAF",
"y c #F3DA94",
"u c #EAEAEA",
/* pixels */
"                                                                                ",
"                                                                                ",
"                                                                                ",
"                                                                                ",
"                                                                                ",
"                                                                                ",
"                                                                                ",
"                                                                                ",
"                                                                                ",
"                                                                                ",
"                                                                                ",
"                                                                                ",
"                                                                                ",
"                                   .O66:.                                       ",
"                                  Orrr66:.                                      ",
"                                 .ruuur66o.                                     ",
"                                 Oruuur66o.                                     ",
"                                 6ruuur66oO                                     ",
"                                 66rrr666OO                                     ",
"                                 6666666:O:                                     ",
"                          ....   :666rr6:6:                                     ",
"                          @111.  O:67q0:48*  .@@11                              ",
"                +           oo1. .O:ew9O,5= . .1@        +                      ",
"               +t+           .o1. .o3-&:>%#  @2@        +t+                     ",
"                +<            .o2@ .OO::O.  @2.          +<                     ",
"                               .o2@        @2.                                  ",
"                             ...$o21@     @2.                                   ",
"                               ..$11221  .yy.                                   ",
"                            ..o .$oX2Xy1.yoy. .                                 ",
"                         ....O$.  .oyXyy.yoy .X                                 ",
"                       @11XXO1y21...yy22.221oXX@11.                             ",
"            .          @ @1@1yO121ooX..2.2Xooo11@  .                            ",
"             .          .  226$O12X..@21.12@oX2@.                               ",
"              .........oOOo      2oo@y21.122@X2  ...                            ",
"               @@.XXo$:$::$$OO$:621@yX12.21X212OOoXXX.     @       +            ",
"                 1@ooyy26$:66$OO$622Oo$2.2...21.XooX   ...@       +t+           ",
"                  12y1 y26O$:66666$oooX1.1....XooXX.@1@X.@         +<           ",
"                       1y1$oO$6$O$:O$$o1.1.XXXoXX..@1 .@@                       ",
"                        1yO$oO$6::o2y2$1.1X2y2XoOOX1@                           ",
"                         2y1ooO;;ooyXyo1.1XyXyXXXX@1                            ",
"        +                .2yy21OOo1yXoo2.2  Xy1X@11                             ",
"       +t+             .o....1222yyyy22@.@22yyy21@                              ",
"        +<            .oooo.                    ....                            ",
"                     ..:6;X.                    XXoo.                           ",
"                     .O;;ooO..  ...X@@@  @@@   .ooooXX                          ",
"                     .1;o1y21OOOOoXXX@@. @@XOooXoOX1@X                          ",
"                     ..112;;11::o;ooo;1. 1;X;OooOO1oX@                          ",
"                     ...o;OOX1:O1y21o;2. yOO1221@1@.                            ",
"                        ...XX121yoO11;y. y;OyXo21@                              ",
"                           ...121o;O1Oy. y;21XXoo                               ",
"                             ..Oooo112y. 2y21OX.                                ",
"                               .oo12112. 21121.                                 ",
"                                .X2;Xo2. 2;O12                                  ",
"                                 .1O;o2. 2;11                                   ",
"                               .  .1;o2. 2;1.                                   ",
"                               . . .O1y. y11                                    ",
"                              ..... oy2..22                                     ",
"                              .X.X.  y1 .12                                     ",
"                             .XX.X.. 1   .@                                     ",
"                             .XXXX..  .X.                                       ",
"                            ..oOXo.X...X.X..                                    ",
"                            .X$OOoXOX..XXO.X                                    ",
"                           .X:$XOoXOX..XOOXX.                                   ",
"                          .XO:Oo$oXOoX.OO:oXX                                   ",
"                          .X:OoO$oXXOo.$O:OXX                                   ",
"                         .X::OoO$oXoO:X$O:$XX.                                  ",
"                        .X:6OoOO$oooO:o$O::oXX                                  ",
"            +          .X:6OOoOO:ooOO6o$O$:$XXX                                 ",
"           +t+        .O:6OOXoO$6oX$6:o$OO6:oXoX                                ",
"            +<       .O:6:OXXoO:6oo:6Oo$OO6:OXXoX            +                  ",
"                    .::6:OO.Xo$6:oo::OO$$O::OX.XOo          +t+                 ",
"                   .::::OOX.oo:6OXo$:OOo$O$:OO..OOo          +<                 ",
"                  .::::$OX.oo$::oXX$:OOo$$O:$OO.XOOX                            ",
"                  .6:::$X.Xo::::XX.X$OOOO$o::OOo.X:O.                           ",
"                 @yy2::O..o::22:XX..O$$Oo$XO:$OOo.O:O                           ",
"                12  12:...$:yy221oX.XO$Oo$$O::$OOX.OOX                          ",
"                 11@  @$X.$yXXXX@1;..OO2y211$:::OXX...                          ",
"                      X@1$$$2X   @1;.@2y1 @11:12211X.@X                         ",
"                        X222      X111@    @1121  X1@X                      +   ",
"                             .....              .                          +t+  ",
"                    . .X... ........  ....    .....                         +<  ",
"                    . OXX. ..XOXXXX. ...........XX..                            ",
"                   .XOOXX..XOOO;XXX.....XOOX..XXOOO..                           ",
"                  .XO;OX..XOOO;;OXX...XXO;OOX.XXOOOO.                           ",
"                ..X;6;O..XXOO:;;OXX..XXXO;;OO..XXOOOO.                          ",
"           .....XO:6:;X.XXXO::;;OX..XXXOO::;OO..XXOOOOX          @              ",
"   +    11@XXXO;:::;;O.XXXOO:6;;OX..XXXOO;::;OOX.XXXOOOX.       @@              ",
"  +t+    @1221;;::;;OX.XXXO;66;OOX.XXXXOO;:::;;OXXXXXOOOX.    .@1               ",
"   +<      @yy21;;;OXXXXXOO;6;;OOX.XXXOOO;;:::;;OXOXXXXXXXOOO111                ",
"             @1221;OXXXXOO;;;;;;OXXXXXOO;;;::::;;;OOOOOOOOO111@                 ",
"               @1211@OOOO;;;2yy2;OXXXOOO;2yy21111;1;;OOOO@22@                   ",
"                  .@111@OO2yy1  11OXXOOO2yy@   .@111111122@                     ",
"                     .@12221     @11OO;22@       .@@1111@                       ",
"                                   @1122@                                       ",
"                                                                                ",
"                                                                                "
};
