/* XPM */
static char *result[] = {
/* columns rows colors chars-per-pixel */
"64 64 10 1 ",
"  c black",
". c #252241",
"X c #2C3068",
"o c #433986",
"O c #3C5393",
"+ c #434097",
"@ c #696DB1",
"# c #687DBA",
"$ c #5CA6E1",
"% c #90C4EE",
/* pixels */
"                                                                ",
"                                                                ",
"                                                                ",
"                                                                ",
"                                                                ",
"                                                                ",
"                          .............                         ",
"                      . ..XXXXXX.XXXXXX.. .                     ",
"                    ..X.XX$$$$$X.X$$$$$XX.X..                   ",
"                  ..XXX.XXOOOOOX.XOOOOOXX.XXX..                 ",
"                 .XX$$XX.XOOOOOX.XOOOOOX.XX$$XX.                ",
"                .X$$OO$X.XXOOOOX.XOOOOXX.X$OO$$X.               ",
"              ..X$OOOOOXX.XXXXXX.XXXXXX.XXOOOOO$X..             ",
"             .XX$OOOOOOXX..XXXX...XXXXX.XXOOOOOO$XX.            ",
"            .X.XXOOOOOXX.................XXOOOOOXX.X.           ",
"            .XX.XXOOOXX...................XXOOOXX.XX.           ",
"           .X$$X.XXXXX....oooo.....oooo....XXXXX.X$$X.          ",
"           .XOO$X.XXX.....oooo.....oooo.....XXX.X$OOX.          ",
"          .X$OOO$X........o@@o.....o@@o........X$OOO$X.         ",
"          .XOOOOOX........@@@@.....@@@@........XOOOOOX.         ",
"         .XXXOOOXX...o....@@@@.....@@@@....o...XXOOOXXX.        ",
"         .XXXXXXX...oo....@@@@.....@@@@....oo...XXXXXXX.        ",
"          ...XXX...ooo....@@@@.....@@@@....ooo...XXX...         ",
"         .XXX......o@o....@@@@.....@@@@....o@o......XXX.        ",
"         .XXXXX...oo%o....%%%%.....%%%%....o%oo...XXXXX.        ",
"         .X$$$XX..o%%o....%%%%.....%%%%....o%%o..XX$$$X.        ",
"         .XOOO$X..o@@o....@@@@.....@@@@....o@@o..X$OOOX.        ",
"         .XOOOOX..o@@o....@@@@.....@@@@....o@@o..XOOOOX.        ",
"         .XOOOOX...o%o....o%%o.....o%%o....o%o...XOOOOX.        ",
"         .XOOOOX.................................XOOOOX.        ",
"         .XXXXXX..+++++..++++++...++++++..+++++..XXXXXX.        ",
"         .XXXXX..+%%%%+..+%%%%+...+%%%%+..+%%%%+..XXXXX.        ",
"          .......+%%%%+%o+%%%%+o%o+%%%%+o%+%%%%+.......         ",
"         .XXXXX..+####+oo+####+ooo+####+oo+####+..XXXXX.        ",
"         .X$$$$X.++##++oo++###+ooo+###++oo++##++.X$$$$X.        ",
"         .XOOOOX.++++++..++++++...++++++..++++++.XOOOOX.        ",
"         .XOOOOX..+++++..++++++...++++++..+++++..XOOOOX.        ",
"         .XOOOOX.................................XOOOOX.        ",
"         .XOOOOX...ooo....oooo.....oooo....ooo...XOOOOX.        ",
"         .XXXXXX..oooo....oooo.....oooo....oooo..XXXXXX.        ",
"         .XXXXX...oo%o....o%%o.....o%%o....o%oo...XXXXX.        ",
"          ........o%%o....%%%%.....%%%%....o%%o........         ",
"         .XXXXX...o%%o....%%%%.....%%%%....o%%o...XXXXX.        ",
"         .X$$$$X..o@@o....@@@@.....@@@@....o@@o..X$$$$X.        ",
"         .XOOOOX..o@@o....@@@@.....@@@@....o@@o..XOOOOX.        ",
"         .XOOOOX..o@@o....@@@@.....@@@@....o@@o..XOOOOX.        ",
"         .XOOOOX...o@o....o@@o.....o@@o....o@o...XOOOOX.        ",
"         .XOOOOX.................................XOOOOX.        ",
"         .XOOOOX..+++++..++++++...++++++..+++++..XOOOOX.        ",
"         .XXXXXX.+%%%%+..+%%%%+...+%%%%+..+%%%%+.XXXXXX.        ",
"         .XXXXX..+####+@o+####+o@o+####+o@+####+..XXXXX.        ",
"          .......+####+oo+####+ooo+####+oo+####+.......         ",
"         .XXXXX..++##++oo++###+ooo+###++oo++##++..XXXXX.        ",
"         .X$$$$X.++++++..++++++...++++++..++++++.X$$$$X.        ",
"         .XOOOOX..+++++..++++++...++++++..+++++..XOOOOX.        ",
"         .XOOOOX.................................XOOOOX.        ",
"         .XXXXX....ooo....oooo.....oooo....ooo....XXXXX.        ",
"          ........oooo....oooo.....oooo....oooo........         ",
"         .XXXXX...oo@o....o@@o.....o@@o....o@oo...XXXXX.        ",
"         .XO$$OX...@@@....@@@@.....@@@@....@@@...XO$$OX.        ",
"        ..XXXXX...................................XXXXX..       ",
"       ...................................................      ",
"                                                                ",
"                                                                "
};
