/* XPM */
static char *result[] = {
/* columns rows colors chars-per-pixel */
"64 64 10 1 ",
"  c black",
". c #252241",
"X c #2C3068",
"o c #6C2B44",
"O c #96515E",
"+ c #433986",
"@ c #3C5393",
"# c #696DB1",
"$ c #5CA6E1",
"% c #ADA9C7",
/* pixels */
"                                                                ",
"                                                                ",
"                                                                ",
"                                                                ",
"                                                                ",
"                                                                ",
"                          .............                         ",
"                      . ..XXXXXX.XXXXXX.. .                     ",
"                    ..X.XX$$$$$X.X$$$$$XX.X..                   ",
"                  ..XXX.XX@@@@@X.X@@@@@XX.XXX..                 ",
"                 .XX$$XX.X@@@@@X.X@@@@@X.XX$$XX.                ",
"                .X$$@@$X.XX@@@@X.X@@@@XX.X$@@$$X.               ",
"              ..X$@@@@@XX.XXXXXX.XXXXXX.XX@@@@@$X..             ",
"             .XX$@@@@@@XX..XXXX...XXXXX.XX@@@@@@$XX.            ",
"            .X.XX@@@@@XX.................XX@@@@@XX.X.           ",
"            .XX.XX@@@XX...................XX@@@XX.XX.           ",
"           .X$$X.XXXXX.....................XXXXX.X$$X.          ",
"           .X@@$X.XXX.......................XXX.X$@@X.          ",
"          .X$@@@$X.............................X$@@@$X.         ",
"          .X@@@@@X....o........................X@@@@@X.         ",
"         .XXX@@@XX...ooo.......................XX@@@XXX.        ",
"         .XXXXXXX...Oooo........................XXXXXXX.        ",
"          ...XXX...OOooo.o.......................XXX...         ",
"         .XXX......OOooo.o..........................XXX.        ",
"         .XXXXX...OOOooo.o........................XXXXX.        ",
"         .X$$$XX..OOOooo.o.......................XX$$$X.        ",
"         .X@@@$X..OOOooo.o.......................X$@@@X.        ",
"         .X@@@@X..OOOooo.o.......................X@@@@X.        ",
"         .X@@@@X..OOOooo.o.......................X@@@@X.        ",
"         .X@@@@X.......o.o.......................X@@@@X.        ",
"         .XXXXXX..++++...o.......................XXXXXX.        ",
"         .XXXXX..+%%%%+..o........................XXXXX.        ",
"          .......+####++.o.............................         ",
"         .XXXXX..+####++.o........................XXXXX.        ",
"         .X$$$$X.++###++.o.......................X$$$$X.        ",
"         .X@@@@X.++++++..o.......................X@@@@X.        ",
"         .X@@@@X..++++...o.......................X@@@@X.        ",
"         .X@@@@X.......o.o.......................X@@@@X.        ",
"         .X@@@@X..OOOooo.o.......................X@@@@X.        ",
"         .XXXXXX..OOOooo.o.......................XXXXXX.        ",
"         .XXXXX...OOOooo.o........................XXXXX.        ",
"          ........OOOooo.o.............................         ",
"         .XXXXX...OOOooo.o........................XXXXX.        ",
"         .X$$$$X..OOOooo.o.......................X$$$$X.        ",
"         .X@@@@X..OOOooo.o.......................X@@@@X.        ",
"         .X@@@@X..OOOooo.o.......................X@@@@X.        ",
"         .X@@@@X..OOOooo.o.......................X@@@@X.        ",
"         .X@@@@X.......o.o.......................X@@@@X.        ",
"         .X@@@@X..++++...o.......................X@@@@X.        ",
"         .XXXXXX.+%%%%+..o.......................XXXXXX.        ",
"         .XXXXX..+####++.o........................XXXXX.        ",
"          .......+####++.o.............................         ",
"         .XXXXX..++###++.o........................XXXXX.        ",
"         .X$$$$X.++++++..o.......................X$$$$X.        ",
"         .X@@@@X..++++...o.......................X@@@@X.        ",
"         .X@@@@X.......o.o.......................X@@@@X.        ",
"         .XXXXX...OOOooo.o........................XXXXX.        ",
"          ........OOOooo...............................         ",
"         .XXXXX...OOOoo...........................XXXXX.        ",
"         .X@$$@X..OOOo...........................X@$$@X.        ",
"        ..XXXXX...................................XXXXX..       ",
"       ...................................................      ",
"                                                                ",
"                                                                "
};
