/* XPM */
static char *result[] = {
/* columns rows colors chars-per-pixel */
"64 64 16 1 ",
"  c #363030",
". c #39393D",
"X c #3E3E43",
"o c #434349",
"O c #48484F",
"+ c #4F4F56",
"@ c #56555D",
"# c #5B5B69",
"$ c #636371",
"% c #6A697B",
"& c #727285",
"* c #7A7A8C",
"= c #838396",
"- c #8C8CA0",
"; c #9696AB",
": c #A4A4B8",
/* pixels */
"  XXXX.oXXO..OOOOOOOO++++OOOoo.   XXXXXXXXoooOOOOOO+++++++OOoo. ",
"..XXo++XXo.....*=OO@;;%&&$##@@@@#$%**o+@@@+Oooo&-O...@OXXOOO+@@O",
"X..X+XX+ooX....=%O+--&&&&%$%%$$$$$*-$O%$%%%%+ooo#$...@oXX**-&$##",
"OX+%%ooO+o.....%%O+*&&&&&%$%%%%&&%;*o#&&&**&$#ooO@...$oX@;&*=@++",
"OO#$%@+oOo..XXX#$O+#*&*&&$#$%%%&&&;&o#-==**&%#+oO@..o%XX+-&%&#+O",
"+@##%@#oOoX.Xoo##++@&&**&$$#$%%%&%;-@+*::;=&%%Ooo+.Xo&OXO=&%%#Oo",
"###$&#$OOOXXO+$%$@++%****&%$$%%&%%%-=+@;:;&%#$+ooo..@*@Xo#$$%+O+",
"$#$%%$$$OOXX@#**%@++$&***&*%#%%%%%$#**+%=&***&+o+...O&#XoO@#++++",
"+%&*&$%&@OXX#+$%##OO#*&===-&%$%%%$**&*$@$%%%+Oooo....#$+ooO+++++",
"O+O@%#$%@oXX@%%&$Ooo+@@#&=$#####$*-#++OooXXXXXXX......O#@ooO++OO",
"OoooX+OOoOX.XoOoooXXXXooOO+@####@#OOOOoXoXXXXXX........XO@XX+OO+",
"XXXXXXo+@O.....XXX++XXXXXXXooOOOoooooooXXXXXX.........XX.XXXX+OX",
"ooOOOOOX............XXXXXXoooXXXXXXXXXXXXXX.......X......XXXX.O+",
"++OOOXXXXXXXXXX....XXXXXXXXXXXXXXXXXXXXXXXXXXXXXXXXXXXXXX...XOoO",
"%%$#@OoXXXXooOoXXX+$$$#+XXXX.......XoX.X.XX.X.........XX...XO+@%",
"##+++OO++OOOooO#++@#####%oXXoXX............................ooo@&",
"@+++O@@+@#$###@###$$%%%==;-+oX...X........................XooO+%",
"%$OoO@+++@@#####$$%&&&&=-=--&OoXX...... ........... ........ooO#",
"#%%#@+++++@@$$$$%%&&*&*&=*$$*$XX....................... ......@$",
"$$&-@+@+++@#%%%%%&&*&&**&&%##*.... ... ....X...... .. ........@#",
"$$-=@+@@++@#%%%%&&&**&&**&%$##...........XXX..................O@",
"&=;&@@@@@@@#%%%&&&&&&*&&*&&$%%...........XXX..X.... ...... ...o@",
"=**%@+@@@+@$%%%&&&&&&&*&&&%$*&.... .. ..XXXX.X.. .............o$",
"*%*#@+@@+@@$%$%%%&%%&&&&&&%#&-oX.........XX................. .o&",
"%%%#@##@@+@$$#$$$%%%%%%%%%$#*=Xo.... .....X...................O&",
"&%#####@@@@#####$$$$%%%%%$$*-+..X.. .. ......... .............+%",
"#@#$$##@@+@####$$$##$$$$$#$-%ooXX... .....X...................+$",
"+@@$$##@@+#$++++++@@#%$$%&%OooO.X..... . ..... . ......... ...+#",
"oO@+@@@++$@+OOoooooOO+$$@OoXXO....... ............. ........X.Xo",
"XXoooOO++OOooooooooooooooooX+X... ..... .. ...................Xo",
"XXXXXO++OOoooooooooooooXXXXo... ...............XoOX.XX........XX",
"XXXO+OOooXooooXooXXoXXX..o........ ............XXXXX........XXX.",
"............................. .. ... .......oO@$$@oX............",
"OX.oooXXooXXooOXX...XXXXXXX........... ..XO+@$$&*--*XX...XX+oX.X",
"$@Xo@#$%*$X.XoXXXX.................. ....O$=+%&&&&*-XX..X#=&#$$$",
"@oXoO@#$=-&o.X.X.XX........... .. .... ..@$*%#=&&&&-XXoO%;-==**&",
"oXXO+@#&*$#....X..... ...................O%%-$$=&&&&XXXo*-=--*=%",
"XoO++$%%$$X.....XXX............ ... . ...o#&**@**%*$..XoO@#%%$#O",
"OO+@+++OOo............. ..... ......... .XO++@O+#$+X..XXXXXO+OoX",
"ooOoXXXXXXXXXX.X..... ... . .............XXXXXXXXXX.XX....XXoXXo",
"..XXXXXXXXXXX..oOOX.... .................XXX....................",
"XXooOO++++OOOoXXXo#+XX...X...X+@OOO+OoooOOOOO+@##$@OXXXX.XXXXXXX",
"XoooOOOO+++OoooooXX@oX......OoOOOoooOOOoooooOooXXXXO$XX..XXXXXXX",
"XXooooOO+++OooXXXoXX$O.....X@OOOOOOOOO+OOOOoOOOoXXXX@%XX....XXXX",
"XXOOOoXoOoXX.....XooX#....X+OoooO++++++++OOOOOOOoXXXX+$X....XXXX",
"oo#OO##%%@XXXXXXXXXoXX#...X+oXooO%@@@@@#%%&&&@OooooXXX+$X...XXXX",
"+#OXo%***===&&&%@oXooXOO...Ooo#+O%###$%%%$###$&*&ooXXXXX@...XXXX",
"#OX@*&&%%%%$#$$$$%ooOXOO...OoX@#oO-=&%&***&&&%%$%=&OXoXXXo..XX+$",
"X@%&*==&&&&%#$&-;;OoOoOo..XOoX+&OoO$=;;********&&%&-$XoXXoX..#+o",
"%%$$$&*&&&%$#$*-;:$oOooO..XooXX*++Ooo@&-**=-=-=**&&%-&XoXXX.X+oO",
"%@+#%&&***##$#&=;-*oOoo+..XOoXX&#@@+OoO@**%$%*;:;*&&*;#XX.X.XOXO",
"%#@#%%***%#$$#$%&%&OOoX+.XooXXO=#@@@@@@++@*&$##$=-*&&=;+XXX.oO.O",
"$%@#$=%##$$$$#$$$-*OooX+.XoX.%;;%$@@#+@@#@@$*%$##&;;&*-OXXX.Oo.O",
"@$@$&%$%&&%*%#$$=%OXoX.o.XoXX-:;*$###@@#####@#%@O+#-;==X.XX.@o.o",
"O@@%%#%%&*-&###%+XXXOX...XXXX%;;;-*&%$$#####@OooXXXo=;&XXXX.+OXX",
"o++#%%&==*$#@@$XXXoooX...XXOoO&-#+++++@####@OOooooXoO$OXX...X@XX",
"oOOoo@@@@+@#@@XXoOOOXX...XXooO+O#%*****@@++OOoooooooXXXXX....$+X",
"XXXXoOOOOOooX.XOOOooXXX..XXXooO@+oooXoO++++OooXXXXXXXXXXX....+$+",
"$$+ooooooooooooooXXXXo+..XXXXoXXXXXXXXoOOOooXXXXXXXXoXXX......o#",
"XO##OooooXXXXXXXXXXXoo.X.XXXXXXXXXXXXoOoooooXXXXXXXXX.........X.",
"...............XXXXXXXXXXXXXXXX.....XXXXXXX.XXXXX.XXX...........",
"oO...................XXXXooXXXXX....X.XXXXXX....................",
"X+@oX..XX...XXXX..O&#@++O+++++OOOOOoooooO@@$#X........+*&OooXXXO",
"XXO@@XoXXXXX..XXX&=$O@#+OooooooOOOOOOOoooooo$*%.......&%#@o+@+oX"
};
