/* XPM */
static char *result[] = {
/* columns rows colors chars-per-pixel */
"64 64 51 1 ",
"  c #2E2D29",
". c #2F2E2A",
"X c #2F2E2C",
"o c #2F2D2E",
"O c #4E4A3E",
"+ c #4F4B3F",
"@ c #4F4C45",
"# c #4E4E44",
"$ c #4E4E46",
"% c #4F4F47",
"& c #504C40",
"* c #514D41",
"= c #514D42",
"- c #504E42",
"; c #514F43",
": c #534F43",
"> c #504D44",
", c #514E45",
"< c #534F44",
"1 c #524E45",
"2 c #504D46",
"3 c #514E47",
"4 c #524F48",
"5 c #565042",
"6 c #535047",
"7 c #545045",
"8 c #6F6856",
"9 c #6E6858",
"0 c #6F6959",
"q c #716A57",
"w c #716A58",
"e c #726B58",
"r c #736B58",
"t c #726B59",
"y c #706A5A",
"u c #716B5B",
"i c #726B5B",
"p c #716C59",
"a c #736C59",
"s c #736C5A",
"d c #746D5A",
"f c #746D5B",
"g c #726C5C",
"h c #736C5C",
"j c #726C5E",
"k c #736D5F",
"l c #756E5C",
"z c #766F5D",
"x c #756F5F",
"c c #746E60",
"v c #756F61",
/* pixels */
"tttttttttttttttttttttttttttttttttttttttttttttttttttttttttttttttt",
"tttttttttttttttttttttttttttttttttttttttttttttttttttttttttttttttt",
"tttttttttttttttttttttttttttttttttttttttttttttttttttttttttttttttt",
"ttttttttttttttttttttttttttttttttttttttttttttttttttttttttewwtwsti",
"ttttttttttttttttttttttttttttttttttttttttqqqqqqqqqqqqqqqqsfssstts",
"ttttttttttttttttttttttttttttttttttttttttaaaaaaaaaaaaaaaa9yy0hwtf",
"ttttttttttttttttttttttttttttttttttttttttyyyyyyyyyyyyyyyycvj9xi88",
"tttttttttttttttttttttttttttttttttttttttt<<<<<<<<<<<<<<<<O+*50glz",
"tttttttttttttttttttttttttttttttttttttttt222222222222222267<:jgtt",
"tttttttttttttttttttttttttttttttttttttttt4444444444444444@>=&juts",
"tttttttttttttttttttttttttttttttttttttttt################246*kytd",
"tttttttttttttttttttttttttttttttttttttttt,,,,,,,,,,,,,,,,1$%-hrep",
"tttttttttttttttttttttttttttttttttttttttt,,,,,,,,,,,,,,,,1$%-hrep",
"tttttttttttttttttttttttttttttttttttttttt,,,,,,,,,,,,,,,,1$%-hrep",
"tttttttttttttttttttttttttttttttttttttttt,,,,,,,,,,,,,,,,1$%-hrep",
"tttttttttttttttttttttttttttttttttttttttt,,,,,,,,,,,,,,,,1$%-hrep",
"tttttttttttttttttttttttttttttttttttttttt,,,,,,,,,,,,,,,,1$%-hrep",
"tttttttttttttttttttttttttttttttttttttttt,,,,,,,,,,,,,,,,1$%-hrep",
"tttttttttttttttttttttttttttttttttttttttt,,,,,,,,,,,,,,,,1$%-hrep",
"tttttttttttttttttttttttttttttttttttttttt,,,,,,,,,,,,,,,,1$%-hrep",
"tttttttttttttttttttttttttttttttttttttttt,,,,,,,,,,,,,,,,1$%-hrep",
"tttttttttttttttttttttttttttttttttttttttt,,,,,,,,,,,,,,,,1$%-hrep",
"tttttttttttttttttttttttttttttttttttttttt,,,,,,,,,,,,,,,,1$%-hrep",
"tttttttttttttttttttttttttttttttttttttttt,,,,,,,,,,,,,,,,1$%-hrep",
"tttttttttttttttttttttttttttttttttttttttt,,,,,,,,,,,,,,,,1$%-hrep",
"tttttttttttttttttttttttttttttttttttttttt,,,,,,,,,,,,,,,,1$%-hrep",
"tttttttttttttttttttttttttttttttttttttttt,,,,,,,,,,,,,,,,1$%-hrep",
",,,,,,,,,,,,,,,,,,,,,,,,,,,,,,,,,,,,,,,,,,,,,,,,,,,,,,,,,,,,,,,,",
",,,,,,,,,,,,,,,,,,,,,,,,,,,,,,,,,,,,,,,,,,,,,,,,,,,,,,,,,,,,,,,,",
",,,,,,,,,,,,,,,,,,,,,,,,,,,,,,,,,,,,,,,,,,,,,,,,,,,,,,,,,,,,,,,,",
",,,,,,,,,,,,,,,,,,,,,,,,,,,,,,,,,,,,,,,,,,,,,,,,,,,,,,,,,,,,,,,,",
",,,,,,,,,,,,,,,,,,,,,,,,,,,,,,,,,,,,,,,,,,,,,,,,,,,,,,,,,,,,,,,,",
",,,,,,,,,,,,,,,,,,,,,,,,,,,,,,,,,,,,,,,,,,,,,,,,,,,,,,,,,,,,,,,,",
",,,,,,,,,,,,,,,,,,,,,,,,,,,,,,,,,,,,,,,,,,,,,,,,,,,,,,,,,,,,,,,,",
",,,,,,,,,,,,,,,,,,,,,,,,,,,,,,,,,,,,,,,,,,,,,,,,,,,,,,,,,,,,,,,,",
",,,,,,,,,,,,,,,,,,,,,,,,,,,,,,,,,,,,,,,,,,,,,,,,,,,,,,,,,,,,,,,,",
",,,,,,,,,,,,,,,,,,,,,,,,,,,,,,,,,,,,,,,,,,,,,,,,,,,,,,,,,,,,,,,,",
",,,,,,,,,,,,,,,,,,,,,,,,,,,,,,,,,,,,,,,,,,,,,,,,,,,,,,,,,,,,,,,,",
",,,,,,,,,,,,,,,,,,,,,,,,,,,,,,,,,,,,,,,,,,,,,,,,,,,,,,,,,,,,,,,,",
",,,,,,,,,,,,,,,,,,,,,,,,,,,,,,,,,,,,,,,,,,,,,,,,,,,,,,,,,,,,,,,,",
",,,,,,,,,,,,,,,,,,,,,,,,,,,,,,,,,,,,,,,,,,,,,,,,,,,,,,,,,,,,,,,,",
",,,,,,,,,,,,,,,,,,,,,,,,,,,,,,,,,,,,,,,,,,,,,,,,,,,,,,,,,,,,,,,,",
",,,,,,,,,,,,,,,,,,,,,,,,,,,,,,,,,,,,,,,,,,,,,,,,,,,,,,,,,,,,,,,,",
"3333333333333333333333333333333333333333333333333333333333333333",
";;;;;;;;;;;;;;;;;;;;;;;;;;;;;;;;;;;;;;;;;;;;;;;;;;;;;;;;;;;;;;;;",
";;;;;;;;;;;;;;;;;;;;;;;;;;;;;;;;;;;;;;;;;;;;;;;;;;;;;;;;;;;;;;;;",
"4444444444444444444444444444444444444444444444444444444444444444",
"                                                                ",
"oooooooooooooooooooooooooooooooooooooooooooooooooooooooooooooooo",
"oooooooooooooooooooooooooooooooooooooooooooooooooooooooooooooooo",
"................................................................",
"XXXXXXXXXXXXXXXXXXXXXXXXXXXXXXXXXXXXXXXXXXXXXXXXXXXXXXXXXXXXXXXX",
"XXXXXXXXXXXXXXXXXXXXXXXXXXXXXXXXXXXXXXXXXXXXXXXXXXXXXXXXXXXXXXXX",
"XXXXXXXXXXXXXXXXXXXXXXXXXXXXXXXXXXXXXXXXXXXXXXXXXXXXXXXXXXXXXXXX",
"XXXXXXXXXXXXXXXXXXXXXXXXXXXXXXXXXXXXXXXXXXXXXXXXXXXXXXXXXXXXXXXX",
"XXXXXXXXXXXXXXXXXXXXXXXXXXXXXXXXXXXXXXXXXXXXXXXXXXXXXXXXXXXXXXXX",
"XXXXXXXXXXXXXXXXXXXXXXXXXXXXXXXXXXXXXXXXXXXXXXXXXXXXXXXXXXXXXXXX",
"XXXXXXXXXXXXXXXXXXXXXXXXXXXXXXXXXXXXXXXXXXXXXXXXXXXXXXXXXXXXXXXX",
"XXXXXXXXXXXXXXXXXXXXXXXXXXXXXXXXXXXXXXXXXXXXXXXXXXXXXXXXXXXXXXXX",
"XXXXXXXXXXXXXXXXXXXXXXXXXXXXXXXXXXXXXXXXXXXXXXXXXXXXXXXXXXXXXXXX",
"XXXXXXXXXXXXXXXXXXXXXXXXXXXXXXXXXXXXXXXXXXXXXXXXXXXXXXXXXXXXXXXX",
"XXXXXXXXXXXXXXXXXXXXXXXXXXXXXXXXXXXXXXXXXXXXXXXXXXXXXXXXXXXXXXXX",
"XXXXXXXXXXXXXXXXXXXXXXXXXXXXXXXXXXXXXXXXXXXXXXXXXXXXXXXXXXXXXXXX",
"XXXXXXXXXXXXXXXXXXXXXXXXXXXXXXXXXXXXXXXXXXXXXXXXXXXXXXXXXXXXXXXX"
};
