/* XPM */
static char *result[] = {
/* columns rows colors chars-per-pixel */
"64 64 32 1 ",
"  c #363030",
". c #39393D",
"X c #403635",
"o c #463D3B",
"O c #3E3E43",
"+ c #4E4341",
"@ c #434349",
"# c #48484F",
"$ c #4F4F56",
"% c #56555D",
"& c #6F5343",
"* c #755747",
"= c #7B5C4B",
"- c #5B5B69",
"; c #626263",
": c #636371",
"> c #6F6F71",
", c #6A697B",
"< c #7B7A7B",
"1 c #805F4F",
"2 c #856353",
"3 c #8B6756",
"4 c #926D5B",
"5 c #727285",
"6 c #7A7A8C",
"7 c #878484",
"8 c #8F8E8E",
"9 c #838396",
"0 c #9B9899",
"q c #8C8CA0",
"w c #9696AB",
"e c #A4A4B8",
/* pixels */
"%;><<<<<<<<<8<+211222343*=1111======**13234=&&&X@;;><<<<<<<<70$.",
".O##$#$$$$$$$@+1=1222342*=112211=11=*=222231&&&o .@#$#$$$$$$$$O ",
".OO@$$OO@.....69##%ww,55:--%%%%-:,66@$%%%$#@@@5q#...%#OO###$%%#.",
"..O$OO$@@O....9,#$qq5555,:,,:::::6q:#,:,,,,$@@@-:...%@OO66q5:--O",
"O$,,@@#$@.....,,#$655555,:,,,,55,w6@-555665:-@@#%...:@O%w569%$$#",
"#-:,%$@#@..OOO-:#$-65655:-:,,,555w5@-q99665,-$@#%..@,OO$q5,5-$##",
"%--,%-@#@O.O@@--$$%55665::-:,,,5,wq%$6eew95,,#@@$.O@5#O#95,,-#@$",
"--:5-:###OO#$:,:%$$,66665,::,,5,,,q9$%wew5,-:$@@@..%6%O@-::,$#$-",
"-:,,:::##OO%-66,%$$:566656,-,,,,,:-66$,956665$@$...#5-O@#%-$$$$:",
",565:,5%#OO-$:,--##-65999q5,:,,,:6656:%:,,,$#@@@....-:$@@#$$$$$$",
"$#%,-:,%@OO%,,5:#@@$%%-59:-----:6q-$$#@@OOOOOOO......#-%@@#$$###",
"@@@O$##@#O.O@#@@@OOOO@@##$%----%-####@O@OOOOOO........O#%OO$##$#",
"OOOOO@$%#.....OOO$$OOOOOOO@@###@@@@@@@OOOOOO.........OO.OOOO$#OO",
"@#####O............OOOOOO@@@OOOOOOOOOOOOOO.......O......OOOO.#$@",
"$###OOOOOOOOOO....OOOOOOOOOOOO@OOOOOOOOOO@@@@@@@@OO@@OOOO.OO#@#$",
",:-%#@OOOO@@#@OOO$:::-$OOOO...OOOO@$OOO@@#@@@@@@@@@@@@@@OO@#$%,,",
"-$$$##$$###@@#-$$%-----,@OO@OOO@@#$@@O@@@O@##$$$#@@@@@@@OO$#@%5-",
"$$$#%%$%-:---%---::,,,99wq$@O.O#-,,::@@@@%5@#:%%-55:,9qqwq5%#$,%",
":#@#%$$$%%-----::,55559q9qq5#@@-%$$66665:---%:565--:---:,::5$#-,",
",,-%$$$$$%%::::,,55656596::6:O@O@#-q::,,,,:::------:::,,,,5,@%:-",
":5q%$%$$$%-,,,,,556556655,--6.O@O#-q,,566,,,::----::,,55qq9-@--:",
":q9%$%%$$%-,,,,5556655665,:--.O@.$,w,699996,,::::::,,66qwq6-@$%:",
"9w5%%%%%%%-,,,555555655655:,,..@O$6959wew99,,,,,:::,,669q6:%##%5",
"66,%$%%%$%:,,,55555556555,:65.O@O@:q,6www96,,,,:,,,,,555,::%@#:9",
",6-%$%%$%%:,:,,,5,,555555,-5q@#@OO$:9,6665,,,,:::::,,,,,,:-,@#56",
",,-%--%%$%::-:::,,,,,,,,,:-69O#@.:-%,5,,,,,,,::::::::::,,-,5@$5,",
",-----%%%%-----::::,,,,,::6q$.O$.%:-%-::::::::,:::::----:,5%#%,5",
"%-::--%%$%----:::--:::::-:q,@@O#$-:-O@------%$@@@#-,---556$%#$:-",
"%%::--%%$-:$$$$$$%%-,::,5,#@@#.%%--:O.OO@O@OOO@OOO@%,-,%%%%:#--$",
"#%$%%%$$:%$##@@@@@##$::%#@OO#O.O#,%%@@@@O@#@@@#@#$$$$$#@-695@@@@",
"O@@@##$$##@@@@@@@@@@@@@@@@O$O..OO$5$@OOO@@OOOO@@@##--$#@@$#@@@@O",
"OOOO#$$##@@@@@@@@@@@@@OOOO@.....OOO-$O@@##@########%%$$$##$#@OOO",
"OO#$##@@O@@@@O@@@O@OOO..@O....OO..OO$:-##..OOOOOOOOO.OOOOOO@OO.O",
"..........................#$OOO.......OO...#$-::%@O.............",
"O.@@@OO@@OO@@$$%#@@%--:59q9666,@@OO...OOO#$%::56qq6OO...OO$@O.O#",
"%O@%-:,6:O.O#$,,6-$%:99655665,:$%9:@....#:9$,55556qOO..O-95-::::",
"@O@#%-:9q5@O@#6,qq,$-:556666665%%-9,....%:6,-95555qOO@#,wq99665%",
"OO#$%-56:-.OO#66555-#::,666699969-,%....#,,q::95555OOO@6q9qq69,@",
"@#$$:,,::O.OO@,qwwwq5$:,,59qwq9:,6-O....@-566%66,6:..O@#%-,,:-#O",
"#$%$$$##@.....O#$-:-$@@$@OOOOO@####O....O#$$%#$-:$O..OOOOO#$#@O#",
"@#@OOOOOOOOOOOO@OOO......OOOOOOO@@OO....OOOOOOOOOO.OO....OO@OO@@",
".OOOOOOOOOOO..@$$OOOO.............O.....OOO.....................",
"O@@##$$$$###@OOO@-$OO...O...O%%###$#@@@#####$%--:%#OOOO.OOOOOOOO",
"O@@####$$$#@@@@@OO%@O......#@###@@@###@@@@@#@@OOOO#:OO..OOOOOOOO",
"O@@@@##$$$#@@OOO@OO:#.....O%#########$####@###@OOOO%,OO....OOOOO",
"O###@O@#@OO.....O@@O-....O$#@@@#$$$$$$$$#######@OOOO$:O....OOOOO",
"@-##--,,%OOOOOOOOO@OO-...O$@O@@#,%%%%%-,,555%#@@@@OOO$:O...OOOO@",
"-#O@,666999555,%@O@@O##...#@@-$#,---:,,,:---:565@@OOOOO%...OOOO$",
"#O%655,,,,:-::::,@@#O##...#@O%-@#q95,5666555,,:,95#O@OOO@..OO$:-",
"%,56995555,-:5qww#@#@#@..O#@O$5#@#:9ww6666666655,5q:O@OO@O..-$@O",
",:::56555,:-:6qwe:@#@@#..O@@OO6$$#@@%5q669q9q96655,q5O@OOO.O$@#,",
"%$-,55666--:-59wq6@#@@$..O#@OO5-%%$#@#%66,:,6wew6556w-OO.O.O#O#,",
"-%-,,666,-::-:,5,5##@O$.O@@OO#9-%%%%%%$$%65:--:9q6559w$OOO.@#.#,",
",%-:9,--::::-:::q6#@@O$.O@O.,ww,:%%-$%%-%%:6,:--5ww56q#OOO.#@.#:",
":%:5,:,55,6,-::9,#O@O.@.O@OOqew6:---%%-----%-,%#$-qw99O.OO.%@.@%",
"%%,,-,,56q5---,$OOO#O...OOOO,wwwq65,::-----%#@@OOO@9w5OOOO.$#OO#",
"$$-,,5996:-%%:OOO@@@O...OO#@#5q-$$$$$%----%##@@@@O@#:#OO...O%OO@",
"##@@%%%%$%-%%OO@###OO...OO@@#$#-,66666%%$$##@@@@@@@OOOOO....:$O@",
"OOO@#####@@O.O###@@OOO..OOO@@#%$@@@O@#$$$$#@@OOOOOOOOOOO....$:$O",
":$@@@@@@@@@@@@@@OOOO@$..OOOO@OOOOOOOO@###@@OOOOOOOO@OOO......@-:",
"#--#@@@@OOOOOOOOOOO@@.O.OOOOOOOOOOOO@#@@@@@OOOOOOOOO.........O.O",
"..............OOOOOOOOOOOOOOOO.....OOOOOOO.OOOOO.OOO............",
"#...................OOOO@@OOOOO....O.OOOOOO....................@",
"$%@O..OO...OOOO..#5-%$$#$$$$$#####@@@@@#%%:-O........$65#@@OOO#O"
};
