/* XPM */
static char *result[] = {
/* columns rows colors chars-per-pixel */
"64 64 48 1 ",
"  c #363030",
". c #39393D",
"X c #7D321B",
"o c #442723",
"O c #553B28",
"+ c #403635",
"@ c #463D3B",
"# c #593636",
"$ c #663020",
"% c #6D3A3B",
"& c #634739",
"* c #3E3E43",
"= c #4E4341",
"- c #434349",
"; c #48484F",
": c #564948",
"> c #4F4F56",
", c #5E5050",
"< c #56555D",
"1 c #6F5343",
"2 c #755747",
"3 c #7B5C4B",
"4 c #665858",
"5 c #6D5E5E",
"6 c #5B5B69",
"7 c #7A4060",
"8 c #626263",
"9 c #756566",
"0 c #636371",
"q c #6F6F71",
"w c #6A697B",
"e c #7B7A7B",
"r c #953C1C",
"t c #85443B",
"y c #A04C2F",
"u c #805F4F",
"i c #856353",
"p c #8B6756",
"a c #926D5B",
"s c #827272",
"d c #727285",
"f c #7A7A8C",
"g c #878484",
"h c #838396",
"j c #9B9899",
"k c #8C8CA0",
"l c #9696AB",
"z c #A4A4B8",
/* pixels */
"eegj> ><8888888888888888888->8888888  ><8888888888;>888888888888",
">>>>*  ........*****------*.*-****...  .......****.*------------",
";><<;..**->>**-.....fh;;<llwdd066<<<<60wff-><<<>;---dk;...<;**;;",
"kd066*..*>**>--*....hw;>kkddddw0ww00000fk0;w0wwww>---60...<-**ff",
"fh<>>;*>ww--;>-.....ww;>fdddddw0wwwwddwlf-6dddffd06--;<...0-*<ld",
"wd6>;;;60w<>-;-..***60;>6fdddd060wwwdddld-6khhffdw6>-;<..-w**>kd",
"ww6;-><66w<6-;-*.*--66>><079dd0060wwwdwlk<>fzzlhdww;-->.*-d;*;hd",
"0w>;>6660d60;;;**;>0w6<>:,%79dww660wwwwwkh><lzldw60>---..<f<*-60",
"6>>>>060ww000;;**<6ffw<>:%%%%7171&,445906se>whddffd>->...;d6*-;<",
">>>>>>wdfd0wd<;**6>0w66;=:7%7777X$$%Xt%999w6>6w00>;---....60>--;",
";>>;;;>;<w60w<-**<wwd0;-*###$%7$$$$$$Xt9,>>;--*******......;6<--",
"*>;;>;---*>;;-;*.*-;---**++OOO$$$$$$$$%=;;;-*-******........*;<*",
"**>;*******-><;.....***>>.@++++++###O+@*----******.........**.**",
"**.;>--;;;;;*............******-***@************.......*......**",
"**;-;>>;;;**********....************-**********--------**--****.",
"-;><www06<;-****--;-***>000<>****...****->***-;---------------**",
">;-<d66>>>;;>>;;;--;6>><<,,:&7@@*****--;>--*--**-;;>>>;-------**",
"d<;>w<>>>;<<><60666<<,%1%%%%7777#@*.*;6ww04=@@@:4@=6<<6dd0whkklk",
"0d>;6w0;-;<>>><<66668%tttX%$77%77t=--<<>;92ttt%%$%&<wdd6606660w0",
"fw-<06ww6<>>>>><<0088533t%%$$%%$$t%+-*-;,7$$$X$$$$%,,,466000wwww",
"k6-6600dk<><>>><6ww09qdwq97%%%#$$$t+.-*;:7$$%%%%%%%,4,4660wwddkk",
"k6-><00kh<><<>><6wwwqdddddd9t%%#$$%o+-.:,7$%779w955005448wwffklk",
"d<;;<dhld<<<<<<<6wwwdddddddd77%%$%%o+-.=:7$%dkkhhwwww02229wffhkf",
"d<-;0hffw<><<<><0wwwddddddddw0,%$%%o+-@@#7$%7hlhfwww005555wdddw0",
"0d-;dfwf6<><<><<0w0wwwdwwwddw9,%$$7o=-.@##%$%7ddwww98000040wwww0",
"hf->dwww6<66<<><006000wwwwwww6,##%to=-.6,##%%%600000600000000ww6",
"k6;<wdw66666<<<<6666666460006,:#%7$o+>.<6<:#%:,,,,<0w0006066660w",
"<<;<06<60066<<><6666061,,<66,&#%7%#@*;>666*@,::,,,>>---;6w666ddf",
"6w;66><<0066<<>66>>>>>=:><6<,,7%#@-;.<<6<6*.********-***-<w6w<<<",
"kf----;<><<<>>6<>;;--*@-;;>,%#@@**;*.*;0<<----*-;---;-;>>>>>;-6f",
";----**---;;>>;;-----------@@@-**>*..**>d>-***--****---;;66>;-->",
">;-*******;>>;;-------------****-.....***6>*--;;-;;;;;;;;<<>>>;;",
"*-**.***;>;;--*----*---*-***..-*.....*..**>6<;;..*********.*****",
"................................;>**++++....**...;;<00<-*.......",
">-*.*;*.---**--**-->>:@@->6<60dffdd9tOoo++..***==:,4sfkkf**...**",
"d60000<*-<600f6*.*;::#%$#&,w07,77761$$$yXO ...=:%#%29ddfk**..*6h",
"hhffd<-*-;<60fhw-**=#$7tX#,,,%77,77,%$$$tXo ..:#%$#7usddk**-;wlk",
"kkfhw-**;><6df06.**###$XX%=4,,747777ttyXX$o ..=#$7%%i9ddd***-fkh",
"ww06;*-;>>0ww00*.**@#777775=4454977yyXrrXoo+..*:%%7#79wf0..*-;<6",
";>;-*;;><>>>;;-.....+#$$%::=@:@++ooooO###o +..*:=#:=:<0>*..*****",
"*-**---;-************@+++......*@+oo+@**@+...***********.**....*",
".......***********..->>****......+++....*.....***...............",
"*******--;;>>>>;;;-***-6>**...*...*>>;;;>;---;;;;;>>660<;****.**",
"******---;;;;>>>;-----**<-*......;-;;;---;;------;--****;0**..**",
".******----;;>>>;-****-**0;.....*<;;;;;;;-=:--;;-;;;-****<w**...",
".******;;;-*--*@+++++.*--*6....*>;--@=:;>;;:::;;;;;;;-****>0*...",
".****--6;;6<6,#ooooo++.*-**6...*>-*@O#:::=::,45qdd<;----***>0*..",
".****>6;**277t777%%%##++--*;;...;-+#$O###$$%%%44660dfd--*****<..",
".**>06;*<piutX%%%#:##$#o@-*;;...;@+##O#7%$$$%%779www0whd;*-***-.",
"..6>-*<wdegattt%,,,:777$+=-;-..*-@o$#OO$$%77$%%%779dddwdk0*-**-*",
".*>-;ww000dsiu396667777#O=--;..*-@oo%$=#Oo$$7$$%7779779wwkd*-***",
".*;*;w<>6wdddff6606w777%O@-->..*-@ooX$:,:#OO#%%$$%77d7770fl6**.*",
".-;.;w6<6wwfffw6006001%%#=-*>.*--+o$X$&<<<>:=##%%$#&%77770hl>***",
".;-.;0w<60hw660000600477#--*>.*-*+%77X4<<6><<6>::7,,,,79d4dk;***",
".<-.-<0<0dw0wddwfw600s2=@-*.-.*-*@777t4666<<6666<><6<;:,egsh*.**",
".>;**;<<ww6wwdfkd666w>@**;*...****%77agfdw0066666<;--***-gkd****",
".*<**->>6wwdhhf06<<0***---*...**;-#ty%>>>>><6666<;;----**;8;**..",
"..0>*-;;--<<<<><6<<**-;;;**...**--=##,wfffff<<>>;;-------*****..",
"..>0>****-;;;;;--*.*;;;--***..***---<>---*-;>>>>;--***********..",
"...-600>--------------****->..****-********-;;;--********-***...",
"...*.*;66;----***********--.*.************-;-----*********......",
"....................****************.....*******.*****.***......",
".....-;...................****--*****....*.******...............",
"-***;*><-*..**...****..;d6<>>;>>>>>;;;;;-----;<<06*........>fd;-"
};
