/* XPM */
static char *result[] = {
/* columns rows colors chars-per-pixel */
"64 64 80 1 ",
"  c #081714",
". c #071B17",
"X c #091916",
"o c #071D19",
"O c #0D1C19",
"+ c #101F1D",
"@ c #06231D",
"# c #11201E",
"$ c #052620",
"% c #042C24",
"& c #142322",
"* c #182726",
"= c #1C2C2B",
"- c #033027",
"; c #00362D",
": c #1F302F",
"> c #20302F",
", c #233433",
"< c #263837",
"1 c #273938",
"2 c #2A3C3C",
"3 c #2D403F",
"4 c #2E4141",
"5 c #324646",
"6 c #354A4A",
"7 c #394E4E",
"8 c #3D5354",
"9 c #405757",
"0 c #435A5B",
"q c #475F60",
"w c #476061",
"e c #4A6364",
"r c #4D6769",
"t c #4F696A",
"y c #516C6D",
"u c #536F70",
"i c #567273",
"p c #597577",
"a c #5A7778",
"s c #5C7A7B",
"d c #607F81",
"f c #638384",
"g c #678788",
"h c #6A8B8D",
"j c #6D8F91",
"k c #6F9193",
"l c #719496",
"z c #75999B",
"x c #789D9F",
"c c #799EA1",
"v c #7DA3A5",
"b c #83ABAE",
"n c #86AFB1",
"m c #87B0B2",
"M c #89B2B5",
"N c #8CB5B8",
"B c #8EB8BA",
"V c #90BBBE",
"C c #92BEC0",
"Z c #95C2C5",
"A c #97C5C8",
"S c #99C7C9",
"D c #9CCBCD",
"F c #9FCED0",
"G c #A0CFD2",
"H c #A2D2D5",
"J c #A5D6D9",
"K c #A7D8DB",
"L c #A9DADD",
"P c #ACDEE1",
"I c #AEE1E4",
"U c #B0E4E7",
"Y c #B2E6E9",
"T c #B5EAED",
"R c #B7EDF0",
"E c #B9EEF2",
"W c #BCF2F5",
"Q c #BFF6F9",
"! c #C0F7FB",
"~ c #C3FBFF",
/* pixels */
"-;;;;;;;;;;;;;;;@@                       X@;;;;;;;;;;;;;;;;;;;;;",
";;;;;;;;;;;;;;;;O                         .@;;;;;;;;;;;;;;;;;;;;",
";;;;;;;;;;;;;;-#                           .@-;;;;;;;;;;;;;;;;;;",
";;;;;;;;;;;;;-@.                             @-;;;;;;;;;;;;;;;;;",
";;;;;;;;;;;;-$o                              .@;;;;;;;;;;;;;;;;;",
";;;;;;;;;;-;-@                               X.%;;;;;;;;;;;;;;;;",
";;;;;;;;;-;-$o                                 @;;;;;;;;;;;;;;;;",
";;;;;;;;;-;%@X                                @@;;;;;;;;;;;;;;;;",
";;;;;;;;;;-@o                                  @-;;;;;;;;;;;;;;;",
";;;;;;;;;-%o              OOOOOO     O         .@-;;;;;;;;;;;;;;",
";;;;;;;;-%@           OO#>,1222,>==*#######O    @@-;;;;;;;;;;;;;",
";;;;;;;;$@X        O+=<590ryuiyryyte00000962=+    @@;;;;;;;;;;;;",
";;;;;;;%@X        +<59yshlzbbbzbbnnbbxxxzlgi03=#O  X@@;;;;;;;;;;",
";;;;;;;$X       O=50sjbMVSDDGGFHKUUULKKHHFSmxse72*O  @%;;;;;;;;;",
";;;;;;%o     X O,9ikbVGKIYYTTTT!!!!!!!WWWETLDMvgy7:X X#-;;;;;;;;",
";;;;;;@X     XO<9abVHUYE!!!!!!!~!~~~~~~~~~!WTUHCvd7*  X%;;;;;;;;",
";;;;;-OX     O>8sbALRW!~~~~~~~~~~~~~~~~~~~~!!!WYGvy2O   O@;;;;;;",
";;;;;%XX     *5ixZPE!~~~~~~~~~~~~~~~~~!!!!!~!~~~TZf6#    @@-;;;;",
";;;;%@X     O,qkVKW!~~~~~~~~~~~~~~~~~~~!!Q!!~~~~WGl9#     X@;;;;",
";;;;$       &6sbHT!~~~~~~~~~~~~~~~~~~~~~QQW!!~~~WKx9#      X@@;;",
";;;-@      X>0lCUW~~~~~~~~~~~~~~~~~~~~~~!!!!~~~~!Lb0#        X@-",
";;;$       O2ivGT!~~~~~~~~~~~~~~~~~~~~~~~~~~~~~~!Umt>X        X.",
"%%$@       +6fNKE!~~~~~~~~~~~~~~~~~~~~~~~~~~~~~~~TCd2#          ",
"@ ..       =0jCPW~~~~~~~~~~~~~~~~~~~~~~~~~~~~~~~~EHz8#          ",
"         XO,rzAU!~~~~~~~~~~~~~~~~~~~~~~~~~~~~~~~~!Imu,X         ",
"         X*6pbDT!~~~~~~~~~~~~~~~~~~~~~~~~~~~~~~~~!TAh5O         ",
"         #2rjBJT!~~~~~~~~~~~~~~~~~~~~~~~~~~~~~~~~~WJz9#         ",
"        X=7dnHYW!~~~~~~~~~~~~~~~~~~~~~~~~~~~~~~~~~QLbw*         ",
"        O,0zDTQ!~~~~~~~~~~~~~~~~~~~~~~~~~~~~~~~~~~!Ibe*         ",
"        X,exJW!~~~~~~~~~~~~~~~~~~~~~~~~~~~~~~~~~~~!Inr#         ",
"        X,wcJ!~~~~~~~~~~~~~~~~~~~~~~~~~~~~~~~~~~~~QIMy=         ",
"        X*0zJW~~~~~~~~~~~~~~~~~~~~~~~~~~~~~~~~!~~~!UVs2X        ",
"         O2bG!~~~~~~~~~~~~~~~~~~~~~~~~~~~~~~~~~~~~~!Zg9O        ",
"         +5fH!~~~~~~~~~~~~~~~~~~~~~~~~~~~~~~~~~~~~!!Db9O        ",
"         *9bH!~~~~~~~~~~~~~~~~~~~~~~~~~~~~~~~~~~~~!!Lby=        ",
"         >0bK!~~~~~~~~~~~~~~~~~~~~~~~~~~~~~~~~~~~!!!UCj5+       ",
"        O,rbI!~~~~~~~~~~~~~~~~~~~~~~~~~~~~~~~~~~~~~!!Hbt>       ",
"        O1inY!~~~~~~~~~~~~~~~~~~~~~~~~~~~~~~~~~~~!~~!YBs5+      ",
"        O1sCY!~~~~~~~~~~~~~~~~~~~~~~~~~~~~~~~~~~~~~~~!Vf5#      ",
"        *5bS!~~~~~~~~~~~~~~~~~~~~~~~~~~~~~~~~~~~~~~!!UNp3+      ",
"       O,ebJ!!~~~~~~~~~~~~~~~~~~~~~~~~~~~~~~~~~~~~!!!Gbe>       ",
"       &5pbL!~~~~~~~~~~~~~~~~~~~~~~~~~~~~~~~~~~~~~~!IBs2#       ",
"       =9gCY!~~~~~~~~~~~~~~~~~~~~~~~~~~~~~~~~~~~~~!!Lbe*        ",
"      O>9bFY!~~~~~~~~~~~~~~~~~~~~~~~~~~~~~~~~~~~~~!!Db9#        ",
"      O,ybF!~~~~~~~~~~~~~~~~~~~~~~~~~~~~~~~~~~~~~~~!Sh9+        ",
"      +2ibH!~~~~~~~~~~~~~~~~~~~~~~~~~~~~~~~~~~~~~!!LNp1         ",
"      O2pbI~~~~~~~~~~~~~~~~~~~~~~~~~~~~~~~~~~~~~!!UDb9=         ",
"      +3pnL~~~~~~~~~~~~~~~~~~~~~~~~~~~~~~~~~~~~~!!LBd9+         ",
"      O3anK!!~~~~~~~~~~~~~~~~~~~~~~~~~~~~~~~~~~~!!Hbs3#         ",
"      O3anHT!~~~~~~~~~~~~~~~~~~~~~~~~~~~~~~~~~~~~!Kbs3O         ",
"      +3anJ!!~~~~~~~~~~~~~~~~~~~~~~~~~~~~~~~~~~~!!Lms3O         ",
"      O3anJ!~~~~~~~~~~~~~~~~~~~~~~~~~~~~~~~~~~~~!!INd3O         ",
"      +3pbF!!~~~~~~~~~~~~~~~~~~~~~~~~~~~~~~~~~~~~!UVf3O         ",
"      +3pbHT~~~~~~~~~~~~~~~~~~~~~~~~~~~~~~~~~~~~~!YZg9O         ",
"      O3snJ!~~~~~~~~~~~~~~~~~~~~~~~~~~~~~~~~~~~~~!!Sh6O         ",
"      O3pnH!!~~~~~~~~~~~~~~~~~~~~~~~~~~~~~~~~~~~~~TSk9#         ",
"      +4pnK!!~~~~~~~~~~~~~~~~~~~~~~~~~~~~~~~~~~~~~!Fk6#         ",
"      O4snHT!!~~~~~~~~~~~~~~~~~~~~~~~~~~~~~~~~~~~!TFk9+         ",
"      O3snK!~~~~~~~~~~~~~~~~~~~~~~~~~~~~~~~~~~~~~!TSh6OX        ",
"      O3pnH!!~~~~~~~~~~~~~~~~~~~~~~~~~~~~~~~~~~~~~!Sh3O         ",
"      O2qbS!!~~~!!~~!!!!~~~~~~~~~~~~~~~~~~~~~~~~~~TZf3OX        ",
"      O,qbCI!!~~!!!!!!!!~~~~~~~~~~~~~~~~~~~~~~~~~~TCs3OX        ",
"       >9sbF!!~~!!!!UU!!~~~~~~~~~~~~~~~~~~~~~~~~~!YNi2O         ",
"       *6ibBHU!!!!LJSD!~~~~~~~~~~~~~~~~~~~~~~~~~~!Pbt,X         "
};
