/* XPM */
static char *result[] = {
/* columns rows colors chars-per-pixel */
"64 64 217 2 ",
"   c #795612",
".  c #7F5C2F",
"X  c #9C721C",
"o  c #A36F19",
"O  c #AD7A1E",
"+  c #A87718",
"@  c #B57314",
"#  c #B57C14",
"$  c #BA7D1D",
"%  c #B27318",
"&  c #8F6B2A",
"*  c #916D2C",
"=  c #976C28",
"-  c #91712D",
";  c #9A7029",
":  c #8E6539",
">  c #9D6F36",
",  c #9B7634",
"<  c #9C7935",
"1  c #A46D25",
"2  c #A37323",
"3  c #A47E22",
"4  c #AD7C26",
"5  c #AD7D2C",
"6  c #A17328",
"7  c #B47B23",
"8  c #BA7D24",
"9  c #B37D2A",
"0  c #B07329",
"q  c #AA7B35",
"w  c #AC7E39",
"e  c #A67835",
"r  c #B37C32",
"t  c #C17E25",
"y  c #AE8219",
"u  c #B7801E",
"i  c #BD831C",
"p  c #BF8B1D",
"a  c #9D8137",
"s  c #AE8726",
"d  c #B58123",
"f  c #BC8424",
"g  c #B5842C",
"h  c #BA852D",
"j  c #BC892F",
"k  c #B58D2E",
"l  c #BD9326",
"z  c #A78236",
"x  c #AE8436",
"c  c #A6833C",
"v  c #AD823E",
"b  c #AE8A38",
"n  c #B78230",
"m  c #BC8A33",
"M  c #B18139",
"N  c #BD9339",
"B  c #CA8B1E",
"V  c #C4871F",
"C  c #D48C1D",
"Z  c #D98E17",
"A  c #C18323",
"S  c #C08B24",
"D  c #CA8C23",
"F  c #C48D2C",
"G  c #CA8D2A",
"H  c #C88622",
"J  c #D18F25",
"K  c #D58A2B",
"L  c #C89127",
"P  c #CD942C",
"I  c #CD9C2B",
"U  c #CE9927",
"Y  c #DF9C26",
"T  c #D3962E",
"R  c #D39B2E",
"E  c #DC9C2C",
"W  c #D69528",
"Q  c #C48C32",
"!  c #C58E39",
"~  c #C98E31",
"^  c #C49135",
"/  c #CC9433",
"(  c #CD9B36",
")  c #C3933B",
"_  c #CC9038",
"`  c #CD9A39",
"'  c #C3983A",
"]  c #D49635",
"[  c #D49C33",
"{  c #D59C3E",
"}  c #DB9C39",
"|  c #DB9A3A",
" . c #E09B24",
".. c #E19C2B",
"X. c #E19F34",
"o. c #DDA125",
"O. c #DCA32E",
"+. c #D9A235",
"@. c #DDA935",
"#. c #D4A33A",
"$. c #DBA43B",
"%. c #DCAC39",
"&. c #D6AB3C",
"*. c #E2A22D",
"=. c #E5A92E",
"-. c #E8A82B",
";. c #E3A534",
":. c #EBA636",
">. c #E6AA33",
",. c #EAAC33",
"<. c #E4A33A",
"1. c #E3AB3B",
"2. c #EDAE3B",
"3. c #F2AF36",
"4. c #E2B43E",
"5. c #EEB33D",
"6. c #EEB135",
"7. c #F3B43B",
"8. c #F8B13F",
"9. c #F5BB3D",
"0. c #F3C03F",
"q. c #A88041",
"w. c #AF834B",
"e. c #C89440",
"r. c #D69D49",
"t. c #DA9F55",
"y. c #CBA04D",
"u. c #D0A041",
"i. c #DFAB48",
"p. c #D7A748",
"a. c #D7B44B",
"s. c #D9AF50",
"d. c #DDA251",
"f. c #E3AD43",
"g. c #EBAC44",
"h. c #E7A643",
"j. c #E5B243",
"k. c #ECB342",
"l. c #E7B842",
"z. c #EDBA45",
"x. c #E5B34B",
"c. c #ECB74E",
"v. c #E2BB4F",
"b. c #EDBB4A",
"n. c #F2B642",
"m. c #F4BC42",
"M. c #FABD42",
"N. c #F3BD4C",
"B. c #FBBD4A",
"V. c #F5B049",
"C. c #E4B254",
"Z. c #E4BB54",
"A. c #EBBC54",
"S. c #E3B55A",
"D. c #F5BD54",
"F. c #D8A561",
"G. c #DEB665",
"H. c #E0B960",
"J. c #ECBD62",
"K. c #EDBC6E",
"L. c #E1B666",
"P. c #E7C04A",
"I. c #EAC24F",
"U. c #FBC244",
"Y. c #FBCB45",
"T. c #F4C54B",
"R. c #F9C44D",
"E. c #F6CA4B",
"W. c #FCCB4D",
"Q. c #F3C544",
"!. c #EDC254",
"~. c #F4C553",
"^. c #FCC552",
"/. c #F5CB54",
"(. c #FCCC53",
"). c #F2C65A",
"_. c #FAC75B",
"`. c #F4CC5C",
"'. c #FBCD5B",
"]. c #EED35C",
"[. c #F4D156",
"{. c #FAD055",
"}. c #F4D15E",
"|. c #FBD35D",
" X c #E3C262",
".X c #EECB6E",
"XX c #E9C66F",
"oX c #F6CE62",
"OX c #F9CE61",
"+X c #FCCD69",
"@X c #F6C86A",
"#X c #EED063",
"$X c #F5D465",
"%X c #FBD264",
"&X c #FFD963",
"*X c #F5D36D",
"=X c #FCD46A",
"-X c #FDD96A",
";X c #F6D866",
":X c #ECCE73",
">X c #F8CF78",
",X c #FCCD77",
"<X c #F5D374",
"1X c #FAD476",
"2X c #FBDB74",
"3X c #F7D77D",
"4X c #FBDD7C",
"5X c #F6DB74",
"6X c #FAE17C",
"7X c #F8E177",
"8X c #F0C986",
"9X c #FFDE8D",
"0X c #F5D487",
"qX c #FFE180",
"wX c #FAE58E",
"eX c #FBEB99",
"rX c None",
/* pixels */
"rXrXrXrXrXrXrXrXrXrXrXrXrXrXrXrXrXrXrXrXrXrXrXrXrXrXrXrXrXrXrXrXrXrXrXrXrXrXrXrXrXrXrXrXrXrXrXrXrXrXrXrXrXrXrXrXrXrXrXrXrXrXrXrX",
"rXrXrXrXrXrXrXrXrXrXrXrXrXrXrXrXrXrXrXrXrXrXrXrXrXrXrXrXrXrXrXrXrXrXrXrXrXrXrXrXrXrXrXrXrXrXrXrXrXrXrXrXrXrXrXrXrXrXrXrXrXrXrXrX",
"rXrXrXrXrXrXrXrXrXrXrXrXrXrXrXrXrXrXrXrXrXrXrXrXrXrXrXrXrXrXrXrXrXrXrXrXrXrXrXrXrXrXrXrXrXrXrXrXrXrXrXrXrXrXrXrXrXrXrXrXrXrXrXrX",
"rXrXrXrXrXrXrXrXrXrXrXrXrXrXrXrXrXrXrXrXrXrXrXrXrXrXrXrXrXrXrXrXrXrXrXrXrXrXrXrXrXrXrXrXrXrXrXrXrXrXrXrXrXrXrXrXrXrXrXrXrXrXrXrX",
"rXrXrXrXrXrXrXrXrXrXrXrXrXrXrXrXrXrXrXrXrXrXrXrXrXrXrXrXrXrXrXrXrXrXrXrXrXrXrXrXrXrXrXrXrXrXrXrXrXrXrXrXrXrXrXrXrXrXrXrXrXrXrXrX",
"rXrXrXrXrXrXrXrXrXrXrXrXrXrXrXrXrXrXrXrXrXrXrXrXrXrXrXrXrXrXrXrXrXrXrXrXrXrXrXrXrXrXrXrXrXrXrXrXrXrXrXrXrXrXrXrXrXrXrXrXrXrXrXrX",
"rXrXrXrXrXrXrXrXrXrXrXrXrXrXrXrXrXrXrXrXrXrXrXrXrXrXrXrXrXrXrXrXrXrXrXrXrXrXrXrXrXrXrXrXrXrXrXrXrXrXrXrXrXrXrXrXrXrXrXrXrXrXrXrX",
"rXrXrXrXrXrXrXrXrXrXrXrXrXrXrXrXrXrXrXrXrXrXrXrXrXrXrXrXrXrXrXrXrXrXrXrXrXrXrXrXrXrXrXrXrXrXrXrXrXrXrXrXrXrXrXrXrXrXrXrXrXrXrXrX",
"rXrXrXrXrXrXrXrXrXrXrXrXrXrXrXrXrXrXrXrXrXrXrXrXrXrXrXrXrXrXrXrXrXrXrXrXrXrXrXrXrXrXrXrXrXrXrXrXrXrXrXrXrXrXrXrXrXrXrXrXrXrXrXrX",
"rXrXrXrXrXrXrXrXrXrXrXrXrXrXrXrXrXrXrXrXrXrXrXrXrXrXrXrXrXrXrXrXrXrXrXrXrXrXrXrXrXrXrXrXrXrXrXrXrXrXrXrXrXrXrXrXrXrXrXrXrXrXrXrX",
"rXrXrXrXrXrXrXrXrXrXrXrXrXrXrXrXrXrXrXrXrXrXrXrXrXrXrXrXrXrXrXrXrXrXrXrXrXrXrXrXrXrXrXrXrXrXrXrXrXrXrXrXrXrXrXrXrXrXrXrXrXrXrXrX",
"rXrXrXrXrXrXrXrXrXrXrXrXrXrXrXrXrXrXrXrXrXrXrXrXrXrXrXrXrXrXrXrXrXrXrXrXrXrXrXrXrXrXrXrXrXrXrXrXrXrXrXrXrXrXrXrXrXrXrXrXrXrXrXrX",
"rXrXrXrXrXrXrXrXrXrXrXrXrXrXrXrXrXrXrXrXrXrXrXrXrXrXrXrXrXrXrXrXrXrXrXrXrXrXrXrXrXrXrXrXrXrXrXrXrXrXrXrXrXrXrXrXrXrXrXrXrXrXrXrX",
"rXrXrXrXrXrXrXrXrXrXrXrXrXrXrXrXrXrXrXrXrXrXrXrXrXrXrXrXrXrXrXrXrXrXrXrXrXrXrXrXrXrXrXrXrXrXrXrXrXrXrXrXrXrXrXrXrXrXrXrXrXrXrXrX",
"rXrXrXrXrXrXrXrXrXrXrXrXrXrXrXrXrXrXrXrXrXrXrXrXrXrXrXrXrXrXrXrXrXrXrXrXrXrXrXrXrXrXrXrXrXrXrXrXrXrXrXrXrXrXrXrXrXrXrXrXrXrXrXrX",
"rXrXrXrXrXrXrXrXrXrXrXrXrXrXrXrXrXrXrXrXrXrXrXrXrXrXrXrXrXrXrXrXrXrXrXrXrXrXrXrXrXrXrXrXrXrXrXrXrXrXrXrXrXrXrXrXrXrXrXrXrXrXrXrX",
"rXrXrXrXrXrXrXrXrXrXrXrXrXrXrXrXrXrXrXrXrXrXrXrXrXrXrXrXrXrXrXrXrXrXrXrXrXrXrXrXrXrXrXrXrXrXrXrXrXrXrXrXrXrXrXrXrXrXrXrXrXrXrXrX",
"rXrXrXrXrXrXrXrXrXrXrXrXrXrXrXrXrXrXrXrXrXrXrXrXrXrXrXrXrXrXrXrXrXrXrXrXrXrXrXrXrXrXrXrXrXrXrXrXrXrXrXrXrXrXrXrXrXrXrXrXrXrXrXrX",
"rXrXrXrXrXrXrXrXrXrXrXrXrXrXrXrXrXrXrXrXrXrXrXrXrXrXrXrXrXrXrXrXrXrXrXrXrXrXrXrXrXrXrXrXrXrXrXrXrXrXrXrXrXrXrXrXrXrXrXrXrXrXrXrX",
"rXrXrXrXrXrXrXrXrXrXrXrXrXrXrXrXrXrXrXrXrXrXrXrXrXrXrXrXrXrXrXrXrXrXrXrXrXrXrXrXrXrXrXrXrXrXrXrXrXrXrXrXrXrXrXrXrXrXrXrXrXrXrXrX",
"rXrX- - c b X N s.s.k + &.4.p.3 g #.N , rXrXrXrXrXrXrXrXrXrXrXrXrXrXrXrXrXrXrXrXrXrXrXrXrXrXrXrXrXrXrXrXrXrXrXrXrXrXrXrXrXrXrXrX",
"rXrX- - x m X k i.$.g + O.>.[ O h } j < rXrXrXrXrXrXrXrXrXrXrXrXrXrXrXrXrXrXrXrXrXrXrXrXrXrXrXrXq.q.M M v q.q.c rXrXrXrXrXrXrXrX",
"rXrX- - 4 Q 2 O R T 4 i Y o.I + F ] j a rXrXrXrXrXrXrXrXrXrXrXrXrXrXrXrXrXrXrXrXrXrXrXrXrXrXu A ~ ] E ..;.| _ A u 9 rXrXrXrXrXrX",
"rXrXrX3 P f.( l 5.8.Q +.m.m.f.l 5.7.( a rXrXrXrXrXrXrXrXrXrXrXrXrXrXrXrXrXrXrXrXrXrXrXrXrX9 B ;.N.).}.}.'._.A.4.W A e rXrXrXrXrX",
"rXrXrXs %.B.f.I Y.W.[ %.(.(.z.D U.B.#.a rXrXrXrXrXrXrXrXrXrXrXrXrXrXrXrXrXrXrXrXrXrXrXrXr G g.W.{.[.].#X`.E.E.Q.m.E 8 5 rXrXrXrX",
"rXrXrXb T V.] S 0.9./ G M.U.$.V 3.:.h a rXrXrXrXrXrXrXrXrXrXrXrXrXrXrXrXrXrXrXrXrXrXrXw D h.+X$X{.T.z.x.k.5.Q.W.E.B.] r 5 rXrXrX",
"rXrXrXrXf | f # -.>.G @ *.,.P % ..T e rXrXrXrXrXrXrXrXrXrXrXrXrXrXrXrXrXrXrXrXrXrXrXrXS >.+X1X<XZ.T t 7 7 $ G x.)._.c.G w rXrXrX",
"rXrXrXrXd ] f # -.>.P @ O.,.T # ../ , rXrXrXrXrXrXrXrXrXrXrXrXrXrXrXrXrXrXrXrXrXrXrXn ;.W.%X*XZ.j 1 rXrXrXrX= Q c.`.`.1.t x rXrX",
"rXrXrXrXj k.+.B 9.T.1.D m.T.%.I U.#.c rXrXrXrXrXrXrXrXrXrXrXrXrXrXrXrXrXrXrXrXrXrXrX<.D.-X%Xb.F ; rXrXrXrXrXrX1 P P./.R.T e rXrX",
"rXrXrXrX( U.n.U (.-X~.#.=X-Xb.%.W.f.+   . : * * * * & * * < < ; 4 9 g h F ! Q ` { 1.n.=X2X`.+.o rXrXrXrXrXrXrXrX7 4.Q.(.k.h n rX",
"rXrXrXrX[ 9.R.%.%X4X*Xa.4X9X}.v.'.} + y F [ P T U T I [ +.$.<.R 2.5.n.U.U.U.9.U.U.Y.[.2X<XA.O rXrXrXrXrXrXrXrXrXrXJ n./.~.G w rX",
"rXrXrXrXr.9.'.a.2X3X0X X.X.X=XZ.^.[ i @.l.z.z.P.N.b.N.T.~.~.A.Z.`.`.`.`.}.`.;X|.;X;X7XwX>Xf.2 rXrXrXrXrXrXrXrXrXrXA 6.~.).1.4 rX",
"rXrXrXrXd.3.!.<X>XG.0XXXL.r.J.C.N.1.1.(.`.}.[.$X;X;X$X;X=X5X<X:X4X6X6X6X6X6X2X5X4X4XwXeX<Xh.6 rXrXrXrXrXrXrXrXrXrX8 -.E._.X.f rX",
"rXrXrXrXd.8.x.>XK.F.8X9XL.0XK.S.+XN.N.|.|.&X&X&X-X-X&X=X$X*X:X X%XOX%X%X`.%X`.OX'.OX2XqX*Xc.9 rXrXrXrXrXrXrXrXrXrXG 6.T./.$.q rX",
"rXrXrXrXp.1.N.x.S.@XG. XS.,X1XOX_.2.,.m.U.0.9.7.7.2.,.,.O.+.$.G [ E E R +.R [ R [ ;.R.=X5XoX` * rXrXrXrXrXrXrXrXf E k./.`.^ ^ rX",
"rXrXrXrXrX..7.7.M.g.f.1.;.<.E  . .Z Z Z J J D G D G F f f j j m m j m j j m j j j Q -.(.2X5Xx.f > rXrXrXrXrXrX0 J :.T.|.a.z rXrX",
"rXrXrXrXrXrXrXrXrXrXrXrXrXrXrXrXrXrXrXrXrXrXrXrXrXrXrXrXrXrXrXrXrXrXrXrXrXrXrXrXrXrXG g.-X6X'.;.$ w.rXrXrXrXr K :.Q.{.!.' z rXrX",
"rXrXrXrXrXrXrXrXrXrXrXrXrXrXrXrXrXrXrXrXrXrXrXrXrXrXrXrXrXrXrXrXrXrXrXrXrXrXrXrXrXrXrXE N.-X%XB.*.i 9 q 4 8 H h.D./.[.f.r rXrXrX",
"rXrXrXrXrXrXrXrXrXrXrXrXrXrXrXrXrXrXrXrXrXrXrXrXrXrXrXrXrXrXrXrXrXrXrXrXrXrXrXrXrXrXrXr ..R.%X~.M.>.;.} O.=.n.D.).|.!.F n rXrXrX",
"rXrXrXrXrXrXrXrXrXrXrXrXrXrXrXrXrXrXrXrXrXrXrXrXrXrXrXrXrXrXrXrXrXrXrXrXrXrXrXrXrXrXrXrXf >.(.'.R.M.m.9.M.m.~.).`.T.( Q rXrXrXrX",
"rXrXrXrXrXrXrXrXrXrXrXrXrXrXrXrXrXrXrXrXrXrXrXrXrXrXrXrXrXrXrXrXrXrXrXrXrXrXrXrXrXrXrXrXrXB 5.(.{.'.`.'./.'.`./.Q.o.7 rXrXrXrXrX",
"rXrXrXrXrXrXrXrXrXrXrXrXrXrXrXrXrXrXrXrXrXrXrXrXrXrXrXrXrXrXrXrXrXrXrXrXrXrXrXrXrXrXrXrXrXrX/ @.M.R.W.(.R.B.k.1.T g rXrXrXrXrXrX",
"rXrXrXrXrXrXrXrXrXrXrXrXrXrXrXrXrXrXrXrXrXrXrXrXrXrXrXrXrXrXrXrXrXrXrXrXrXrXrXrXrXrXrXrXrXrXrXrXm ! e.) ) Q m h rXrXrXrXrXrXrXrX",
"rXrXrXrXrXrXrXrXrXrXrXrXrXrXrXrXrXrXrXrXrXrXrXrXrXrXrXrXrXrXrXrXrXrXrXrXrXrXrXrXrXrXrXrXrXrXrXrXrXrXrXrXrXrXrXrXrXrXrXrXrXrXrXrX",
"rXrXrXrXrXrXrXrXrXrXrXrXrXrXrXrXrXrXrXrXrXrXrXrXrXrXrXrXrXrXrXrXrXrXrXrXrXrXrXrXrXrXrXrXrXrXrXrXrXrXrXrXrXrXrXrXrXrXrXrXrXrXrXrX",
"rXrXrXrXrXrXrXrXrXrXrXrXrXrXrXrXrXrXrXrXrXrXrXrXrXrXrXrXrXrXrXrXrXrXrXrXrXrXrXrXrXrXrXrXrXrXrXrXrXrXrXrXrXrXrXrXrXrXrXrXrXrXrXrX",
"rXrXrXrXrXrXrXrXrXrXrXrXrXrXrXrXrXrXrXrXrXrXrXrXrXrXrXrXrXrXrXrXrXrXrXrXrXrXrXrXrXrXrXrXrXrXrXrXrXrXrXrXrXrXrXrXrXrXrXrXrXrXrXrX",
"rXrXrXrXrXrXrXrXrXrXrXrXrXrXrXrXrXrXrXrXrXrXrXrXrXrXrXrXrXrXrXrXrXrXrXrXrXrXrXrXrXrXrXrXrXrXrXrXrXrXrXrXrXrXrXrXrXrXrXrXrXrXrXrX",
"rXrXrXrXrXrXrXrXrXrXrXrXrXrXrXrXrXrXrXrXrXrXrXrXrXrXrXrXrXrXrXrXrXrXrXrXrXrXrXrXrXrXrXrXrXrXrXrXrXrXrXrXrXrXrXrXrXrXrXrXrXrXrXrX",
"rXrXrXrXrXrXrXrXrXrXrXrXrXrXrXrXrXrXrXrXrXrXrXrXrXrXrXrXrXrXrXrXrXrXrXrXrXrXrXrXrXrXrXrXrXrXrXrXrXrXrXrXrXrXrXrXrXrXrXrXrXrXrXrX",
"rXrXrXrXrXrXrXrXrXrXrXrXrXrXrXrXrXrXrXrXrXrXrXrXrXrXrXrXrXrXrXrXrXrXrXrXrXrXrXrXrXrXrXrXrXrXrXrXrXrXrXrXrXrXrXrXrXrXrXrXrXrXrXrX",
"rXrXrXrXrXrXrXrXrXrXrXrXrXrXrXrXrXrXrXrXrXrXrXrXrXrXrXrXrXrXrXrXrXrXrXrXrXrXrXrXrXrXrXrXrXrXrXrXrXrXrXrXrXrXrXrXrXrXrXrXrXrXrXrX",
"rXrXrXrXrXrXrXrXrXrXrXrXrXrXrXrXrXrXrXrXrXrXrXrXrXrXrXrXrXrXrXrXrXrXrXrXrXrXrXrXrXrXrXrXrXrXrXrXrXrXrXrXrXrXrXrXrXrXrXrXrXrXrXrX",
"rXrXrXrXrXrXrXrXrXrXrXrXrXrXrXrXrXrXrXrXrXrXrXrXrXrXrXrXrXrXrXrXrXrXrXrXrXrXrXrXrXrXrXrXrXrXrXrXrXrXrXrXrXrXrXrXrXrXrXrXrXrXrXrX",
"rXrXrXrXrXrXrXrXrXrXrXrXrXrXrXrXrXrXrXrXrXrXrXrXrXrXrXrXrXrXrXrXrXrXrXrXrXrXrXrXrXrXrXrXrXrXrXrXrXrXrXrXrXrXrXrXrXrXrXrXrXrXrXrX",
"rXrXrXrXrXrXrXrXrXrXrXrXrXrXrXrXrXrXrXrXrXrXrXrXrXrXrXrXrXrXrXrXrXrXrXrXrXrXrXrXrXrXrXrXrXrXrXrXrXrXrXrXrXrXrXrXrXrXrXrXrXrXrXrX",
"rXrXrXrXrXrXrXrXrXrXrXrXrXrXrXrXrXrXrXrXrXrXrXrXrXrXrXrXrXrXrXrXrXrXrXrXrXrXrXrXrXrXrXrXrXrXrXrXrXrXrXrXrXrXrXrXrXrXrXrXrXrXrXrX",
"rXrXrXrXrXrXrXrXrXrXrXrXrXrXrXrXrXrXrXrXrXrXrXrXrXrXrXrXrXrXrXrXrXrXrXrXrXrXrXrXrXrXrXrXrXrXrXrXrXrXrXrXrXrXrXrXrXrXrXrXrXrXrXrX",
"rXrXrXrXrXrXrXrXrXrXrXrXrXrXrXrXrXrXrXrXrXrXrXrXrXrXrXrXrXrXrXrXrXrXrXrXrXrXrXrXrXrXrXrXrXrXrXrXrXrXrXrXrXrXrXrXrXrXrXrXrXrXrXrX",
"rXrXrXrXrXrXrXrXrXrXrXrXrXrXrXrXrXrXrXrXrXrXrXrXrXrXrXrXrXrXrXrXrXrXrXrXrXrXrXrXrXrXrXrXrXrXrXrXrXrXrXrXrXrXrXrXrXrXrXrXrXrXrXrX",
"rXrXrXrXrXrXrXrXrXrXrXrXrXrXrXrXrXrXrXrXrXrXrXrXrXrXrXrXrXrXrXrXrXrXrXrXrXrXrXrXrXrXrXrXrXrXrXrXrXrXrXrXrXrXrXrXrXrXrXrXrXrXrXrX",
"rXrXrXrXrXrXrXrXrXrXrXrXrXrXrXrXrXrXrXrXrXrXrXrXrXrXrXrXrXrXrXrXrXrXrXrXrXrXrXrXrXrXrXrXrXrXrXrXrXrXrXrXrXrXrXrXrXrXrXrXrXrXrXrX",
"rXrXrXrXrXrXrXrXrXrXrXrXrXrXrXrXrXrXrXrXrXrXrXrXrXrXrXrXrXrXrXrXrXrXrXrXrXrXrXrXrXrXrXrXrXrXrXrXrXrXrXrXrXrXrXrXrXrXrXrXrXrXrXrX",
"rXrXrXrXrXrXrXrXrXrXrXrXrXrXrXrXrXrXrXrXrXrXrXrXrXrXrXrXrXrXrXrXrXrXrXrXrXrXrXrXrXrXrXrXrXrXrXrXrXrXrXrXrXrXrXrXrXrXrXrXrXrXrXrX"
};
