/* XPM */
static char *result[] = {
/* columns rows colors chars-per-pixel */
"64 64 10 1 ",
"  c #101010",
". c #5A3908",
"X c #835A10",
"o c #836208",
"O c #AC8329",
"+ c #CDBD20",
"@ c #FFE629",
"# c #F6F6A4",
"$ c white",
"% c None",
/* pixels */
"%$$$$$$XX@@@@@@@@OO++@@@@@@@@@@@@@@@@@@@@@@@@++####OO$$$$$$$$$$$",
"%$$$$$$OO++@@@@@@@@@@@@@@@@@@@@@@@@@@@@@@@@OO######..$$$$$$$$$$$",
"%$$$$$$OO++@@@@@@@@@@@@@@@@@@@@@@@@@@@@@@@@OO######..$$$$$$$$$$$",
"%$$$$$$$$..@@++@@@@@@@@@@@@@@@@@@@@@@@@@@++OO####OO$$$$$$$$$$$$$",
"%$$$$$$$$..@@++@@@@@@@@@@@@@@@@@@@@@@@@@@++OO####OO$$$$$$$$$$$$$",
"%$$$$$$$$..++++@@@@@@@@@@@@@@@@@@@@@@@@@@++++++##..$$$$$$$$$$$$$",
"%$$$$$$$$..++++@@@@@@@@@@@@@@@@@@@@@@@@@@++++++##..$$$$$$$$$$$$$",
"%$$$$$$$$$$..@@@@@@@@@@@@@@@@@@@@@@@@@@@@++++++XX  $$$$$$$$$$$$$",
"%$$$$$$$$$$..@@@@@@@@@@@@@@@@@@@@@@@@@@@@++++++XX  $$$$$$$$$$$$$",
"%$$$$$$$$$$..@@@@@@@@@@@@@@@@@@@@@@@@@@@@++++++++  $$$$$$$$$$$$$",
"%$$$$$$$$$$..@@@@@@@@@@@@@@@@@@@@@@@@@@@@++++++++  $$$$$$$$$$$$$",
"%$$$$$$$$$$OO@@@@@@@@@@@@@@@@@@@@@@@@@@++++++++++OO$$$$$$$$$$$$$",
"%$$$$$$$$$$OO@@@@@@@@@@@@@@@@@@@@@@@@@@++++++++++OO$$$$$$$$$$$$$",
"%$$$$$$$$$$++@@++@@@@@@@@@@@@@@@@@@@@OOOO++++++++++  $$$$$$$$$$$",
"%$$$$$$$$$$++@@++@@@@@@@@@@@@@@@@@@@@OOOO++++++++++  $$$$$$$$$$$",
"%$$$$$$$$XX@@@@@@OO@@@@@@@@@@@@@@@@  ++++++++++++++  $$$$$$$$$$$",
"%$$$$$$$$XX@@@@@@OO@@@@@@@@@@@@@@@@  ++++++++++++++  $$$$$$$$$$$",
"%$$$$$$$$XX@@@@@@@@  @@@@@@@@@@@@  ++++++++++++++OO  $$$$$$$$$$$",
"%$$$$$$$$XX@@@@@@@@  @@@@@@@@@@@@  ++++++++++++++OO  $$$$$$$$$$$",
"%$$$$$$$$..@@@@@@@@++  @@@@@@@@  ++@@@@++++++XX    $$$$$$$$$$$$$",
"%$$$$$$$$..@@@@@@@@++  @@@@@@@@  ++@@@@++++++XX    $$$$$$$$$$$$$",
"%$$$$$$$$$$....@@@@@@XX@@@@@@@@XX@@@@++oo....$$$$$$$$$$$$$$$$$$$",
"%$$$$$$$$$$....@@@@@@XX@@@@@@@@XX@@@@++oo....$$$$$$$$$$$$$$$$$$$",
"%$$$$$$$$$$$$$$....@@@@@@@@@@++++++++oo      ....$$$$$$$$$$$$$$$",
"%$$$$$$$$$$$$$$....@@@@@@@@@@++++++++oo      ....$$$$$$$$$$$$$$$",
"%$$$$$$$$$$$$$$$$$$..++########++oo          OOOO....$$$$$$$$$$$",
"%$$$$$$$$$$$$$$$$$$..++########++oo          OOOO....$$$$$$$$$$$",
"%$$$$$$$$$$$$$$..OO    ####OO##            ooOOOOOOOO..$$$$$$$$$",
"%$$$$$$$$$$$$$$..OO    ####OO##            ooOOOOOOOO..$$$$$$$$$",
"%$$$$$$$$$$$$..ooOOOOoo  ####    oo..    ooooooOOOOoooo..$$$$$$$",
"%$$$$$$$$$$$$..ooOOOOoo  ####    oo..    ooooooOOOOoooo..$$$$$$$",
"%$$$$$$$$$$  oooooooooo..    oooooooo    oooooooooooo..  $$$$$$$",
"%$$$$$$$$$$  oooooooooo..    oooooooo    oooooooooooo..  $$$$$$$",
"%$$$$$$$$$$  oooooooo....OOOOOOoooooo..  ..oooooo..      $$$$$$$",
"%$$$$$$$$$$  oooooooo....OOOOOOoooooo..  ..oooooo..      $$$$$$$",
"%$$$$$$$$$$$$      ..OO  OOOOOOOOoooooooo  ....++OO    $$$$$$$$$",
"%$$$$$$$$$$$$      ..OO  OOOOOOOOoooooooo  ....++OO    $$$$$$$$$",
"%$$$$$$$$$$$$$$$$  OOOO  oo....ooOOoooooo  ++++++  $$$$$$$$$$$$$",
"%$$$$$$$$$$$$$$$$  OOOO  oo....ooOOoooooo  ++++++  $$$$$$$$$$$$$",
"%$$$$$$$$$$$$$$$$  OO..++@@@@@@@@..oo....OO++++  $$$$$$$$$$$$$$$",
"%$$$$$$$$$$$$$$$$  OO..++@@@@@@@@..oo....OO++++  $$$$$$$$$$$$$$$",
"%$$$$$$$$$$$$$$    ..######@@@@@@@@..@@@@....OO          $$$$$$$",
"%$$$$$$$$$$$$$$    ..######@@@@@@@@..@@@@....OO          $$$$$$$",
"%$$$$$$$$$$$$..++++OO@@####@@@@@@..@@@@@@@@@@  ++++++++++..    $",
"%$$$$$$$$$$$$..++++OO@@####@@@@@@..@@@@@@@@@@  ++++++++++..    $",
"%$$$$$$$$$$..++++  @@@@@@@@@@@@OOOO@@@@@@@@@@++  ++++++++++++++.",
"%$$$$$$$$$$..++++  @@@@@@@@@@@@OOOO@@@@@@@@@@++  ++++++++++++++.",
"%$$$$$$  ..++++OO  ++@@@@@@++OO..@@@@@@@@@@..    ++++++++++@@@@@",
"%$$$$$$  ..++++OO  ++@@@@@@++OO..@@@@@@@@@@..    ++++++++++@@@@@",
"%XX    ++++++....  ++++++++..OO@@@@@@@@..OO@@@@..  ++++++++@@@@@",
"%XX    ++++++....  ++++++++..OO@@@@@@@@..OO@@@@..  ++++++++@@@@@",
"X@@@@++......++OO  OO++++..@@@@@@@@@@..@@@@@@@@@@@@  ++++++++@@@",
"X@@@@++......++OO  OO++++..@@@@@@@@@@..@@@@@@@@@@@@  ++++++++@@@",
"@@@@@@@++..++++++    OO....@@@@@@@@++OO@@@@@@@@@@@@++  ++++++++@",
"@@@@@@@++..++++++    OO....@@@@@@@@++OO@@@@@@@@@@@@++  ++++++++@",
"@++++@@++..OO++++..  ..++OO++@@++++  ++@@@@......++++  +++++++++",
"@++++@@++..OO++++..  ..++OO++@@++++  ++@@@@......++++  +++++++++",
"+++++++++..      OO..++++OOOOOO++  ++++....@@@@@@....++    +++++",
"+++++++++..      OO..++++OOOOOO++  ++++....@@@@@@....++    +++++",
"+++++++++  $$$$$$  ..++    ++    ......@@@@@@@@@@@@@@..  $$     ",
"+++++++++  $$$$$$  ..++    ++    ......@@@@@@@@@@@@@@..  $$     ",
"+++XXXXXX$$$$$$$$$$..  $$$$  @@@@@@@@@@@@@@@@++OO++@@@@..$$$$$$$",
"+++XXXXXX$$$$$$$$$$..  $$$$  @@@@@@@@@@@@@@@@++OO++@@@@..$$$$$$$",
"   $$$$$$$$$$$$$$$$$$$$$$$$  OO@@@@@@@@@@++++++OO++++@@@@..$$$$$"
};
