/* XPM */
static char *result[] = {
/* columns rows colors chars-per-pixel */
"64 64 173 2 ",
"   c #000000",
".  c #000906",
"X  c #02030B",
"o  c #010C0A",
"O  c #0B0B0B",
"+  c #050314",
"@  c #05041C",
"#  c #09041B",
"$  c #060E15",
"%  c #081217",
"&  c #131313",
"*  c #141C1C",
"=  c #1C1C1C",
"-  c #050722",
";  c #090726",
":  c #060A23",
">  c #0E062C",
",  c #0B1326",
"<  c #151A2C",
"1  c #131626",
"2  c #0D0A32",
"3  c #110C3B",
"4  c #12113F",
"5  c #151D31",
"6  c #19212E",
"7  c #232323",
"8  c #2C2C2C",
"9  c #223233",
"0  c #343434",
"q  c #3C3C3C",
"w  c #170946",
"e  c #16164B",
"r  c #1B134E",
"t  c #1B1556",
"y  c #261659",
"u  c #1D2443",
"i  c #1F2957",
"p  c #202040",
"a  c #24344A",
"s  c #25205D",
"d  c #28335D",
"f  c #1E1C67",
"g  c #2A1D7E",
"h  c #1F2D6B",
"j  c #1D386B",
"k  c #212968",
"l  c #2C2C68",
"z  c #3A2266",
"x  c #2B2E79",
"c  c #2F3F7C",
"v  c #432D6E",
"b  c #48306B",
"n  c #42316C",
"m  c #33474B",
"M  c #385151",
"N  c #2E4064",
"B  c #3E4F67",
"V  c #37566A",
"C  c #444444",
"Z  c #4C4C4C",
"A  c #535353",
"S  c #5B5B5B",
"D  c #425264",
"F  c #4E656A",
"G  c #4D7070",
"H  c #646464",
"J  c #6C6C6C",
"K  c #747474",
"L  c #7B7B7B",
"P  c #262386",
"I  c #2E3787",
"U  c #382191",
"Y  c #3C219F",
"T  c #4130B5",
"R  c #3E4B83",
"E  c #3F4F9E",
"W  c #344393",
"Q  c #3A50A8",
"!  c #414C9E",
"~  c #4E6D88",
"^  c #4F7B8D",
"/  c #596298",
"(  c #5C7787",
")  c #4250A5",
"_  c #485AB8",
"`  c #5E7EA3",
"'  c #4464BA",
"]  c #7077BB",
"[  c #413DC2",
"{  c #4D56C6",
"}  c #5E54D1",
"|  c #4946C5",
" . c #6253CE",
".. c #586DC1",
"X. c #697ED7",
"o. c #5C67E2",
"O. c #6879F5",
"+. c #9067BD",
"@. c #815CC8",
"#. c #986EC5",
"$. c #AD6FC1",
"%. c #6C9191",
"&. c #758A8A",
"*. c #5B82A9",
"=. c #5A8BB9",
"-. c #6FA7AC",
";. c #79A6B5",
":. c #719EC4",
">. c #7792DB",
",. c #7B98EC",
"<. c #6B8DFB",
"1. c #7481F7",
"2. c #7897F8",
"3. c #77AAEA",
"4. c #7AA2FB",
"5. c #78B6FE",
"6. c #848484",
"7. c #8C8C8C",
"8. c #939393",
"9. c #9B9B9B",
"0. c #86A7A7",
"q. c #8AAEAE",
"w. c #8AA9BE",
"e. c #91B8B8",
"r. c #94A6A7",
"t. c #A4A4A4",
"y. c #ACACAC",
"u. c gray70",
"i. c #BCBCBC",
"p. c #8EBEDB",
"a. c #999BF5",
"s. c #86ABEC",
"d. c #91BEED",
"f. c #AEACF2",
"g. c #D1AAEE",
"h. c #EEB8F1",
"j. c #8DC5C5",
"k. c #A8C1C1",
"l. c #A6D7D7",
"z. c #B7DFDF",
"x. c #B6D6D6",
"c. c #BBC7C7",
"v. c #87CBFF",
"b. c #9CCFFF",
"n. c #8FDCFD",
"m. c #96DDFF",
"M. c #89C9E5",
"N. c #A1DDED",
"B. c #9FE6FD",
"V. c #A4ECFF",
"C. c #AFFCFC",
"Z. c #B1F6FB",
"A. c #BCFFFF",
"S. c #B7F4FC",
"D. c gray77",
"F. c #CBCBCB",
"G. c #D4D4D4",
"H. c #DCDCDC",
"J. c #CBD9D9",
"K. c #C9EDED",
"L. c #C7FFFF",
"P. c #CBFEFE",
"I. c #D3FBFE",
"U. c #DAFFFF",
"Y. c #DAF4F4",
"T. c #E3E3E3",
"R. c #ECECEC",
"E. c #E3ECFE",
"W. c #E2FCFC",
"Q. c #EDFEFE",
"!. c #F3F3F3",
"~. c #F5FCFC",
"^. c #FEFEFE",
/* pixels */
"                                                                                                                                ",
"                                                                                                                                ",
"                                                                                                                                ",
"                                                                                                                                ",
"                                                  .   O O   O O O   O   .                                                       ",
"                                            O & = 7 8 8 8 0 0 8 8 8 8 8 7 7 = & O O                                             ",
"                                        O & 8 q Z S J J K L L L K K J J H H A Z 0 7 & .                                         ",
"                                      O = 0 Z J 6.9.u.i.D.F.D.D.D.i.u.u.u.t.9.8.K S q 7 O                                       ",
"                                      & 8 Z K 8.u.F.H.R.!.!.!.R.R.R.R.H.T.H.G.F.u.8.H C 7 O                                     ",
"                                    O = 0 S 6.t.F.H.!.!.^.^.^.^.^.^.^.^.^.~.!.R.G.u.6.H 0 = .                                   ",
"                                    O = q H 8.u.F.T.!.^.^.^.^.^.^.^.^.^.^.^.^.!.R.F.t.K Z 7 O                                   ",
"                                    & 7 Z J 8.u.F.T.!.~.^.^.^.^.^.^.^.^.^.^.^.~.R.G.u.6.S 0 & O                                 ",
"                                    & 8 Z K 9.u.G.H.!.^.^.^.^.^.^.^.^.^.^.^.^.^.!.H.i.8.J q = O                                 ",
"                                  O = 0 A L 9.u.G.R.!.!.^.^.^.^.^.^.^.^.^.^.^.^.!.R.D.t.L Z 7 &                                 ",
"                                  O = 0 S L t.i.G.T.!.^.^.^.^.^.^.^.^.^.^.^.^.^.!.R.F.u.6.A 8 & .                               ",
"                                  & 7 q H 6.t.i.G.R.!.^.^.^.^.^.^.^.^.^.^.^.^.^.^.R.G.u.7.H q &                                 ",
"                                O & 8 C H 7.t.D.H.R.!.^.^.^.^.^.^.^.^.^.^.^.^.^.!.R.G.i.8.J q 7 O                               ",
"                                O = 8 Z J 7.y.D.H.R.^.^.^.^.^.^.^.^.^.^.^.^.^.^.!.R.H.i.9.J C 7 O                               ",
"                                O = 0 A J 8.y.F.H.!.!.^.^.^.^.^.^.^.^.^.^.^.^.^.!.R.H.i.9.K Z 8 &                               ",
"                              . & = q A K 9.u.F.T.R.^.^.^.^.^.^.^.^.^.^.^.^.^.!.!.R.G.i.9.L A 8 & O                             ",
"                                & 7 q S L 9.u.G.T.!.^.^.^.^.^.^.^.^.^.^.^.^.^.^.!.R.G.i.9.L S 0 = O                             ",
"                              O = 8 C H 6.t.i.G.R.!.^.^.^.^.^.^.^.^.^.^.^.^.^.^.!.R.G.i.9.+.S q = O                             ",
"                              & = 8 C H 6.t.i.G.R.!.^.^.^.^.^.^.^.^.^.^.^.^.^.^.!.T.G.D.t.6.H C 7 &                             ",
"                              O = 8 Z H 7.t.D.H.R.~.^.^.^.^.^.^.^.^.^.^.^.^.^.^.!.R.H.i.t.7.H C 8 & O                           ",
"                            . & = 0 Z J 7.t.D.H.R.^.^.^.^.^.^.^.^.^.^.^.^.^.^.^.!.R.H.D.t.7.J Z 0 & O                           ",
"                              & = 0 Z J 7.y.D.H.R.!.^.^.^.^.^.^.^.^.^.^.^.^.^.^.^.R.H.D.y.7.J Z 0 = &                           ",
"                              & 7 0 Z J 7.y.D.H.R.^.^.^.^.^.^.^.^.^.^.^.^.^.^.^.^.R.T.D.y.8.J A 0 = O                           ",
"                            O & = 0 A K 8.y.D.T.R.!.^.^.^.^.^.^.^.^.^.^.^.^.^.^.!.!.H.D.y.8.K A q 7 & O                         ",
"                              & 7 0 A K 8.y.D.H.R.^.^.^.^.^.^.^.^.^.^.^.^.^.^.^.!.!.T.F.u.8.K A q 7 & O                         ",
"                            O & 7 q A J 8.y.F.H.R.~.^.^.^.^.^.^.^.^.^.^.^.^.^.^.^.!.T.F.u.8.L A 0 7 & O .                       ",
"                            O & 7 q S K 8.u.F.T.!.!.^.^.^.^.^.^.^.^.^.^.^.^.^.^.^.R.T.F.u.9.K S q 7 & .                         ",
"                          . O & 7 q S L 9.u.F.T.!.^.^.^.^.^.^.^.^.^.^.^.^.^.^.^.^.!.T.F.u.8.L S q 7 & O                         ",
"                            O & 8 q S L 9.u.G.T.!.~.^.^.^.^.^.^.^.^.^.^.^.^.^.^.^.R.T.F.u.9.L S q 7 & O                         ",
"                            O = 8 C H 6.t.i.G.T.!.^.^.^.^.^.^.^.^.^.^.^.^.^.^.^.^.!.T.F.u.9.L A q 7 & O O                       ",
"                          O O & 8 C H 6.t.i.G.T.!.^.^.^.^.^.^.^.^.^.^.^.^.^.^.^.!.!.R.F.u.9.K S q 7 & O                         ",
"                            & = 0 C H 6.t.D.H.R.~.^.^.^.^.^.^.^.^.^.^.^.^.^.^.^.^.!.H.F.u.8.K S q 7 & O                         ",
"                          O O = 0 Z H 7.t.D.H.R.!.^.^.^.^.^.^.^.^.^.^.^.^.^.^.^.^.R.T.F.u.8.K A q 7 & O                         ",
"                            O = 0 C J 7.y.D.H.R.^.^.^.^.^.^.^.^.^.^.^.^.^.^.^.^.~.!.H.F.u.8.K A q = &                           ",
"                          O & = 0 Z J 7.y.D.H.!.~.^.^.^.^.^.^.^.^.^.^.^.^.^.^.^.^.R.H.F.y.8.J A 0 7 & O                         ",
"                            & = 0 A J 7.y.D.H.R.~.^.^.^.^.^.^.^.^.^.^.^.^.^.^.^.!.R.H.D.t.7.J Z 0 = O                           ",
"                          . O = 0 Z J 8.y.F.H.R.^.^.^.^.^.^.^.^.^.^.^.^.^.^.^.^.!.R.G.D.t.7.J Z 0 = O O                         ",
"                            & 7 0 A J 8.y.F.H.!.!.^.^.^.^.^.^.^.^.^.^.^.^.^.^.^.!.R.G.i.t.6.H C 8 & O                           ",
"                          O & = 0 A J 8.y.D.T.!.~.^.^.^.^.^.^.^.^.^.^.^.^.^.^.^.!.T.G.i.9.L H C 8 = O                           ",
"                        O   & = q A J 8.y.F.T.R.^.^.^.^.^.^.^.^.^.^.^.^.^.^.^.~.!.T.F.u.9.L S q 7 & O .                         ",
"                          O & = q A J 8.u.F.T.!.~.^.^.^.^.^.^.^.^.^.^.^.^.^.^.^.!.T.F.u.8.L S q 8 & O                           ",
"                            & 7 0 A J 7.y.F.T.R.^.^.^.^.^.^.^.^.^.^.^.^.^.^.^.!.!.H.F.u.8.K A q 7 & O                           ",
"                          O & = 0 Z J 8.y.D.H.R.!.^.^.^.^.^.^.^.^.^.^.^.^.^.^.~.R.H.F.y.8.J A q 7 & O                           ",
"                            O = 0 Z H 7.t.D.H.R.~.^.^.^.^.^.^.^.^.^.^.^.^.^.^.~.!.H.D.u.8.K A 0 7 & .                           ",
"                          . O = 8 C H 6.t.i.G.R.!.^.^.^.^.^.^.^.^.^.^.^.^.^.^.~.!.H.F.y.7.K A 0 = &                             ",
"                            O & 8 C H L 9.i.G.T.!.~.^.^.^.^.^.^.^.^.^.^.^.^.^.^.R.H.D.y.7.J A 0 7 & O                           ",
"                          O   & 7 q S L 9.u.F.T.!.!.^.^.^.^.^.^.^.^.^.^.^.^.^.!.R.H.F.y.7.K A 0 7 O                             ",
"                              & 7 q A K 8.u.F.T.!.~.^.^.^.^.^.^.^.^.^.^.^.^.^.^.!.H.D.y.7.J Z 0 = & O                           ",
"                              O * 9 M G %.q.c.H.R.!.^.^.^.^.^.^.^.^.^.^.^.^.^.!.R.H.c.y.7.J Z 8 = & .                           ",
"                              X % < a V ^ -.j.l.K.W.Q.~.^.^.^.^.^.^.^.^.^.^.^.~.R.H.i.y.&.F m 9 = O                             ",
"                                X , p j ~ ` :.p.N.Z.U.~.^.^.^.^.^.^.^.^.^.^.^.!.!.J.k.0.K V a 6 * O                             ",
"                                . @ 6 i c Q ..>.d.S.P.A.L.U.~.^.^.^.^.W.A.C.I.Y.R.x.e.` ! l p < & X                             ",
"                                  X @ 4 h W _ >.,.2.5.v.m.V.b.S.I.E.^.Z.V.n.Z.K.T.l.=.E x s 5 < +                               ",
"                                    X - w x ! { o.O.O.<.s.2.1.a.f.h.g.s.3.3.M.z.G.w.Q P f w 2 @ X X                             ",
"                                      X @ 2 t g U Y T | [ }  .@.#.$.+.X.' =.;.r.r./ I f w w - + X                               ",
"                                          X @ > w y y r t t y z v b z l h j V V D d e 4 2 : + .                                 ",
"                                              X X X $ $ % % + + # # @ @ @ , , , , - - @ + X X                                   ",
"                                                    . . . . . .               X   X   X X                                       ",
"                                                        . . . o o o                                                             ",
"                                                          . . . o o .                                                           "
};
