/* XPM */
static char *result[] = {
/* columns rows colors chars-per-pixel */
"64 64 5 1 ",
"  c black",
". c #0C9C06",
"X c #0CC005",
"o c #A0EB14",
"O c #F0F9B6",
/* pixels */
"                                                                ",
"                                                                ",
"                                                                ",
"                                                                ",
"                                                                ",
"                                                                ",
"                                                                ",
"                                                                ",
"                                                                ",
"                  .                                             ",
"                            ...                                 ",
"                           ..XX.                                ",
"                          ..XooX.                               ",
"                          ..XoOo.                               ",
"                         ..XoO.Xo. ..                           ",
"                         ..Xo.X.o. ..                           ",
"                         ..X.XXX..    .                         ",
"                        ..XX.XXX.o.                             ",
"                        ..X.XXXXX..                             ",
"                        ..o.XXoXX..                             ",
"                        ..o.XoooX..                             ",
"                        ..o.XoXXo..                             ",
"                        ..o.OX..XX.                             ",
"                       ..o.OX.XX.oX.                            ",
"          .            ..o.OX.XX.oX.                            ",
"                       ..o.O.XXXX.o.                            ",
"                       ..o.X.XooX.o.                            ",
"                       ..o.X.XOoo.o.                            ",
"                       ..X.X.OoXo.O.                            ",
"                       ..X.X.OXXX.O.                            ",
"                       ..X.X.oX.XX..                            ",
"                       ..X.X.o.X.X..                            ",
"                       ..X.X.o.X.X..                            ",
"                       ..X.o.X.o.X..                            ",
"              .        ..X.o.X.o.o..                            ",
"                       ..o.o.XXo.o..                            ",
"                       ..o.oo.oo.o..                            ",
"                       ..o.oo.o.XX..                            ",
"                       ..oo.o.X.X.X.                            ",
"                        ..o.o.X.o..                             ",
"                        ..o.X.X.O..                             ",
"                        ..O.XO.XO..                             ",
"                        ..O.XoOOo..                             ",
"                        ..XO.XoX.X.                             ",
"                        ..Xo.XXX.X.                             ",
"                         ..oo.X.X.                              ",
"                         ..Xoo.Xo.                              ",
"                         ..XXXXoO.                              ",
"                          ..XXoO.                               ",
"                      o   ..XXXX.                               ",
"                   O       ..XX.                                ",
"                            ...                                 ",
"                                                                ",
"                                                                ",
"                                                                ",
"                                                                ",
"                                                                ",
"                                                                ",
"                                                                ",
"                                                                ",
"                                                                ",
"                                                                ",
"                                                                ",
"                                                                "
};
