/* XPM */
static char *result[] = {
/* columns rows colors chars-per-pixel */
"64 64 8 1 ",
"  c #0D2B45",
". c #203C56",
"X c #544E68",
"o c #8D697A",
"O c #D08159",
"+ c #FFAA5E",
"@ c #FFD4A3",
"# c #FFECD6",
/* pixels */
"+#+++++++@@OoXX.XoOOo+@@@@@+++++++++++++++++++++++++++++++++#+o@",
"##@@@@@@#@@@oo..oOO##################@##@@@@@@@@@@####@@@@@@##+#",
"@@#######@@@ooXXo@#@@@@@@@@@@@##############@@@#############@@+@",
"@@@##@##@@@@OooXo@#@@@@@@@@@@@++@++@@@@@@@@@@@@@+++++++@@##@@@+@",
"#@@@#@@@@@@@@oXoo@@#@@@@@@@@@@@@@@@@@@@@@@@@@@@@@@@+@+@@@#@@@#+@",
"#@@@@#@@@@@+@oooo@@#@@@@@@@@@@#@@@@@###########@@@@@@@@##@@@@#+@",
"@@@@#####+++@oooo@+#######+++++#####+++++++++++###########@@@@+#",
"#@@@#++++++@@oXoo@@#+++++++++++++++++++++++++++++++++++++#@@@#++",
"#@@@#++++++@@ooXo@@#+++++++++++++++++++++++++++++++++++++#@@@#++",
"#@@@#+++++++@oo.o+@#+++++++++++++++++++++++++++++++++++++#@@@#++",
"#@@@#+++++++@oo.o+@#+++++++++++++++++++++++++++++++++++++#@@@#++",
"@@@++++++++@@ooXo@@++++++++++++++++++++++++O+++++++++++++++@@@++",
"@@@@+++++++@@ooXo@#++O+++++++++++++++++++OO@++++++++++++++@@@@++",
"#@@@#++++++@@oXoo@#+++O+++++++++++++++++@@+++++++++++++++#@@@#++",
"#@@#+#+++O@@Ooooo@OOOOOOO+++++++OOOOO++++++++++OOOOOO+++#+#@@@+O",
"O###OOOOOOO@ooXoooOOOOOO+OOOOOOOOOOOOOOOOOOOOOOOOOOOOOOOOO####@O",
"oOOOOOOOOooooo.oooOOooOOOOoOOOOooOoOOOoOOooooOOOoooOoOOOOOOOO#oO",
"ooooooooooooooXoooooooooooooooXXXXXooXoooooooooooooooooooooooooo",
"oooooooooooooooXXXXXXXXXXXXXXXXXXXXXXoXoooooooooooooooooooooooXo",
"XooooooooooooooXXXXXXXXXXo... XooXXoooXXoooooooooooooooooooooXXX",
"oXXoooooooooXooXXXXXXXXXXXX.. XXXXXXoooXXXXXXXoooooooooooooXXoXX",
"oXXXXoooX+++++++++++++++oXoo XXoO+++++++++++oXo++++ooXoooXXXXooo",
"@#@@@@@@@X++O+O++O+++++++ooo XoO+++++OOO++++++@@@@@@@@@@@@@@@@o+",
"#@#@@@@@##@@@@@@@OOO+O++++Xo.XO+O++OOOOOOOOOOOOOOOOOO@@@@@@@@@O+",
"#++@##OOOOOOOOOOOOOOOOOO+OX.oXO+OOOOOOOOOOOOOOOOOOOOOOOO@@@+++OO",
"#++++OOOOOOOOOOOOOOOOOOOO+X.XX+OOOOOOOOOOOOOOOOOOOOOOOOOO@+++@OO",
"+++++#OOOOOOOOOOOOOOOOOOO+X.XX+OOOOOOOOOOOOOOOOOOOOOOOOO+++@++OO",
"#++++#OOOOOOOOOOOOOOOOOO++XXXX+OOOOOOOOOOoOOOOOOOOOOOOOO+++++@OO",
"@++++@OOOOO+oOOOOOOOOOOO++XXXX+OOOOoOOOOO+OOOOOOOOOOOOOO@++++@OO",
"@+O@+@OOOOOOOOOOOOOOOOOOO+XXXX+OOOO+oOOOOOOOOOOOOOOOOOOO@++++@OO",
"+++++@OOOOOOOOOOOOOOOOOO++XXXX++OOOO+OOOOOOOOOOOOOOOOOOO@+++++OO",
"@++++@OOOOOOOOOOOOOoOOOOO+XXXX+OOOOOOOOOOOOOOOOOOoOOOOOO@++++@OO",
"@++++#OOOOOOOOOOOO+oOOOOO+XoXX+OOOOOOOOOOOOOOOOO+oOOOOOO@++++@OO",
"@++++#OOOOOOOOOOOOOOOOOO++XoXX++OOOOOOOOOOOOOOOO+OOOOOOO+++++@OO",
"++@@O++@@++++OOOOOOOooOO++XXXX++OOoOOOOOOOOOOOOOOOOooOOO+O@@++OO",
"+OooooOoO+OOOOOOOOooooooo+XXXX+ooooOOOOOOoOOOOoooooooooOooooO+OO",
"oOOooooooOooooooOooooooooXXXXXoooooooooooooooooooooooooooooooooo",
"XXX...OOooooooooooooooooXXXXXX....ooooo..ooooooooooooooo...XXXXX",
".XXXXXXXXXXXXXXXXXXXXXX.XXXXXXXXXXX.XX..XX......XXXXXXXXXXXXX..X",
"o.oooXXXXXXXXXXXXXXXXXXXXXXXXXXXXXXXXXX.....XXXXXXXXXXXXoooooo.X",
"XXoXXooXXXXXXXXXXXXXXXXXXXX....XXXXXX.....XXXXXXXXXXXXXXooo.o..X",
"oooooXX...................................XXX....XXXXX..Xo.o..o.",
"++oX+++++++++++++OOOOOOooooOX.XoooooooXXXX.XXXXXXXXXXXXXXooooooO",
"OO@+++++++++++OOOooooooooooooooooooooooXXXX.oo++++++++++++++@oOO",
"@OOOoO@@@OOOOOOOOOOOOOOOOOOOOOOOOOOOOO+++XX.oo++++++++++@@@@+OOo",
"O+++@+OOOOOOOOOOOOOOOOOOOOOOOOOOOOOOOO++++X.oo+++++++++@+++++OOo",
"+++++OOOOOOOOOOOOOOOOOOOOOOOOOOOOOOOOOOO@+X.oo++++OOOOO++++++@Oo",
"++++OOOOOOOOOOOOOOOOOOOOOOOOOOOOOOOOOOOO@+X.oo++OOOOOOO++++++@Oo",
"++++@OOOOOOOOOOOOOOOOOOOOOOOOOOOOOOOOOOO++X.oo++OOOOOOO@+++++@Oo",
"O+++OOOOOOOOXXOOOOOOOOOOOOOOOOOOOOXOOOOO++XX.o++OOoOOOO@+++++@Oo",
"+O++@OOOOOOOXXOOOOOOOOOOOOOOOOOOOOXOXOOO++XXoo++OO+OOOO++++++@Oo",
"++++@OOOOOOOOXXXOOOOOOOOOOOOOOOOOOOOOOOO++XXoo++OOOOOOOo+++++@Oo",
"@++++OOOOOOOO+OXX.OOOOOOOOOOOOOOOOOOOOOO++X.oo++OOOOO+OooO+++@Oo",
"#++++OOOOOOOOOOOOOOOOOOOOOOOOOOOOOOOOOOO++X.oo++OOOOOOO+@@+++@Oo",
"@+++@OOOOOOOOOOOOOOOOOOOOOOOOOOOOOOOOOOO++X.oOOOOOOOOOO@+++++OOo",
"@++o@OOOOOOOOOOOOOOOOOOOOOOOOOOOOOOOOOOO++X.o@OOO@OOOOO@+++++@Oo",
"#++O@++OOOOOOOOOOOOOOOO+OOOOOOOOOOOOOOOO++X.oo@@@+OOOOO++++++@Oo",
"O++++@oXOOOOOOooOooXOOOOOOOOOOXXXOXXXXOO@+XXoo++OOOOOOO+O++++@OX",
"++OO@O++++++++++++@@+OOOOO++OOOooOOOO+XoOOX.oOoooooooooo++++@Oo.",
"@++@XO+O++++@@+OOOO+OOOOO++OOoO++++++++++X..XXo+#O++++oooo@+@oX.",
"++@+O++++++OOOOOOOOOOOOOOOOO++++++++++O+O@X..O+@O++++++++++o+o. ",
"o@@++++@#+OOOOOOOOOOOOOOOOO++++++++++++OO+...O#OO++++++++++@XX. ",
"o@@@+++@++++++++++OOOO+++++OOO+++++++++++O..XXo++X++++++++@XXX. ",
"XXXXXXXXXXXXXXXXXXXXXXXXXXXXXXXXXXXXXXXXXXXXX....X.XXXXX....XXX "
};
