/* XPM */
static char *result[] = {
/* columns rows colors chars-per-pixel */
"64 64 72 1 ",
"  c #1D0203",
". c #200404",
"X c #230B0A",
"o c #290F11",
"O c #261215",
"+ c #2B1214",
"@ c #2C1619",
"# c #2D181A",
"$ c #301416",
"% c #33161A",
"& c #35191C",
"* c #3A1B1E",
"= c #351E21",
"- c #3C1E21",
"; c #3E2124",
": c #421E21",
"> c #442224",
", c #4C2426",
"< c #4C2827",
"1 c #442628",
"2 c #4D2A2A",
"3 c #532C2A",
"4 c #592E2D",
"5 c #57312E",
"6 c #5A322F",
"7 c #563734",
"8 c #5D3431",
"9 c #5E3934",
"0 c #63342F",
"q c #643631",
"w c #683730",
"e c #653934",
"r c #6C3C34",
"t c #6C3F38",
"y c #703F36",
"u c #6F4037",
"i c #6E423A",
"p c #704036",
"a c #72443B",
"s c #79463C",
"d c #75493E",
"f c #7A4A3E",
"g c #764B41",
"h c #7B4D41",
"j c #7E5144",
"k c #7E564A",
"l c #814E42",
"z c #835345",
"x c #895647",
"c c #895847",
"v c #855648",
"b c #8A5748",
"n c #86594B",
"m c #8B5B4C",
"M c #905E4E",
"N c #875F50",
"B c #8E5F50",
"V c #905F50",
"C c #8E604F",
"Z c #92604F",
"A c #876251",
"S c #8D6251",
"D c #8D6A5A",
"F c #936352",
"G c #9A6654",
"H c #976857",
"J c #9D6956",
"K c #9B6A58",
"L c #A06A57",
"P c #A36D5A",
"I c #A5715E",
"U c #A47B65",
/* pixels */
"JKPPHSSFmCCSSSSFCZSFCmCCZSFFFJLJJJGJGGGGJPJPJPPIPPPIIUUUUIIPJJGL",
"jjjggiggddgddjfddddddiaiaaaddiddddddfffffffffffddddfaadaadpffzfz",
"eiiggiigaiiiiadddiidiiddpaupuuuuuuuuuuuurwwrppppppppppuppdappppp",
"giggggggggdddddidiiidddddaadaaudpuupuuuurrrrupuappaaaapdappapdpp",
"gggjgjgjhhhfgfgffddddddddaddddfjffffuaappaaapappppfafffffffffffd",
"gggkjkkjjjkjkjjkjjjjhzhffdfffdffkkffddfdffffffjffdffffffkfffffff",
"gggjjgjjkhkkjjjznzvvvjzvcAzzzzzkffffAfffjfjfzznxCczzAczffAzfcfzz",
"778eetiiiiiidddfsddsffhfjffkfkffffapdaddaafdfdllzzzzfzcczczzczzA",
"qerggjjjvkzzzzzzzzzjzzzfjfffffffffffffdffffffffflffllfffzzzzzzlz",
"gggkvnvvnnmnnbnbncnxnzcnmmcncznzAffAzffffzffflzzlzxcczzfffflflfl",
"ghhkvvvvnnbnnnbnmmmmMmcmmnnzncnzzAczzzllzfzzzcncczcmccccczzfzfll",
"gghhjghlzzzzzzzbcmmmncnnczvzjzjjffcfzzkzzzkzzznmmmcnccAccczcczzc",
"vnvvvvzvmnnbmnmxmmmCZFFGFFFHCFFFJHSCCcCSZZCCcCCZCCcmzzzzfccfzlzz",
"mnvnnmmNmMmnmVFFZCZFFGHFGFFHZZSZSHZSCCcCCCCCCcmZCZCZZcCcCcAcCAAC",
"ghhjjjzzzzzvvvzzvkvjvvzjvvvjkzjjffAczczzczncccnccmCmCCCcAACAcCcC",
"89etaaghhhjjzvvvzvnvnvnzvznnnmmmCcczCcczccCcmnmmmnmZCCCACCCCCFHF",
"BBBVVVVVVGVVKGGHGGLGFFHHFSSCCMFFHHCACZZZcCZcccccCccnCfSSCZCCcASS",
"BBmmBVVHKVLLVLGGGLJHFJGJJFJFFFCCCFFCcZZcccccCcccccmnfzczzAASFFSS",
"BBBBVVVKLLVVGGGVGLHVFGFBmmmmmmmzcccccjzlfczzzffffllzfAzffkflfffc",
"BBBmVBBVVKVVVVVBFVBmFMmnmmcnnmmmcjcccccccfzlcclcczzzzCCAFCSCCCcc",
"VVBBBBBBBBBmVBvvCmzzvvzzccncllzljflzzfzlfllccccccccnAcCCCCFZFSSS",
"kkjkzjhhzhhjvhvvzzzzzzzzzlfzlllljzllzlffffffflfzcccCCcSCCSSASSSS",
"899tiiggghjjvvvvcnnnmxznczzzcflzzjflfllfflllffcffcflzCCCCCCccccA",
"kvvnmnmBBBBvmmmvmnnmmzxmzcnzcczzccfzlfflffllcjffzfflffffAfAfcczc",
"kvnnnBnnVVnvnmmvmnzmnnvnznmzvvzzccjccfckjccccjcjjjjhjjfjfffffkkj",
"hvknvBNVVVVvNBBvmmnmnvvvzvMnvmmvcccCcjccjjjjfjjjjhjjdjhdffffffdd",
"gkknNnBBBBVvBBBnnmvSBvznvzbnznvncCjcCccAjccjkjjjkjjjjjjjffjfhjjj",
"iaggjkkknvvggkhgghddgggdhggghhhghhhhffjfjjjjjjfjhhhddjdjffkfjjjk",
"9ttiiggggagiaaigagiagdiadgdddgddddpdaaddaddddhddddddddddddddfjjj",
"gggggggggggggghhdgddggddaddddddddadddaaappaappppddpdididdddadddd",
"kgggggkgkgggggggdgdgdddaaaddaaadddpdpdaapppppppppppdududddaaaapa",
"kkkkkkkNnNNnvlvvvhljhhhfhgssdsdsfadfddddddddddppppppppuippdddddd",
"errettatiititttapaiiiiiiiittttttpuuuurrwwweewweeqqwwwewq98988q9e",
"eweewreeqq88q88667537333655652,<1-;;->>>;-;==--&-::>:-;;;;;>1;1>",
"@@###@#######@@@#@OO   XO@@O%-:::*-;;;;->>>,<<,2,:::::*:;*%*%@@$",
"99e9e9eetteeretei997= O7gjjszxxzcCCfcjmcnmznNbmnmmmnclxlzzznmvvv",
"MGVGVGGGHHHVKVHVFZJZ3 %sznMcBmmMMMmmmcZZMMMZMmmMMMMGMMGMGGGGFFMG",
"DDSNNNNNNAANNNBDDHLF4 @4trw0wewypspasffffsssfssfasssssslssssssff",
"ddgatatttttgiiiggnLm, &qywwqqwwwwrrwwrwwww0w0wwwwwwwwyryryyryyyy",
"aattryttrtrtiiiianGz: @qe688wrytrpurrrw0www0wwww0wwrwwywryryywyw",
"aaayggsaygtgaaaaikJh- %60666qwreruurrrwwtyrrwyyrwryppppppppppppp",
"yatgtaaagygyaaiaeife+ %0888wwyiadapiyaaaaaayaayssaadsafffffaspas",
"q886444443433,::1,3,o %8q68wtaadaaddaddddshssgfffffffffffffffaaf",
"rrwwtttaagtyiaatiimg* X<,<4qwrtiadiiaytrrtrtyrrypadpaaaafspsaspp",
"fhsdggghhhfhhhgdtjGj% +3442348qrrrtyapadsssfffflfzzzczccccccmccc",
"yyasagtsghsggsgdgkLz&.-0eewrttttddsfzllzzvxzzzxxcmMmZmZZZZZZZcCZ",
"lllhhhlssghhhhgdtkJl& *6aiaaghgzjzhlhzzlzzxzmxmxcczllzzlllllllll",
"llllhlllflfghgggiNLz*.*8ayaghlzvvzznzzzxbmMMMMmMMmcmcZCcCCcCCcCc",
"lllxllllllllllssakGv= -6aidahhllzzzlvbbxnmmVmMmVxmZMZZFGZFFZZFMM",
"xlllxlxlllllssssigFh& -wddsggzzvbmmbbbvzbbbvxbmvnMMMmMFZZMZZMMcm",
"lllsssssssssttq444t7o  *,388eitgaghhhghhhzzzllhlfzllzzzzzzxzzzzx",
"lllllxlxllllkjgatggt% .:,<3468etahghghhghhhhhljhllzzzxzzxznxxncx",
"bbbbbbbbxbbbvvlvvvGm: %4yaidghjvbbmnvvvvvvvzvbmBZZFFMMVVVVmMmMmM",
"MMMbMbbxbxxllvlghhGn1.o4aaddgjjjzvjzvlzjhzvmmmmmmmnmmmmmmmBBMMBm",
"bMMMbxxMbbxvvlglhhGv: $4iaiahjhjvhjjjkzvvvzvvzzzjvvzvzbvzbvnnmmm",
"bMbMMxbbbbvlllsgggKB> %4dtddghjvjzvvbnvvvNBBNvmmCCnmmmmVVVFFVFVV",
"lbbblxvbxlzzhhhaggVB: %0gaaaglllvvvmvvBBVmVnnVmBVMMFFGFFFFFFFFVF",
"lbbbxxlllljjhggiiibh- -qaaiiaggghhlvBBnbmNxvVVBmMMMMmMFMVVVMmMVM",
"ystyrqeeeeq443,:--:-X -egiaiaghghhggghlhhhzzzvvbnnmnbzcnmmVmmnmm",
"ssssssllvjzvkhgsggbv: -raaaiagshvvvhzzzlzlvzvxnbxmmcxnczzzzzlzll",
"lllxbbVVVVVbvvzgggKV:.X,433,,3348ettagsgsghgsggsfffffhsssfssssss",
"slslllsglglhgggsggKV,.o4748qqtrtttttttiiaadaddsdsfshfhhhfhhhhlff",
"sssllgshghgggaisigHH, %qtiiiagghgjzjzzllzjzhhlhzzzzzzhhhfssdfsss",
"systttttttitttttiiHK4 :qiiassgsghjlgghgzjhzlzhhzjhhfhhzzhhhhhjfh"
};
