/* XPM */
static char *result[] = {
/* columns rows colors chars-per-pixel */
"64 64 4 1 ",
"  c #282828",
". c gray19",
"X c #E9E9E9",
"o c white",
/* pixels */
"                                                                ",
"                                                                ",
"                                                                ",
"                                                                ",
"                                                                ",
"                                                                ",
"                                                                ",
"                                                                ",
"                                                                ",
"                                                                ",
"                                                                ",
"                                                                ",
"..................................                              ",
"....................................                            ",
".......................................    .....................",
"................................................................",
"................................................................",
"................................................................",
".......ooooooo.....................................XXXXXXX......",
".......oXXXXXo.....................................XXXXXXX......",
".......oXXXXXo.....................................XXXXXXX......",
".......oXXXXXo.....................................XXXXXXX......",
".......ooooooo.....................................XXXXXXX......",
"................................................................",
"................................................................",
"................................................................",
"................................................................",
"................................................................",
"................................................................",
"................................................................",
"................................................................",
"................................................................",
"................................................................",
"................................................................",
"................................................................",
"................................................................",
"................................................................",
"................................................................",
"................................................................",
"................................................................",
"................................................................",
".......oooooooo....................................XXXXXXX......",
".......oXXXXXXo....................................XXXXXXX......",
".......oXXXXXXo....................................XXXXXXX......",
".......oXXXXXXo....................................XXXXXXX......",
".......oooooooo....................................XXXXXXX......",
"................................................................",
"................................................................",
"................................................................",
"................................................................",
"..........        ................. .    .......................",
"......              ...........                 .............   ",
"....                                                            ",
".                                                               ",
"                                                                ",
"                                                                ",
"                                                                ",
"                                                                ",
"                                                                ",
"                                                                ",
"                                                                ",
"                                                                ",
"                                                                ",
"                                                                "
};
