/* XPM */
static char *result[] = {
/* columns rows colors chars-per-pixel */
"64 64 180 2 ",
"   c #A70000",
".  c #A80000",
"X  c #A90000",
"o  c #AA0000",
"O  c #AB0000",
"+  c #AC0000",
"@  c #AD0000",
"#  c #AF0000",
"$  c #B00000",
"%  c #B30000",
"&  c #B40000",
"*  c #B60000",
"=  c #BD0000",
"-  c #BC2100",
";  c #C20000",
":  c #C40000",
">  c #C50000",
",  c #C60000",
"<  c #C70000",
"1  c #C80000",
"2  c #CA0000",
"3  c #CC0000",
"4  c #DA0000",
"5  c #DC0000",
"6  c #DD0000",
"7  c #DF0000",
"8  c #E10000",
"9  c #E40000",
"0  c #E80000",
"q  c #EC0000",
"w  c #F00000",
"e  c #F20000",
"r  c #F60000",
"t  c #F70000",
"y  c #F90000",
"u  c #FA0000",
"i  c #FD0000",
"p  c red",
"a  c #C83C00",
"s  c #EC2800",
"d  c #F02300",
"f  c #FF2000",
"g  c #FF2100",
"h  c #FF2500",
"j  c #E23C00",
"k  c #FF3000",
"l  c #FF3200",
"z  c #FF3900",
"x  c #D55700",
"c  c #DF5900",
"v  c #FF4900",
"b  c #FD4B00",
"n  c #FF4B00",
"m  c #FF4F00",
"M  c #FF5200",
"N  c #FF5300",
"B  c #FF5500",
"V  c #FF5700",
"C  c #FF5800",
"Z  c #FF5A00",
"A  c #FF5B00",
"S  c #FF5D00",
"D  c #D57D00",
"F  c #FF6000",
"G  c #FF6100",
"H  c #FF6300",
"J  c #FF6400",
"K  c #FF6600",
"L  c #FF6700",
"P  c #FF6800",
"I  c #FF6A00",
"U  c #F86D00",
"Y  c #FF6E00",
"T  c #E67E00",
"R  c #FF7000",
"E  c #FF7200",
"W  c #FF7600",
"Q  c #FF7700",
"!  c #FF7A00",
"~  c #FF7C00",
"^  c #FF7E00",
"/  c #E28B00",
"(  c #FF8100",
")  c #FF8300",
"_  c #FF8500",
"`  c #FD8700",
"'  c #FF8600",
"]  c #FF8800",
"[  c #FF8900",
"{  c #FF8F00",
"}  c #E19B00",
"|  c #FF9100",
" . c #FF9500",
".. c #FF9900",
"X. c #FF9F00",
"o. c #FFA000",
"O. c #FFA100",
"+. c #FFA300",
"@. c #F8A400",
"#. c #FFA400",
"$. c #FFA900",
"%. c #FFAA00",
"&. c #FFAE00",
"*. c #FFB000",
"=. c #FFB200",
"-. c #FFB800",
";. c #FFB900",
":. c #FEBD00",
">. c #FEBE00",
",. c #FEBF00",
"<. c #FDC200",
"1. c #FEC300",
"2. c #FFC400",
"3. c #FEC700",
"4. c #F5CE00",
"5. c #FDC800",
"6. c #FCC900",
"7. c #FEC900",
"8. c #FCCA00",
"9. c #FECB00",
"0. c #FCCC00",
"q. c #FCCE00",
"w. c #E7D300",
"e. c #FBD100",
"r. c #FBD200",
"t. c #FBD400",
"y. c #F9D900",
"u. c #FAD800",
"i. c #FADA00",
"p. c #FCD900",
"a. c #FED800",
"s. c #F8DD00",
"d. c #FADC00",
"f. c #FBDC00",
"g. c #FADD00",
"h. c #F8DF00",
"j. c #FCDD00",
"k. c #F7E500",
"l. c #F7E600",
"z. c #F7E700",
"x. c #F9E300",
"c. c #F8E400",
"v. c #F8E600",
"b. c #FCE500",
"n. c #F7E900",
"m. c #F6EB00",
"M. c #F7EC00",
"N. c #F6ED00",
"B. c #F7ED00",
"V. c #F6EE00",
"C. c #F6EF00",
"Z. c #F8E900",
"A. c #F0F200",
"S. c #F5F000",
"D. c #F5F200",
"F. c #F5F300",
"G. c #F6F300",
"H. c #F5F400",
"J. c #F5F500",
"K. c #F6F400",
"L. c #F6F500",
"P. c #F4F600",
"I. c #F7F600",
"U. c #F4F800",
"Y. c #F4F900",
"T. c #F5F900",
"R. c #F6F800",
"E. c #F4FA00",
"W. c #F5FA00",
"Q. c #F4FB00",
"!. c #F5FB00",
"~. c #F3FC00",
"^. c #F3FE00",
"/. c #F2FF00",
"(. c #F3FF00",
"). c #F4FE00",
"_. c #F4FF00",
"`. c #F7FF00",
"'. c #F8FB00",
"]. c None",
/* pixels */
"].].].].].].].].].].].].].].].].].].].].].].].].].].].].].].].].].].].].].].].].].].].].].].].].].].].].].].].].].].].].].].].].",
"].].].].].].].].].].].].].].].].].].].].].].].].].].].].].].].].].].].].].].].].].].].].].].].].].].].].].].].].].].].].].].].].",
"].].].].].].].].].].].].].].].].].].].].].].].].].].].].].].].].].].].].].].].].].].].].].].].].].].].].].].].].].].].].].].].].",
"].].].].].].].].].].].].].].].].].].].].].].].].].].].].].].].].].].].].].].].].].].].].].].].].].].].].].].].].].].].].].].].].",
"].].].].].].].].].].].].].].].].].].].].].].].].].].].].].].].].].].].].].].].].].].].].].].].].].].].].].].].].].].].].].].].].",
"].].].].].].].].].].].].].].].].].].].].].].].].].].].].].].].].].].].].].].].].].].].].].].].].].].].].].].].].].].].].].].].].",
"].].].].].].].].].].].].].].].].].].].].].].].].].].].].].].].].].].].].].].].].].].].].].].].].].].].].].].].].].].].].].].].].",
"].].].].].].].].].].].].].].].].].].].].].].].].].].].].].].].].].].].].].].].].].].].].].].].].].].].].].].].].].].].].].].].].",
"].].].].].].].].].].].].].].].].].].].].].].].].].].].].].].].].].].].].].].].].].].].].].].].].].].].].].].].].].].].].].].].].",
"].].].].].].].].].].].].].].].].].].].].].].].].].].].].].].].].].].].].].].].].].].].].].].].].].].].].].].].].].].].].].].].].",
"].].].].].].].].].].].].].].].].].].].].].].].].].].].].].].].].].].].].].].].].].].].].].].].].].].].].].].].].].].].].].].].].",
"].].].].].].].].].].].].].].].].].].].].].].].].].].].].].].].].].].].].].].].].].].].].].].].].].].].].].].].].].].].].].].].].",
"].].].].].].].].].].].].].].].].].].].].].].].].].].].].].].].].].].].].].].].].].].].].].].].].].].].].].].].].].].].].].].].].",
"].].].].].].].].].].].].].].].].].].].].].].].].].].].].].].].].].].].].].].].].].].].].].].].].].].].].].].].].].].].].].].].].",
"].].].].].].].].].].].].].].].].].].].].].].].].].].].].].].].].].].].].].].].].].].].].].].].].].].].].].].].].].].].].].].].].",
"].].].].].].].].].].].].].].].].].].].].].].].].].].].].].].].].].].].].].L.F.F.P.].].].].].].].].].].].].].].].].].].].].].].].",
"].].].].].].].].].].].].].].].].].].].].].].].].].].].].].].].].].].].].].].].].D.H.(.].].].].].].].].].].].].].].].].].].].].].",
"].].].].].].].].].].].].].].].].].].].].].].].].].].].].].].].].].].].].].].].].].K.F.K.].].F.I.].].].].].].].].].].].].].].].].",
"].].].].].].].].].].].].].].].].].].].].].].].].].].].].].].].].].].].].].].].].].].F.F.F.].].G.].].].].].].].].].].].].].].].].",
"].].].].].].].].].].].].].].].].].].].].].].].].].].].].].J.S.+.p ].].].].].].].].].].F.F.F.].].].].].].].].].].].].].].].].].].",
"].].].].].].].].].].].].].].].].].].].].].].].].].].].].H.Q.5.p p p ].].].K.F.].].].].].].F.F.].].].].].].].].].].].].].].].].].",
"].].].].].].].].].].].].].].].].].].].].].].].].].].].].F.H.H.0.$.&.(.Q.D.U.U.F.F.].].].].].R.].].].].].].].].].].].].].].].].].",
"].].].].].].].].].].].].].].].].].].].].].].].].].].G.J.F.U.U.z.r.6.8.1.) | d.Q.H.D.].].].].].].].].].].].].].].].].].].].].].].",
"].].].].].].].].].].].].].].].].].].].].].].].].].T.J.E.Q.i.] H Z Z S A Q J F ;.U.H.F.].].].].].].].].].].].].].].].].].].].].].",
"].].].].].].].].].].].].].].].].].].].].].].].].].8./.:...l S I J Z B A L S S V o.U.F.H.].].].].].].].T.].].].].].].].].].].].].",
"].].].].].].].].p p ].].].].].].].].].].].].].]._.k.:.%.W C b p p p p p p ' L S Y V.J.H.K.F.].].].].].].].].].].].].].].].].].].",
"].].].].].].K./.g p ].].].].].].].C.].].].].].Z.N p p 2.H 5 $ e p p p p p O.7.A S e.(.E.H.F.K.].].].T.].].].].].].].].].].].].].",
"].].].].].].].].].].].].].].].).y.V.].].].].].].p p { ` , X & t p p p p p ..(.p p [ u.6.F.Y.F.].].].].].].].].].].].].].].].].].",
"].].].].].].].].].].].].].p ].Q.P.F.].].].].].].q.-.j.i # # y p p p p p p f h.p p p p p _ t.Y.K.].].].].].].].].].].].].].].].].",
"].].].].].].].].].].].].p ].B.J.F.F.].].].].].].E./.h.p 7 X r p p p p p p p p p p p p p m P g.U.].].].].].].].].].].].].].].].].",
"].].].].].].].].].].].p p ].].H.F.].].].A =.(.(.H.U.s.k p : = p p p p p p p p p p p p p p F X.Q.].].].].].].].].].].].].].].].].",
"].].].].].].].F.F.F.(.].].].].].].].].p p ].].! m./.v p p q   2 p p p p p p p p p p p p p K ( J.K.].].L.L.].].].].].].].].].].].",
"].].].].].].H.H.].].].].].].].].].].].p ].].].<.V.^.*.p p u $ o 4 p p p p p p p p p p u d J ^ H.H.].].].].].].].].].].].].].].].",
"].].].].].].].].].].].].].].].].].].].].].].#.P.H.F./.) p 9 . @ + > 0 ; 8 6 < = p p p 3 G M  .Q.B.].].].].].].].].].].].].].].].",
"].].].].].].].].].].].].].].].].].].].].].].x.].F.F.J.J.K p w 1 X = / w.-   O . ; 1 % s Y { v.Q.i.].].].].].].].].].].].].].].].",
"].].].].].].].].].].].].].].].].].].].].].].].].].F.F.E.e.I h z } U.A.c 2 * * a D % x a.c.U.(.(.].].].].].].].].].].].].].].].].",
"].].].].].].].].].].].].].].].].].].].].].].].].].].H.F.U.l.i.9.b.f.U n W @.4.>.j T `.W.P.~.~ ].].].].].].].].].].].].].].].].].",
"].].].].].].].].].].].].].].].].].].].].].].].].].].].].].].L.n.N.3.E #.M.p.[ G O.'.L.].].].].].].].].].].].].].].].].].].].].].",
"].].].].].].].].].].].].].].].].].].].].].].].].].].].].].].].H.J.C.n.(.,.n =.H.Y.J.].].].].].].].].].].].].].].].].].].].].].].",
"].].].].].].].].].].].].].].].].].].].].].].].].].].].].].].].].F.F.J./.B p p (.(.].].].].].].].].].].].].].].].].].].].].].].].",
"].].].].].].].].].].].].].].].].].].].].].].].].].].].].].].].].].F.].].C p p ].].].].].].].].].].].].].].].].].].].].].].].].].",
"].].].].].].].].].].].].].].].].].].].].].].].].].].].].].].].].].K.F.].].R p ].].].].].].].].].].].].].].].].].].].].].].].].].",
"].].].].].].].].].].].].].].].].].].].].].].].].].].].].].].].].].F.F.F.!.].].].].].].].].].].].].].].].].].].].].].].].].].].].",
"].].].].].].].].].].].].].].].].].].].].].].].].].].].].].].].].].].].].H.F.].].].].].].].].].].].].].].].].].].].].].].].].].].",
"].].].].].].].].].].].].].].].].].].].].].].].].].].].].].].].].].].].].].].].].].].].].].].].].].].].].].].].].].].].].].].].].",
"].].].].].].].].].].].].].].].].].].].].].].].].].].].].].].].].].].].].].].].].].].].].].].].].].].].].].].].].].].].].].].].].",
"].].].].].].].].].].].].].].].].].].].].].].].].].].].].].].].].].].].].].].].].K.].].].].].].].].].].].].].].].].].].].].].].].",
"].].].].].].].].].].].].].].].].].].].].].].].].].].].].].].].].].].].].].].].G.].].].].].].].].].].].].].].].].].].].].].].].].",
"].].].].].].].].].].].].].].].].].].].].].].].].].].].].].].].].].].].].].].].].].].].].].].].].].].].].].].].].].].].].].].].].",
"].].].].].].].].].].].].].].].].].].].].].].].].].].].].].].].].].].].].].].].].].].].].].].].].].].].].].].].].].].].].].].].].",
"].].].].].].].].].].].].].].].].].].].].].].].].].].].].].].].].].].].].].].].].].].].].].].].].].].].].].].].].].].].].].].].].",
"].].].].].].].].].].].].].].].].].].].].].].].].].].].].].].].].].].].].].].].].].].].].].].].].].].].].].].].].].].].].].].].].",
"].].].].].].].].].].].].].].].].].].].].].].].].].].].].].].].].].].].].].].].].].].].].].].].].].].].].].].].].].].].].].].].].",
"].].].].].].].].].].].].].].].].].].].].].].].].].].].].].].].].].].].].].].].].].].].].].].].].].].].].].].].].].].].].].].].].",
"].].].].].].].].].].].].].].].].].].].].].].].].].].].].].].].].].].].].].].].].].].].].].].].].].].].].].].].].].].].].].].].].",
"].].].].].].].].].].].].].].].].].].].].].].].].].].].].].].].].].].].].].].].].].].].].].].].].].].].].].].].].].].].].].].].].",
"].].].].].].].].].].].].].].].].].].].].].].].].].].].].].].].].].].].].].].].].].].].].].].].].].].].].].].].].].].].].].].].].",
"].].].].].].].].].].].].].].].].].].].].].].].].].].].].].].].].].].].].].].].].].].].].].].].].].].].].].].].].].].].].].].].].",
"].].].].].].].].].].].].].].].].].].].].].].].].].].].].].].].].].].].].].].].].].].].].].].].].].].].].].].].].].].].].].].].].",
"].].].].].].].].].].].].].].].].].].].].].].].].].].].].].].].].].].].].].].].].].].].].].].].].].].].].].].].].].].].].].].].].",
"].].].].].].].].].].].].].].].].].].].].].].].].].].].].].].].].].].].].].].].].].].].].].].].].].].].].].].].].].].].].].].].].",
"].].].].].].].].].].].].].].].].].].].].].].].].].].].].].].].].].].].].].].].].].].].].].].].].].].].].].].].].].].].].].].].].",
"].].].].].].].].].].].].].].].].].].].].].].].].].].].].].].].].].].].].].].].].].].].].].].].].].].].].].].].].].].].].].].].].",
"].].].].].].].].].].].].].].].].].].].].].].].].].].].].].].].].].].].].].].].].].].].].].].].].].].].].].].].].].].].].].].].]."
};
