/* XPM */
static char *result[] = {
/* columns rows colors chars-per-pixel */
"64 64 182 2 ",
"   c #A70000",
".  c #A90000",
"X  c #AA0000",
"o  c #AC0000",
"O  c #AD0000",
"+  c #AF0000",
"@  c #B00000",
"#  c #B10000",
"$  c #B20000",
"%  c #B30000",
"&  c #B50000",
"*  c #B60000",
"=  c #B70000",
"-  c #B80000",
";  c #B90000",
":  c #BA0000",
">  c #BC0000",
",  c #BF0000",
"<  c #C00000",
"1  c #C10000",
"2  c #C60000",
"3  c #C80000",
"4  c #C90000",
"5  c #D00000",
"6  c #D10000",
"7  c #D20000",
"8  c #D40000",
"9  c #D90000",
"0  c #C11300",
"q  c #E60000",
"w  c #EA0000",
"e  c #F30000",
"r  c #F50000",
"t  c #F90000",
"y  c #FA0000",
"u  c #FB0000",
"i  c #FE0000",
"p  c red",
"a  c #E21C00",
"s  c #FF1700",
"d  c #D03300",
"f  c #DB3A00",
"g  c #E32200",
"h  c #FF3000",
"j  c #CB5000",
"k  c #FF4100",
"l  c OrangeRed",
"z  c #FF4900",
"x  c #FF4A00",
"c  c #F84E00",
"v  c #FF4D00",
"b  c #FF4E00",
"n  c #FF5200",
"m  c #FF5400",
"M  c #FF5500",
"N  c #FF5600",
"B  c #FF5700",
"V  c #FF5800",
"C  c #FF5A00",
"Z  c #FF5B00",
"A  c #FF5D00",
"S  c #FF5F00",
"D  c #DD6800",
"F  c #FF6000",
"G  c #FF6100",
"H  c #FF6300",
"J  c #FF6600",
"K  c #F76C00",
"L  c #FF6800",
"P  c #FF6B00",
"I  c #FF6C00",
"U  c #FF7000",
"Y  c #FF7200",
"T  c #FF7300",
"R  c #FF7400",
"E  c #FF7900",
"W  c #FF7D00",
"Q  c #FF7E00",
"!  c #FF7F00",
"~  c #DC8A00",
"^  c #FF8200",
"/  c #FF8300",
"(  c #FF8500",
")  c #F38B00",
"_  c #FF8900",
"`  c #E29100",
"'  c #F39700",
"]  c #FF9300",
"[  c #FF9400",
"{  c #FF9600",
"}  c #FF9800",
"|  c #FF9A00",
" . c #FF9C00",
".. c #FF9D00",
"X. c #FF9E00",
"o. c #FF9F00",
"O. c #FFA200",
"+. c #FFA300",
"@. c #FFA700",
"#. c #FFA800",
"$. c #FFAC00",
"%. c #FFAD00",
"&. c #FFAE00",
"*. c #FFAF00",
"=. c #EAB900",
"-. c #FFB100",
";. c #FFB300",
":. c #FFB700",
">. c #FFBA00",
",. c #FEBE00",
"<. c #FFBF00",
"1. c #F4C500",
"2. c #FFC000",
"3. c #FEC300",
"4. c #FDC600",
"5. c #FEC600",
"6. c #FDC800",
"7. c #FCC900",
"8. c #FECC00",
"9. c #FCCE00",
"0. c #EEDC00",
"q. c #FBD000",
"w. c #FBD200",
"e. c #FBD500",
"r. c #FAD800",
"t. c #FBDA00",
"y. c #FADB00",
"u. c #F8DD00",
"i. c #FADD00",
"p. c #F9DE00",
"a. c #F8DF00",
"s. c #F7E600",
"d. c #F7E700",
"f. c #F8E000",
"g. c #F9E000",
"h. c #F9E100",
"j. c #F8E200",
"k. c #F8E600",
"l. c #F8E700",
"z. c #F7E800",
"x. c #F7E900",
"c. c #F6EB00",
"v. c #F6EC00",
"b. c #F6ED00",
"n. c #F6EE00",
"m. c #F6EF00",
"M. c #F8E800",
"N. c #FBE900",
"B. c #F8EA00",
"V. c #F9EA00",
"C. c #FBEA00",
"Z. c #FBEB00",
"A. c #F5F000",
"S. c #F5F200",
"D. c #F5F300",
"F. c #F6F300",
"G. c #F5F400",
"H. c #F5F500",
"J. c #F6F400",
"K. c #F6F500",
"L. c #F7F500",
"P. c #F4F600",
"I. c #F6F600",
"U. c #F9F600",
"Y. c #F8F700",
"T. c #F4F800",
"R. c #F4F900",
"E. c #F5F900",
"W. c #F4FA00",
"Q. c #F4FB00",
"!. c #F5FB00",
"~. c #F3FC00",
"^. c #F0FF00",
"/. c #F1FF00",
"(. c #F3FE00",
"). c #F2FF00",
"_. c #F3FF00",
"`. c #F6FC00",
"'. c #F4FF00",
"]. c #F5FF00",
"[. c #F8FB00",
"{. c None",
/* pixels */
"{.{.{.{.{.{.{.{.{.{.{.{.{.{.{.{.{.{.{.{.{.{.{.{.{.{.{.{.{.{.{.{.{.{.{.{.{.{.{.{.{.{.{.{.{.{.{.{.{.{.{.{.{.{.{.{.{.{.{.{.{.{.{.{.",
"{.{.{.{.{.{.{.{.{.{.{.{.{.{.{.{.{.{.{.{.{.{.{.{.{.{.{.{.{.{.{.{.{.{.{.{.{.{.{.{.{.{.{.{.{.{.{.{.{.{.{.{.{.{.{.{.{.{.{.{.{.{.{.{.",
"{.{.{.{.{.{.{.{.{.{.{.{.{.{.{.{.{.{.{.{.{.{.{.{.{.{.{.{.{.{.{.{.{.{.{.{.{.{.{.{.{.{.{.{.{.{.{.{.{.{.{.{.{.{.{.{.{.{.{.{.{.{.{.{.",
"{.{.{.{.{.{.{.{.{.{.{.{.{.{.{.{.{.{.{.{.{.{.{.{.{.{.{.{.{.{.{.{.{.{.{.{.{.{.{.{.{.{.{.{.{.{.{.{.{.{.{.{.{.{.{.{.{.{.{.{.{.{.{.{.",
"{.{.{.{.{.{.{.{.{.{.{.{.{.{.{.{.{.{.{.{.{.{.{.{.{.{.{.{.{.{.{.{.{.{.{.{.{.{.{.{.{.{.{.{.{.{.{.{.{.{.{.{.{.{.{.{.{.{.{.{.{.{.{.{.",
"{.{.{.{.{.{.{.{.{.{.{.{.{.{.{.{.{.{.{.{.{.{.{.{.{.{.{.{.{.{.{.{.{.{.{.{.{.{.{.{.{.{.{.{.{.{.{.{.{.{.{.{.{.{.{.{.{.{.{.{.{.{.{.{.",
"{.{.{.{.{.{.{.{.{.{.{.{.{.{.{.{.{.{.{.{.{.{.{.{.{.{.{.{.{.{.{.{.{.{.{.{.{.{.{.{.{.{.{.{.{.{.{.{.{.{.{.{.{.{.{.{.{.{.{.{.{.{.{.{.",
"{.{.{.{.{.{.{.{.{.{.{.{.{.{.{.{.{.{.{.{.{.{.{.{.{.{.{.{.{.{.{.{.{.{.{.{.{.{.{.{.{.{.{.{.{.{.{.{.{.{.{.{.{.{.{.{.{.{.{.{.{.{.{.{.",
"{.{.{.{.{.{.{.{.{.{.{.{.{.{.{.{.{.{.{.{.{.{.{.{.{.{.{.{.{.{.{.{.{.{.{.{.{.{.{.{.{.{.{.{.{.{.{.{.{.{.{.{.{.{.{.{.{.{.{.{.{.{.{.{.",
"{.{.{.{.{.{.{.{.{.{.{.{.{.{.{.{.{.{.{.{.{.{.{.{.{.{.{.{.{.{.{.{.{.{.{.{.{.{.{.{.{.{.{.{.{.{.{.{.{.{.{.{.{.{.{.{.{.{.{.{.{.{.{.{.",
"{.{.{.{.{.{.{.{.{.{.{.{.{.{.{.{.{.{.{.{.{.{.{.{.{.{.{.{.{.{.{.{.{.{.{.{.{.{.{.{.{.{.{.{.{.{.{.{.{.{.{.{.{.{.{.{.{.{.{.{.{.{.{.{.",
"{.{.{.{.{.{.{.{.{.{.{.{.{.{.{.{.{.{.{.{.{.{.{.{.{.{.{.{.{.{.{.{.{.{.{.{.{.{.{.{.{.{.{.{.{.{.{.{.{.{.{.{.{.{.{.{.{.{.{.{.{.{.{.{.",
"{.{.{.{.{.{.{.{.{.{.{.{.{.{.{.{.{.{.{.{.{.{.{.{.{.{.{.{.{.{.{.{.{.{.{.{.{.{.{.{.{.{.{.{.{.{.{.{.{.{.{.{.{.{.{.{.{.{.{.{.{.{.{.{.",
"{.{.{.{.{.{.{.{.{.{.{.{.{.{.{.{.{.{.{.{.{.{.{.{.{.{.{.{.{.{.{.{.{.{.{.{.{.{.{.{.{.{.{.{.{.{.{.{.{.{.{.{.{.{.{.{.{.{.{.{.{.{.{.{.",
"{.{.{.{.{.{.{.{.{.{.{.{.{.{.{.{.{.{.{.{.{.{.{.{.{.{.{.{.{.{.{.{.{.{.{.{.{.{.{.{.{.{.{.{.D.G.{.{.{.{.{.{.{.{.{.{.{.{.{.{.{.{.{.{.",
"{.{.{.{.{.{.{.{.{.{.{.{.{.{.{.{.{.{.{.{.{.{.{.{.{.{.{.{.{.{.{.{.{.{.{.{.D.D.D.D.J.{.{.{.F.{.{.{.{.{.L.{.{.{.{.{.{.{.{.{.{.{.{.{.",
"{.{.{.{.{.{.{.{.{.{.{.{.{.{.{.{.{.{.{.{.{.{.{.{.{.{.{.{.{.{.{.{.{.{.{.{.{.{.{.{.D.K.{.{.{.{.{.{.{.{.{.{.{.{.{.{.{.{.{.{.{.{.{.{.",
"{.{.{.{.{.{.{.{.{.{.{.{.{.{.{.{.{.{.{.{.{.{.{.{.{.{.{.{.{.{.{.{.{.{.{.{.{.{.{.{.{.F.I.{.{.{.{.{.{.{.{.{.{.{.{.{.{.{.{.{.{.{.{.{.",
"{.{.{.{.{.{.{.{.{.{.{.{.{.{.{.{.{.{.{.{.{.{.{.{.{.{.{.{.{.{.{.{.{.{.{.{.{.{.{.{.{.{.K.{.{.{.{.{.{.{.{.{.{.{.{.{.{.{.{.{.{.{.{.{.",
"{.{.{.{.{.{.{.{.{.{.{.{.{.{.{.{.{.{.{.{.{.{.{.{.{.{.{.{.,.p -.{.{.{.{.G.{.{.{.{.{.{.{.{.{.{.{.{.{.{.{.{.{.{.{.{.{.{.{.{.{.{.{.{.",
"{.{.{.{.{.{.{.{.{.{.{.{.{.{.{.{.{.{.{.{.{.{.{.{.{.H.P.b.p p E {.{.{.K.J.D.D.D.D.D.{.{.{.{.{.{.{.{.{.{.{.{.{.{.{.{.{.{.{.{.{.{.{.",
"{.{.{.{.{.{.{.{.{.{.{.{.{.{.{.{.{.{.{.{.{.{.{.{.{.W.{.i.p _ W.{.{.H.P.T.Q.W.P.D.D.D.{.{.{.{.{.{.{.{.{.{.{.{.{.{.{.{.{.{.{.{.{.{.",
"{.{.{.{.{.{.{.{.{.{.{.{.{.{.{.{.{.{.{.{.{.{.{.{.{.{.J.H.(.).D.T.S.n.5.>.@.2.z.W.G.S./.{.{.{.{.{.{.{.{.{.{.{.{.{.{.{.{.{.{.{.{.{.",
"{.{.{.{.{.{.{.{.{.{.{.{.{.{.{.{.{.{.{.{.{.{.{.{.{.{.G.A.v.y.(.h./ %.b.g.3.m x %.Q._._ p {.{.{.{.{.{.{.{.{.{.{.{.{.{.{.{.{.{.{.{.",
"{.{.{.{.{.{.{.{.{.{.{.{.{.{.{.{.{.{.{.{.{.{.{.{.{.{.q.:.A.6.#.P T L X.k.^.w.p p R ^.I p p r.{.{.{.{.{.{.{.{.{.{.{.{.{.{.{.{.{.{.",
"{.{.{.{.{.{.p {.{.{.{.{.{.{.{.{.{.{.{.{.{.{.p p {._.P.u.Y.].t.1.D y p p Q ^.| p p 4.d.R p N x.{.{.{.{.{.{.{.{.{.{.{.{.{.{.{.{.{.",
"{.{.{.{.{.{.{.p {.{.{.{.{.{.{.{.{.{.{.{.{.{.p p ~.G.H.Z.` ~ C.f . p p p p h _.p p z U H o.| ).).{.{.{.{.{.{.{.{.{.{.{.{.{.{.{.{.",
"{.{.{.{.{.{.{.{.{.{.{.{.{.Q.(.D.{.{.{.{.{.{.p s _.H.].0.% $ 6 = # t p p p p R p p p p p J :. .P.J.{.{.{.{.{.{.{.{.{.{.{.{.{.{.{.",
"{.{.{.{.{.{.{.{.{.{.{.{./.D.D.H.{.{.{.{.{.{.{.{.~.f.8.l ; + . > p p p p p p p p p p p p p C O.Q.D.{.{.{.{.{.{.{.{.{.{.{.{.{.{.{.",
"{.{.{.{.{.{.{.{.{.p p {._.D.H.{.{.{.{.{.{.{.{.'.G.n.[ p & @ @ * r p p p p p p p p p p p p B W S.G.{.{.{.{.{.{.{.{.{.{.{.{.{.{.{.",
"{.{.{.{.{.{.{.{.{.{.{.{.W.{.{.{.{.{.{.{.{.{.{.D.D.).A p 8 o # + $ q ' p p p p p p p p p p C Z 7.W.{.{.{.{.{.{.{.{.{.{.{.{.{.{.{.",
"{.{.{.{.{.{.{.{.{.{.{.{.{.{.{.{.{.p p {.{.{.( _.G.W.p p p $ @ o o o o 9 p p p p p p p p y A C ] R.{.{.{.{.{.{.{.{.{.{.{.{.{.{.{.",
"{.{.{.{.D.D.D.J.{.{.{.{.{.{.{.{.{.{.{.{.{.c.f.H.D.(.$.p p 5 O 5 < o o % 9 i p p p p p p , c F Q G.{.{.{.D.{.{.{.{.{.{.{.{.{.{.{.",
"{.{.{.{.{.H.{.{.{.{.{.{.{.{.{.{.{.{.{.{.{.T.I.D.D.D.).+.p p u p p e , +   9 p p p , 3 : 1 S C <.!.{.{.{.{.{.{.{.{.{.{.{.{.{.{.{.",
"{.{.{.{.{.{.{.{.{.{.{.{.{.{.{.{.{.{.{.{.{.{.{.{.D.D.D._.a._ Z n Z ! ) j X % > 8 w @ & 7 V Z ^ s.{.{.D.J.{.{.{.{.{.{.{.{.{.{.{.{.",
"{.{.{.{.{.{.{.{.{.{.{.{.{.{.{.{.{.{.{.{.{.{.{.{.J.D.D.D.R.).).W.D.V.{ 4 1 - X O o . g T A T p.M.{.G.D.D.{.{.{.{.{.{.{.{.{.{.{.{.",
"{.{.{.{.{.{.{.{.{.{.{.{.{.{.{.{.{.{.{.{.{.{.{.{.{.{.{.F.D.D.D.G.Q.*.b G Y K 0 . . 2 M B L r.Q.{.{.G.D.D.{.{.{.{.{.{.{.{.{.{.{.{.",
"{.{.{.{.{.{.{.{.{.{.{.{.{.{.{.{.{.{.{.{.{.{.{.{.{.{.{.{.G.D.D.S.R.).9.e.B.[.=.d a } &...l.).E.{.{.G.D.D.{.{.{.{.{.{.{.{.{.{.{.{.",
"{.{.{.{.{.{.{.{.{.{.{.{.{.{.{.{.{.{.{.{.{.{.{.{.{.{.{.{.{.J.D.Q.r.k ;._.H.D.`.U.N.!.Q.).{.{.{.{.{.G.D.G.{.{.{.{.{.{.{.{.{.{.{.{.",
"{.{.{.{.{.{.{.{.{.{.{.{.{.{.{.{.{.{.{.{.{.{.{.{.{.{.{.{.{.{.P.v.p p v ).D.D.J.H.P.J.{.{.{.{.{.{.G.x.n.G.{.{.{.{.{.{.{.{.{.{.{.{.",
"{.{.{.{.{.{.{.{.{.{.{.{.{.{.{.{.{.{.{.{.{.{.{.{.{.{.{.D.D.D.T.j.p p {.{.{.{.{.J.D.{.{.{.{.{.{.{.{.{.n.{.{.{.{.{.{.{.{.{.{.{.{.{.",
"{.{.{.{.{.{.{.{.{.{.{.{.{.{.{.{.{.{.{.{.{.{.{.{.{.{.{.{.{.{.{.{.m.{.{.{.{.{.{.{.{.{.{.{.{.{.{.{.{.{.K.{.{.{.{.{.{.{.{.{.{.{.{.{.",
"{.{.{.{.{.{.{.{.{.{.{.{.{.{.{.{.{.{.{.{.{.{.{.{.{.{.{.{.{.{.{.D.T.{.{.{.{.{.{.{.{.{.{.{.{.{.{.{.{.{.{.{.{.{.{.{.{.{.{.{.{.{.{.{.",
"{.{.{.{.{.{.{.{.{.{.{.{.{.{.{.{.{.{.{.{.{.{.{.{.{.{.{.{.{.{.{.{.{.{.{.{.{.{.{.{.{.{.{.{.{.{.{.{.{.{.{.{.{.{.{.{.{.{.{.{.{.{.{.{.",
"{.{.{.{.{.{.{.{.{.{.{.{.{.{.{.{.{.{.{.{.{.{.{.{.{.{.{.{.{.{.{.{.{.{.{.{.{.{.{.{.{.{.{.{.{.{.{.{.{.{.{.{.{.{.{.{.{.{.{.{.{.{.{.{.",
"{.{.{.{.{.{.{.{.{.{.{.{.{.{.{.{.{.{.{.{.{.{.{.{.{.{.{.{.{.{.{.{.{.{.{.{.{.{.{.{.{.{.{.{.{.{.{.{.{.{.{.{.{.{.{.{.{.{.{.{.{.{.{.{.",
"{.{.{.{.{.{.{.{.{.{.{.{.{.{.{.{.{.{.{.{.{.{.{.{.{.{.{.{.{.{.{.{.{.{.{.{.{.{.{.{.{.{.{.{.{.{.{.{.{.{.{.{.{.{.{.{.{.{.{.{.{.{.{.{.",
"{.{.{.{.{.{.{.{.{.{.{.{.{.{.{.{.{.{.{.{.{.{.{.{.{.{.{.{.{.{.{.{.{.{.{.{.{.{.{.{.{.{.{.{.{.{.{.{.{.{.{.{.{.{.{.{.{.{.{.{.{.{.{.{.",
"{.{.{.{.{.{.{.{.{.{.{.{.{.{.{.{.{.{.{.{.{.{.{.{.{.{.{.{.{.{.{.{.{.{.{.{.{.{.{.{.{.{.{.{.{.{.{.{.{.{.{.{.{.{.{.{.{.{.{.{.{.{.{.{.",
"{.{.{.{.{.{.{.{.{.{.{.{.{.{.{.{.{.{.{.{.{.{.{.{.{.{.{.{.{.{.{.{.{.{.J.{.{.{.{.{.{.{.{.{.{.{.{.{.{.{.{.{.{.{.{.{.{.{.{.{.{.{.{.{.",
"{.{.{.{.{.{.{.{.{.{.{.{.{.{.{.{.{.{.{.{.{.{.{.{.{.{.{.{.{.{.{.{.{.{.{.{.{.{.{.{.{.{.{.{.{.{.{.{.{.{.{.{.{.{.{.{.{.{.{.{.{.{.{.{.",
"{.{.{.{.{.{.{.{.{.{.{.{.{.{.{.{.{.{.{.{.{.{.{.{.{.{.{.{.{.{.{.{.{.{.{.{.{.{.{.{.{.{.{.{.{.{.{.{.{.{.{.{.{.{.{.{.{.{.{.{.{.{.{.{.",
"{.{.{.{.{.{.{.{.{.{.{.{.{.{.{.{.{.{.{.{.{.{.{.{.{.{.{.{.{.{.{.{.{.{.{.{.{.{.{.{.{.{.{.{.{.{.{.{.{.{.{.{.{.{.{.{.{.{.{.{.{.{.{.{.",
"{.{.{.{.{.{.{.{.{.{.{.{.{.{.{.{.{.{.{.{.{.{.{.{.{.{.{.{.{.{.{.{.{.{.{.{.{.{.{.{.{.{.{.{.{.{.{.{.{.{.{.{.{.{.{.{.{.{.{.{.{.{.{.{.",
"{.{.{.{.{.{.{.{.{.{.{.{.{.{.{.{.{.{.{.{.{.{.{.{.{.{.{.{.{.{.{.{.{.{.{.{.{.{.{.{.{.{.{.{.{.{.{.{.{.{.{.{.{.{.{.{.{.{.{.{.{.{.{.{.",
"{.{.{.{.{.{.{.{.{.{.{.{.{.{.{.{.{.{.{.{.{.{.{.{.{.{.{.{.{.{.{.{.{.{.{.{.{.{.{.{.{.{.{.{.{.{.{.{.{.{.{.{.{.{.{.{.{.{.{.{.{.{.{.{.",
"{.{.{.{.{.{.{.{.{.{.{.{.{.{.{.{.{.{.{.{.{.{.{.{.{.{.{.{.{.{.{.{.{.{.{.{.{.{.{.{.{.{.{.{.{.{.{.{.{.{.{.{.{.{.{.{.{.{.{.{.{.{.{.{.",
"{.{.{.{.{.{.{.{.{.{.{.{.{.{.{.{.{.{.{.{.{.{.{.{.{.{.{.{.{.{.{.{.{.{.{.{.{.{.{.{.{.{.{.{.{.{.{.{.{.{.{.{.{.{.{.{.{.{.{.{.{.{.{.{.",
"{.{.{.{.{.{.{.{.{.{.{.{.{.{.{.{.{.{.{.{.{.{.{.{.{.{.{.{.{.{.{.{.{.{.{.{.{.{.{.{.{.{.{.{.{.{.{.{.{.{.{.{.{.{.{.{.{.{.{.{.{.{.{.{.",
"{.{.{.{.{.{.{.{.{.{.{.{.{.{.{.{.{.{.{.{.{.{.{.{.{.{.{.{.{.{.{.{.{.{.{.{.{.{.{.{.{.{.{.{.{.{.{.{.{.{.{.{.{.{.{.{.{.{.{.{.{.{.{.{.",
"{.{.{.{.{.{.{.{.{.{.{.{.{.{.{.{.{.{.{.{.{.{.{.{.{.{.{.{.{.{.{.{.{.{.{.{.{.{.{.{.{.{.{.{.{.{.{.{.{.{.{.{.{.{.{.{.{.{.{.{.{.{.{.{.",
"{.{.{.{.{.{.{.{.{.{.{.{.{.{.{.{.{.{.{.{.{.{.{.{.{.{.{.{.{.{.{.{.{.{.{.{.{.{.{.{.{.{.{.{.{.{.{.{.{.{.{.{.{.{.{.{.{.{.{.{.{.{.{.{.",
"{.{.{.{.{.{.{.{.{.{.{.{.{.{.{.{.{.{.{.{.{.{.{.{.{.{.{.{.{.{.{.{.{.{.{.{.{.{.{.{.{.{.{.{.{.{.{.{.{.{.{.{.{.{.{.{.{.{.{.{.{.{.{.{.",
"{.{.{.{.{.{.{.{.{.{.{.{.{.{.{.{.{.{.{.{.{.{.{.{.{.{.{.{.{.{.{.{.{.{.{.{.{.{.{.{.{.{.{.{.{.{.{.{.{.{.{.{.{.{.{.{.{.{.{.{.{.{.{.{."
};
