/* XPM */
static char *result[] = {
/* columns rows colors chars-per-pixel */
"64 64 185 2 ",
"   c #A50000",
".  c #A70000",
"X  c #A80000",
"o  c #A90000",
"O  c #AA0000",
"+  c #AB0000",
"@  c #AC0000",
"#  c #AD0000",
"$  c #AF0000",
"%  c #B00000",
"&  c #B10000",
"*  c #B20000",
"=  c #B70000",
"-  c #B80000",
";  c #BC0000",
":  c #BF0000",
">  c #C00000",
",  c #C10000",
"<  c #C40000",
"1  c #C60000",
"2  c #C90000",
"3  c #CD0000",
"4  c #C00A00",
"5  c #D20000",
"6  c #D30000",
"7  c #D50000",
"8  c #D60000",
"9  c #D90000",
"0  c #DB0000",
"q  c #DC0000",
"w  c #DD0000",
"e  c #DE0000",
"r  c #DF0000",
"t  c #C21600",
"y  c #D81C00",
"u  c #E20000",
"i  c #E50000",
"p  c #E80000",
"a  c #F00000",
"s  c #F10000",
"d  c #FE0000",
"f  c red",
"g  c #E11100",
"h  c #EA1800",
"j  c #FF1200",
"k  c #C22F00",
"l  c #D82400",
"z  c #CB3F00",
"x  c #E62500",
"c  c #FF2600",
"v  c #FF2E00",
"b  c #EB3300",
"n  c #FF3A00",
"m  c #FF3B00",
"M  c #D35D00",
"N  c #FF4C00",
"B  c #FF4E00",
"V  c #FF4F00",
"C  c #FF5000",
"Z  c #FF5200",
"A  c #FF5500",
"S  c #FF5800",
"D  c #FF5900",
"F  c #FF5B00",
"G  c #FF5C00",
"H  c #FF5D00",
"J  c #D46000",
"K  c #D97500",
"L  c #F86100",
"P  c #FF6300",
"I  c #FF6400",
"U  c #FF6600",
"Y  c #FF6700",
"T  c #F06B00",
"R  c #FF6A00",
"E  c #FF6E00",
"W  c #E57F00",
"Q  c #FF7200",
"!  c #FF7600",
"~  c #FF7800",
"^  c #FF7900",
"/  c #FF7B00",
"(  c #FF7D00",
")  c #DB8000",
"_  c #DC8400",
"`  c #DF9B00",
"'  c #FF8600",
"]  c #FF8900",
"[  c DarkOrange",
"{  c #FF8D00",
"}  c #E29700",
"|  c #E89400",
" . c #FF9000",
".. c #FF9500",
"X. c #FF9900",
"o. c #FF9B00",
"O. c #FF9D00",
"+. c #FFA200",
"@. c #FFA400",
"#. c orange",
"$. c #FFA600",
"%. c #FFAC00",
"&. c #FFAE00",
"*. c #E9B100",
"=. c #FFB500",
"-. c #FEBA00",
";. c #FFBB00",
":. c #FEBD00",
">. c #FFBD00",
",. c #FEBE00",
"<. c #FEBF00",
"1. c #FFC100",
"2. c #FDC400",
"3. c #FFC500",
"4. c #FFC600",
"5. c #FFC900",
"6. c #FCCE00",
"7. c #FCCF00",
"8. c #EBDC00",
"9. c #F2D300",
"0. c #FBD400",
"q. c #FAD500",
"w. c #F9D700",
"e. c #FAD700",
"r. c #F7D900",
"t. c #F1DC00",
"y. c #F0DF00",
"u. c #F1DF00",
"i. c #F9D900",
"p. c #FAD800",
"a. c #F9DA00",
"s. c #F9DB00",
"d. c #FADA00",
"f. c #FADB00",
"g. c #FADC00",
"h. c #F9DE00",
"j. c #F7E600",
"k. c #F7E700",
"l. c #F9E000",
"z. c #F9E100",
"x. c #F8E200",
"c. c #F8E600",
"v. c #F8E700",
"b. c #F9E700",
"n. c #F7E900",
"m. c #F6EB00",
"M. c #F6EC00",
"N. c #F7ED00",
"B. c #F6EF00",
"V. c #F8E800",
"C. c #FBE900",
"Z. c #F8EA00",
"A. c #F9EA00",
"S. c #F5F000",
"D. c #F5F100",
"F. c #F5F200",
"G. c #F5F300",
"H. c #F6F300",
"J. c #F5F400",
"K. c #F5F500",
"L. c #F6F400",
"P. c #F6F500",
"I. c #F4F600",
"U. c #F6F600",
"Y. c #F4F800",
"T. c #F5F800",
"R. c #F4F900",
"E. c #F4FA00",
"W. c #F5FA00",
"Q. c #F4FB00",
"!. c #F5FB00",
"~. c #F6FA00",
"^. c #F6FB00",
"/. c #F3FC00",
"(. c #F1FF00",
"). c #F3FE00",
"_. c #F2FF00",
"`. c #F3FF00",
"'. c #F6FC00",
"]. c #F7FD00",
"[. c #F4FE00",
"{. c #F5FF00",
"}. c #F6FF00",
"|. c #F7FF00",
" X c None",
/* pixels */
" X X X X X X X X X X X X X X X X X X X X X X X X X X X X X X X X X X X X X X X X X X X X X X X X X X X X X X X X X X X X X X X X",
" X X X X X X X X X X X X X X X X X X X X X X X X X X X X X X X X X X X X X X X X X X X X X X X X X X X X X X X X X X X X X X X X",
" X X X X X X X X X X X X X X X X X X X X X X X X X X X X X X X X X X X X X X X X X X X X X X X X X X X X X X X X X X X X X X X X",
" X X X X X X X X X X X X X X X X X X X X X X X X X X X X X X X X X X X X X X X X X X X X X X X X X X X X X X X X X X X X X X X X",
" X X X X X X X X X X X X X X X X X X X X X X X X X X X X X X X X X X X X X X X X X X X X X X X X X X X X X X X X X X X X X X X X",
" X X X X X X X X X X X X X X X X X X X X X X X X X X X X X X X X X X X X X X X X X X X X X X X X X X X X X X X X X X X X X X X X",
" X X X X X X X X X X X X X X X X X X X X X X X X X X X X X X X X X X X X X X X X X X X X X X X X X X X X X X X X X X X X X X X X",
" X X X X X X X X X X X X X X X X X X X X X X X X X X X X X X X X X X X X X X X X X X X X X X X X X X X X X X X X X X X X X X X X",
" X X X X X X X X X X X X X X X X X X X X X X X X X X X X X X X X X X X X X X X X X X X X X X X X X X X X X X X X X X X X X X X X",
" X X X X X X X X X X X X X X X X X X X X X X X X X X X X X X X X X X X X X X X X X X X X X X X X X X X X X X X X X X X X X X X X",
" X X X X X X X X X X X X X X X X X X X X X X X X X X X X X X X X X X X X X X X X X X X X X X X X X X X X X X X X X X X X X X X X",
" X X X X X X X X X X X X X X X X X X X X X X X X X X X X X X X X X X X X X X X X X X X X X X X X X X X X X X X X X X X X X X X X",
" X X X X X X X X X X X X X X X X X X X X X X X X X X X X X X X X X X X X X X X X X X X X X X X X X X X X X X X X X X X X X X X X",
" X X X X X X X X X X X X X X X X X X X X X X X X X X X X X X X X X X X X X X X X X X X X X X X X X X X X X X X X X X X X X X X X",
" X X X X X X X X X X X X X X X X X X X X X X X X X X X X X X X X X X X X X X X X XG.L. X X X X X X X X X X X X X X X X X X X X X",
" X X X X X X X X X X X X X X X X X X X X X X X X X X X X X X X X XG.J.G.G.G.L. X X X X X X X X X X X X X X X X X X X X X X X X X",
" X X X X X X X X X X X X X X X X X X X X X X X X X X X X X X X X XH.J. X X X X X X X X X X X X X X X X X X X X X X X X X X X X X",
" X X X X X X X X X X X X X X X X X X X X X X X X X X X X X X X X X X X X X X X X X X X X X X X X X X X X X X X X X X X X X X X X",
" X X X X X X X X X X X X X X X X X X X X X X X X X X X X X X X X X X X X X X X X X X X X X X X X X X X X X X X X X X X X X X X X",
" X X X X X X X X X X X X X X X X X X X X X X X Xh. X X X XP.G. X X X X X XG.G.H. X X X X X X X X X X X X X X X X X X X X X X X X",
" X X X X X X X X X X X X X X X X X X X XD.<.M.k.f f  X X XL.G.J.P.J.K.U.I.I.E.Y.v.l.R. X X X X X X X X X X X X X X X X X X X X X",
" X X X X X X X X X X X X X X X X X X X X X X`.m.f f  X X X XL.G.G.G.G.M.l.g.>.V.@.f f f  X X X X X X X X X X X X X X X X X X X X",
" X X X X X X X X X X X X X X X X X X X X X X X X/.e. X X X XT.Y.Q.`.S.o.Z Q ;.1.0.f f C  X X X X X X X X X X X X X X X X X X X X",
" X X X X X X X X X X X X X X X X X X X X X X X X Xw.`.#. XT.Q.p.>.o.D =.&.f f ] B.,.-.`._. X X X X X X X X X X X X X X X X X X X",
" X X X X X X X X X X X X X X X X X X X X_.c. X X,.f.E./.(.m.X.U I f f f ^ +.f f m _._.K.G.G.J. X X X X X X X X X X X X X X X X X",
" X X X X X X X X X X X X X X X X X Xf v f.E._.I.Q.B.q./.n./ H Z 5 a f f f $.f f f :.2.R.I.G.G.Q. X X X X X X X X X X X X X X X X",
" X X X Xf f  X X X X X X X X X X X Xf f f c.I.Y._.Y.i.c./ P g % < f f f f f ~ f f A f ( N.R.G.G./._. X X X X X X X X X X X X X X",
" X X X X X X X X XL.R. X X X X X X X Xf  X X`.x.[ $.J...F x # + ; f f f f f f f f f f f ! h.I.Q._. X X X X X X X X X X X X X X X",
" X X X X X X X X XE.G.~. X X X X X{.`. XP._.N.f f f d.B i O @ $ 8 f f f f f f f f f f f f ' R.%. X X X X X X X X X X X X X X X X",
" X X X X X Xf f  X_.L. X X X X XT.F.T. XW.z.j f f f 1.f > O - 9 f f f f f f f f f f f f f n h. X X X X XL. X X X X X X X X X X X",
" X X X X X X X X X X X X X X X X X X X X X Xf f f N F f W ` t.U.[.}.B f f f f f f f f f f f f.). X X X X X X X X X X X X X X X X",
" X X X X X X X X X X X X X Xf f  X X X X X XG f f V V f f , t _ y.| 6 p f f f f f f f f f L ^.J. X X X X X X X X X X X X X X X X",
" X XG.G.G. X X X X X X X X X Xf  X X X X X(./.a.p.O.E f f e O 4 : $ . 2 f f f f f f [ f 3 8.~.G.K. X X X X X X X X X X X X X X X",
" X X X X X X X X X X X X X X X X X X X X X XL.R.E.E.j.@.f f s s u % o w f f q r f f T k J |.G.G. X X X X X X X X X X X X X X X X",
" X X X X X X X X X X X X X X X X X X X X X X X X XL.I._.7.f f S l = = ; d e X o 0 e O 1 4.!.G. X X X X X X X X X X X X X X X X X",
" X X X X X X X X X X X X X X X X X X X X X X X X X XG.G./.Z.6.g.r.9.z @ & $ & & o . 7 Y A.K. X X X X X X X X X X X X X X X X X X",
" X X X X X X X X X X X X X X X X X X X X X X X X XG.K.`.E.I.Q.J.3.y   # & & % # : h U 5.E.G. X X X X X X X X X X X X X X X X X X",
" X X X X X X X X X X X X X X X X X X X X X X X X X X X X X_.G.J.}.} M K ; X * b R { 6.E.G.G. X X X X XJ. X X X X X X X X X X X X",
" X X X X X X X X X X X X X X X X X X X X X X XL. X X Xf f  .).G.G.'.|.u.} ) *.C.b.I.W.G.P. X X X X XG.G. X X X X X X X X X X X X",
" X X X X X X X X X X X X X X X X X X X XL.G.G.G.G.G.`.c f f  XE.H. X X X X|.].K./. X X X X X X XL.G.J.G. X X X X X X X X X X X X",
" X X X X X X X X X X X X X X X X X X X X X X X XJ.K. X Xf  X X X X X X X XL.G.R. X X X X X X XH.G.F.B.G. X X X X X X X X X X X X",
" X X X X X X X X X X X X X X X X X X X X X X X X X X X X X X X X X X X X XG.K. X X X X X X X XG.I.s.,.E. X X X X X X X X X X X X",
" X X X X X X X X X X X X X X X X X X X X X X X X X X X X X X X X X X X X X X X X X X X X XK.J.G.G.G.J. X X X X X X X X X X X X X",
" X X X X X X X X X X X X X X X X X X X X X X X X X X X X X X X X X X X X X X X X X X X X X X X X XJ. X X X X X X X X X X X X X X",
" X X X X X X X X X X X X X X X X X X X X X X X X X X X X X X X X X X X X X X X X X X X X X X X X X X X X X X X X X X X X X X X X",
" X X X X X X X X X X X X X X X X X X X X X X X X X X X X X X X X X X X X X X X X X X X X X X X X X X X X X X X X X X X X X X X X",
" X X X X X X X X X X X X X X X X X X X X X X X X X X X X X X X X X X X X X X X X X X X X X X X X X X X X X X X X X X X X X X X X",
" X X X X X X X X X X X X X X X X X X X X X X X X X X X X X X X X X X X X X X X X X X X X X X X X X X X X X X X X X X X X X X X X",
" X X X X X X X X X X X X X X X X X X X X X X X X X X X X X X X X X X X X X X X X X X X X X X X X X X X X X X X X X X X X X X X X",
" X X X X X X X X X X X X X X X X X X X X X X X X X X X X X X X X XK. X X X X X X X X X X X X X X X X X X X X X X X X X X X X X X",
" X X X X X X X X X X X X X X X X X X X X X X X X X X X X X X X X X X X X X X X X X X X X X X X X X X X X X X X X X X X X X X X X",
" X X X X X X X X X X X X X X X X X X X X X X X X X X X X X X X X X X X X X X X X X X X X X X X X X X X X X X X X X X X X X X X X",
" X X X X X X X X X X X X X X X X X X X X X X X X X X X X X X X X X X X X X X X X X X X X X X X X X X X X X X X X X X X X X X X X",
" X X X X X X X X X X X X X X X X X X X X X X X X X X X X X X X X X X X X X X X X X X X X X X X X X X X X X X X X X X X X X X X X",
" X X X X X X X X X X X X X X X X X X X X X X X X X X X X X X X X X X X X X X X X X X X X X X X X X X X X X X X X X X X X X X X X",
" X X X X X X X X X X X X X X X X X X X X X X X X X X X X X X X X X X X X X X X X X X X X X X X X X X X X X X X X X X X X X X X X",
" X X X X X X X X X X X X X X X X X X X X X X X X X X X X X X X X X X X X X X X X X X X X X X X X X X X X X X X X X X X X X X X X",
" X X X X X X X X X X X X X X X X X X X X X X X X X X X X X X X X X X X X X X X X X X X X X X X X X X X X X X X X X X X X X X X X",
" X X X X X X X X X X X X X X X X X X X X X X X X X X X X X X X X X X X X X X X X X X X X X X X X X X X X X X X X X X X X X X X X",
" X X X X X X X X X X X X X X X X X X X X X X X X X X X X X X X X X X X X X X X X X X X X X X X X X X X X X X X X X X X X X X X X",
" X X X X X X X X X X X X X X X X X X X X X X X X X X X X X X X X X X X X X X X X X X X X X X X X X X X X X X X X X X X X X X X X",
" X X X X X X X X X X X X X X X X X X X X X X X X X X X X X X X X X X X X X X X X X X X X X X X X X X X X X X X X X X X X X X X X",
" X X X X X X X X X X X X X X X X X X X X X X X X X X X X X X X X X X X X X X X X X X X X X X X X X X X X X X X X X X X X X X X X",
" X X X X X X X X X X X X X X X X X X X X X X X X X X X X X X X X X X X X X X X X X X X X X X X X X X X X X X X X X X X X X X X X"
};
