/* XPM */
static char *result[] = {
/* columns rows colors chars-per-pixel */
"64 64 176 2 ",
"   c #A90000",
".  c #AA0000",
"X  c #AB0000",
"o  c #AC0000",
"O  c #AD0000",
"+  c #AF0000",
"@  c #B00000",
"#  c #B10000",
"$  c #B20000",
"%  c #B30000",
"&  c #B40000",
"*  c #B60000",
"=  c #BC0000",
"-  c #BF0000",
";  c #C20000",
":  c #C50000",
">  c #C70000",
",  c #CA0000",
"<  c #D40000",
"1  c #D60000",
"2  c #D70000",
"3  c #D90000",
"4  c #DA0000",
"5  c #DE0000",
"6  c #DF0000",
"7  c #DE0900",
"8  c #E20000",
"9  c #E50000",
"0  c #EA0000",
"q  c #F20000",
"w  c #F60000",
"e  c #FA0000",
"r  c #FE0000",
"t  c red",
"y  c #FF0600",
"u  c #FF1C00",
"i  c #C52400",
"p  c #CB2100",
"a  c #C93F00",
"s  c #E92A00",
"d  c #EF2D00",
"f  c #FF2A00",
"g  c #FF2B00",
"h  c #F03C00",
"j  c #FF3A00",
"k  c #FF3B00",
"l  c #CC4B00",
"z  c #D45100",
"x  c #EC4600",
"c  c #FF4000",
"v  c #FF4400",
"b  c OrangeRed",
"n  c #FF4B00",
"m  c #FD4D00",
"M  c #FF4C00",
"N  c #E45D00",
"B  c #EF5B00",
"V  c #FF5500",
"C  c #FF5800",
"Z  c #FF5900",
"A  c #FF5B00",
"S  c #FF5D00",
"D  c #FF5F00",
"F  c #D46400",
"G  c #D46F00",
"H  c #D97000",
"J  c #FF6100",
"K  c #FF6600",
"L  c #FF6A00",
"P  c #FF6B00",
"I  c #FF6D00",
"U  c #FF6E00",
"Y  c #FF7100",
"T  c #FF7300",
"R  c #FF7400",
"E  c #FF7B00",
"W  c #FF7D00",
"Q  c #FF7F00",
"!  c #DD8800",
"~  c #F08200",
"^  c #FF8200",
"/  c #FF8500",
"(  c #FF8700",
")  c #FF8800",
"_  c #FF8900",
"`  c #FF8A00",
"'  c #FF8B00",
"]  c DarkOrange",
"[  c #ED9600",
"{  c #FF9100",
"}  c #FA9800",
"|  c #FF9900",
" . c #FF9A00",
".. c #FF9B00",
"X. c #FF9D00",
"o. c #FF9E00",
"O. c #E2AC00",
"+. c #E6AD00",
"@. c orange",
"#. c #FFA800",
"$. c #FFAA00",
"%. c #FFAC00",
"&. c #FFAD00",
"*. c #E7B400",
"=. c #FFB000",
"-. c #FFB200",
";. c #FFB300",
":. c #FFB400",
">. c #FFB500",
",. c #FFBA00",
"<. c #FEBD00",
"1. c #FFBE00",
"2. c #EDC800",
"3. c #F8C200",
"4. c #FEC500",
"5. c #FFC500",
"6. c #FDC600",
"7. c #FCCA00",
"8. c #FCCB00",
"9. c #FDCC00",
"0. c #FCCE00",
"q. c #FCCF00",
"w. c #FDCF00",
"e. c #F7D600",
"r. c #FBD000",
"t. c #FAD500",
"y. c #FBD500",
"u. c #F8D600",
"i. c #FAD800",
"p. c #FADB00",
"a. c #F9DE00",
"s. c #F7E600",
"d. c #F9E000",
"f. c #F8E200",
"g. c #F8E400",
"h. c #FAE400",
"j. c #FBE400",
"k. c #F8E600",
"l. c #F7E800",
"z. c #F6EB00",
"x. c #F6ED00",
"c. c #FAE800",
"v. c #F0F300",
"b. c #F5F200",
"n. c #F5F300",
"m. c #F6F300",
"M. c #F5F400",
"N. c #F5F500",
"B. c #F6F400",
"V. c #F7F400",
"C. c #F6F500",
"Z. c #F7F500",
"A. c #F4F600",
"S. c #F6F600",
"D. c #FAF400",
"F. c #F3FB00",
"G. c #F4F800",
"H. c #F5F800",
"J. c #F4F900",
"K. c #F5F900",
"L. c #F4FA00",
"P. c #F5FA00",
"I. c #F4FB00",
"U. c #F5FB00",
"Y. c #F3FC00",
"T. c #F0FF00",
"R. c #F1FF00",
"E. c #F3FE00",
"W. c #F2FF00",
"Q. c #F3FF00",
"!. c #F4FE00",
"~. c #F4FF00",
"^. c #F5FF00",
"/. c #F6FF00",
"(. c #F7FF00",
"). c None",
/* pixels */
").).).).).).).).).).).).).).).).).).).).).).).).).).).).).).).).).).).).).).).).).).).).).).).).).).).).).).).).).).).).).).).).",
").).).).).).).).).).).).).).).).).).).).).).).).).).).).).).).).).).).).).).).).).).).).).).).).).).).).).).).).).).).).).).).).",
").).).).).).).).).).).).).).).).).).).).).).).).).).).).).).).).).).).).).).).).).).).).).).).).).).).).).).).).).).).).).).).).",
").).).).).).).).).).).).).).).).).).).).).).).).).).).).).).).).).).).).).).).).).).).).).).).).).).).).).).).).).).).).).).).).",
").).).).).).).).).).).).).).).).).).).).).).).).).).).).).).).).).).).).).).).).).).).).).).).).).).).).).).).).).).).).).).).).",
").).).).).).).).).).).).).).).).).).).).).).).).).).).).).).).).).).).).).).).).).).).).).).).).).).).).).).).).).).).).).).).).",
").).).).).).).).).).).).).).).).).).).).).).).).).).).).).).).).).).).).).).).).).).).).).).).).).).).).).).).).).).).).).).).).",
").).).).).).).).).).).).).).).).).).).).).).).).).).).).).).).).).).).).).).).).).).).).).).).).).).).).).).).).).).).).).).).).",
").).).).).).).).).).).).).).).).).).).).).).).).).).).).).).).).).).).).).).).).).).).).).).).).).).).).).).).).).).).).).).).).",
").).).).).).).).).).).).).).).).).).).).).).).).).).).).).).).).).).).).).).).).).).).).).).).).).).).).).).).).).).).).).).).).",
").).).).).).).).).).).).).).).).).).).).).).).).).).).).).).).).).).).).).).).).).).).).).).).).).).).).).).).).).).).).).).).).",
").).).).).).).).).).).).).).).).).).).).).).).).).).).).).).).).).).).).).).).).).).).).).).).).).).).).).).).).).).).).).).).).",
").).).).).).).).).).).).).).).).).).).).).).).).).).).).).).).).).).).).).).).).).).).).).).).).).).).).).).).).).).).).).).).).",
").).).).).).).).).).).).).).).).).).).).).).).).).).).).).).).).).).).).).).).).).).).).).).).).).).).).).).).).).).).).).).).).",
").).).).).).).).).).).).).).).).).).).).).).).).).).).).).).).).).).).).).).).m.).).).).).).).).).).).).).).).).).).).).).).).).",
").).).).).).).).).).).).).).).).).).).).).).).).).).).).).).).B.n.n.m.).).).).).).).).).).).).).).).).).).).).).).).).).).).).).",
").).).).).).).).).).).).).).).).).).).).).).).).).).).).).).).).).).).).).).).).).).).).).).).).).).).).).).).).).).).).).).).).",
").).).).).).).).).).).).).).).).).).).).).).).).).).).).).).).).).).).).).).).).).).).).).).).).).).).).).).).).).).).).).).).).",
").).).).).).).).).).).).).).).).).).).).).).).).).).).).).).).).).).).).).).).).).).).).).).).).).).).).).).).).).).).).).).).).",
").).).).).).).).).).).).).).).).).).).).).).).).).).).).).).).).).).).).).).).0.t ).).).).).).).).).).).).).).).).).).).).).).).",
").).).).).).).).).).).).).).).).).).).).W.<.t 8.).).).).).).).).).M.).).).).t t t ).).).).).).).).).).).).).).).).).).).).).).).",
").).).).).).).).).).).).).).).).).).).).).).).).).).).).).).).B.n.N.r.:.4.9.U t t ).).).).).).).).).).).).).).).).).).).).).).).",
").).).).).).).).).).).).).).).).).).).).).).).).).).).).).).H./.(.W.,.P C T 1.@.| E.W.).).n.).).).).).).).).).).).).).).).).).).",
").).).).).).).).).).).).).).).).).).).).).).).).).L.a.).J.I.j.[ N k D / ) J Y o.( Y ;.x.K.n.m.).).).).).).).).).).).).).).).).).",
").).).).).).).).).).).).).).).).).).).).).).).).).).K.G.A.:.7   8 t t t u S M C L W S E a.A.n.).).).).).).).).).).).).).).).).).",
").).).).).).).).).).).).).).).).).).).).).).).).).).J.U.%.b % O e t t t t t t t t t t f #.I.n.).C.B.).).).).).).).).).).).).).).",
").).).).).).).).).).).).).).).t t t ).).).).).).).).Q.3.M h O X 3 t t t t t t t t t t t ^ J.n.n.n.M.).).).).).).).).).).).).).).",
").).).).).).).b.M.).).).).).).).).).).).).).).).).J.V.y > - @ + & t t t t t t t t t t t j g.G.n.n.C.).).).).).).).).).).).).).).",
").).).).t ).).J.).).).).).).).).).).).).t t t U R.Q.q.t t @ . + , t t t t t t t t t t t t &.L.n.).).).).).).).).).).).).).).).).",
").).).).).).).).).).).).).).F.F.~.).).).t t t t f.,.P v Z z a p t t t t t t t t t t t t t n z.!.).).).).B.).).).).).).).).).).).",
").).).).).).).).).).).).).).).).).).).).t t t g $.=.-.t.T.^.(.(./.c.t q t t t t t t t t t 0 e.).).).).).).).).).).).).).).).).).",
").).).).).).).).).).).).t t ).).).).).).).).R W.l.W.7.k g $.v.2.! i = o : 4 w 1 - 5 t r 6 2 d.!.).).L.).).).).).).).).).).).).).",
").).).).).).).).).).).).).).).).).).).).).).).A.l.6.' c t t 2 X X O + o G ^.*.  o + B H ; ] K.n.).).).).).).).).).).).).).).).).",
").).).).).).).).).).).).).).).).).).).).).).).N.p.>.` K S t t < o @ # O +.~.F X o l Q.u.J h.A.n.).).).).).).).).).).).).).).).).",
").).).).).).).).).).).).).).).).).).).).).).).B.A.I.G.y.{ K f t 9 + @ @ - - $ & X O.D.| w.L.n.Z.).).).).).).).).).).).).).).).).",
").).).).).).).).).).).).).).).).).).).).).).).).P.M.n.J.J.0... .I 1   * < d m V s x ( i.I.).n.).).).).).).).).).).).).).).).).).",
").).).).).).).).).).).).).).).).).).).).).).).).).).).).M.J.I.A.5._ ~ } { U A A A Q k.L.m.).).).).).).).).).).).).).).).).).).).",
").).).).).).).).).).).).).).).).).).).).).).).).).).).).).n.n.M.J.!.^.j.X. ... .X.s.J.n.).).).).).).).).).).).).).).).).).).).).",
").).).).).).).).).).).).).).).).).).).).C.n.Q.$.t ).).).).).).).).).M.N.L.L.P.).Y.A.n.).).).).).).).).).).).).).).).).).).).).).",
").).).).).).).).).).).).).).).).).).).n.n.n.E.:.t t ).).).).).).).).).n.n.n.).).).).).).).).).).).).B.).).).).).).).).).).).).).",
").).).).).).).).).).).).).).).).).).).).).).).).).).).).).).).).).).).!.N.b.).).).).).).).).).).n.n.M.).).).).).).).).).).).).).",
").).).).).).).).).).).).).).).).).).).).).).).).).).).).).).).).).).).).).).).).).).B.n.n.n.n.n.n.n.B.).).).).).).).).).).).).).",
").).).).).).).).).).).).).).).).).).).).).).).).).).).).).).).).).).).).).).).).).n.n.n.n.n.n.n.n.n.S.).).).).).).).).).).).).).",
").).).).).).).).).).).).).).).).).).).).).).).).).).).).).).).).).).).).).).).).).).).).n.n.n.n.n.B.).).).).).).).).).).).).).).",
").).).).).).).).).).).).).).).).).).).).).).).).).).).).).).).).).).).).).).).).).).).).).).).).).).).).).).).).).).).).).).).).",
").).).).).).).).).).).).).).).).).).).).).).).).).).).).).).).).).).).).).).).).).).).).).).).).).).).).).).).).).).).).).).).).",
").).).).).).).).).).).).).).).).).).).).).).).).).).).).).).).).).).).).).).).).).).).).).).).).).).).).).).).).).).).).).).).).",
").).).).).).).).).).).).).).).).).).).).).).).).).).).).).).).).).).).).).).).).).).).).).).).).).).).).).).).).).).).).).).).).",
").).).).).).).).).).).).).).).).).).).).).).).).).).).).).).).).).).).).).).).).).).).).).).).).).).).).).).).).).).).).).).).).",
").).).).).).).).).).).).).).).).).).).).).).).).).).).).).).).).).).).).).).).).).).).).).).U.).).).).).).).).).).).).).).).).).",
").).).).).).).).).).).).).).).).).).).).).).).).).).).).).).).).).).).).).).).).).).).).).).).).).).).).).).).).).).).).).).).).",
").).).).).).).).).).).).).).).).).).).).).).).).).).).).).).).).).).).).).).).).).).).).).).).).).).).).).).).).).).).).).).).).",
").).).).).).).).).).).).).).).).).).).).).).).).).).).).).).).).).).).).).).).).).).).).).).).).).).).).).).).).).).).).).).).).",
").).).).).).).).).).).).).).).).).).).).).).).).).).).).).).).).).).).).).).).).).).).).).).).).).).).).).).).).).).).).).).).).",
").).).).).).).).).).).).).).).).).).).).).).).).).).).).).).).).).).).).).).).).).).).).).).).).).).).).).).).).).).).).).).).).",
").).).).).).).).).).).).).).).).).).).).).).).).).).).).).).).).).).).).).).).).).).).).).).).).).).).).).).).).).).).).).).).).",
").).).).).).).).).).).).).).).).).).).).).).).).).).).).).).).).).).).).).).).).).).).).).).).).).).).).).).).).).).).).).).).).",
").).).).).).).).).).).).).).).).).).).).).).).).).).).).).).).).).).).).).).).).).).).).).).).).).).).).).).).).).).).).).).).).",
").).).).).).).).).).).).).).).).).).).).).).).).).).).).).).).).).).).).).).).).).).).).).).).).).).).).).).).).).).).).).).).).",
").).).).).).).).).).).).).).).).).).).).).).).).).).).).).).).).).).).).).).).).).).).).).).).).).).).).).).).).).).).).).).).).",
").).).).).).).).).).).).).).).).).).).).).).).).).).).).).).).).).).).).).).).).).).).).).).).).).).).).).).).).).).).).).).).).",
").).).).).).).).).).).).).).).).).).).).).).).).).).).).).).).).).).).).).).).).).).).).).).).).).).).).).).).).).).).).).).).).",
").).).).).).).).).).).).).).).).).).).).).).).).).).).).).).).).).).).).).).).).).).).).).).).).).).).).).).).).).).).).).).).).",
").).).).).).).).).).).).).).).).).).).).).).).).).).).).).).).).).).).).).).).).).).).).).).).).).).).).).).).).).).).).).).).)."
};
